<svg xmlns="http://www.w3.org/2000/svg" version="1.1"><polyline points="197.5,26.5,189.5,34.5,181.5,42.5,173.5,50.5,165.5,59.0,157.5,67.0,149.0,74.5,139.5,83.0,132.5,91.0,124.5,98.5,116.5,107.0,115.5,114.5,116.0,122.5,116.5,130.0,116.5,137.5,116.5,146.0,117.0,154.0,117.0,162.0,117.0,170.5,117.5,178.0,117.5,186.0,117.5,194.0,117.0,202.5,117.0,210.5,117.5,219.0,119.5,227.0,127.5,235.0,135.5,243.0,144.0,251.0,152.0,259.0,160.0,267.0,168.0,275.0,176.0,283.0,184.0,291.0,192.0,298.5" stroke="black" stroke-width="2" fill="none" />
<polyline points="195.5,298.5,203.0,290.5" stroke="black" stroke-width="2" fill="none" />
<polyline points="211.5,290.0,203.0,298.0,194.5,306.0" stroke="black" stroke-width="2" fill="none" />
<polyline points="195.0,305.0,203.0,304.5,211.5,303.5,220.0,303.0,228.0,302.0,236.0,301.0,244.0,300.5,251.5,300.5,259.5,300.0,267.5,299.5,275.5,299.0,283.5,298.5,292.0,298.0,300.5,297.5,309.0,297.0,317.0,297.0,324.5,297.0" stroke="black" stroke-width="2" fill="none" />
<polyline points="322.5,290.0,330.5,289.0,338.5,288.5" stroke="black" stroke-width="2" fill="none" />
<polyline points="331.0,283.5,338.5,283.0,347.0,282.5" stroke="black" stroke-width="2" fill="none" />
<polyline points="338.5,274.0,347.0,274.0,356.0,273.5" stroke="black" stroke-width="2" fill="none" />
<polyline points="349.5,266.5,357.5,265.5,365.0,264.0" stroke="black" stroke-width="2" fill="none" />
<polyline points="372.0,258.0,364.5,258.5,357.0,259.0" stroke="black" stroke-width="2" fill="none" />
<polyline points="358.0,253.0,365.5,252.5,373.5,253.0" stroke="black" stroke-width="2" fill="none" />
<polyline points="380.0,248.5,372.5,249.0,364.0,249.0" stroke="black" stroke-width="2" fill="none" />
<polyline points="363.0,247.0,371.5,246.5,379.5,245.5" stroke="black" stroke-width="2" fill="none" />
<polyline points="373.0,242.0,381.0,241.0,389.0,240.0" stroke="black" stroke-width="2" fill="none" />
<polyline points="396.0,232.0,387.5,232.5,379.0,233.0" stroke="black" stroke-width="2" fill="none" />
<polyline points="379.5,228.5,387.5,228.0,395.0,227.5" stroke="black" stroke-width="2" fill="none" />
<polyline points="389.0,224.5,397.0,224.0,405.0,224.0" stroke="black" stroke-width="2" fill="none" />
<polyline points="405.0,218.0,397.0,226.0,388.5,233.5,380.5,241.0,372.0,249.0,363.5,257.0,355.0,264.5,347.0,272.0,338.5,279.5,330.0,287.0,321.5,294.0,314.0,302.0" stroke="black" stroke-width="2" fill="none" />
<polyline points="315.0,297.5,323.5,297.0,332.0,296.5" stroke="black" stroke-width="2" fill="none" />
<polyline points="339.5,285.0,331.5,285.5,323.0,286.0" stroke="black" stroke-width="2" fill="none" />
<polyline points="317.5,293.5,309.0,300.5,300.5,307.5" stroke="black" stroke-width="2" fill="none" />
<polyline points="307.0,301.0,315.0,293.5,323.0,285.5,331.0,278.0,339.0,271.0,347.5,264.0,356.5,256.5,365.0,248.5,373.5,242.0,381.5,234.0,389.0,226.5,396.5,219.0,404.5,211.0" stroke="black" stroke-width="2" fill="none" />
<polyline points="404.5,205.0,396.0,212.0,388.0,219.0" stroke="black" stroke-width="2" fill="none" />
<polyline points="387.0,221.0,395.0,220.5,403.5,219.5" stroke="black" stroke-width="2" fill="none" />
<polyline points="405.0,215.5,396.5,215.5,388.5,216.0" stroke="black" stroke-width="2" fill="none" />
<polyline points="387.5,213.5,396.0,213.0,404.0,212.5" stroke="black" stroke-width="2" fill="none" />
<polyline points="404.5,207.5,397.0,208.0,389.0,208.5" stroke="black" stroke-width="2" fill="none" />
<polyline points="386.0,210.5,394.0,203.5,402.0,196.0" stroke="black" stroke-width="2" fill="none" />
<polyline points="403.0,189.0,394.5,196.0,386.0,203.5" stroke="black" stroke-width="2" fill="none" />
<polyline points="388.0,205.0,395.5,204.5,403.0,204.0" stroke="black" stroke-width="2" fill="none" />
<polyline points="404.0,200.0,396.5,200.0,388.5,200.5" stroke="black" stroke-width="2" fill="none" />
<polyline points="388.0,197.0,396.0,189.5,404.5,182.5" stroke="black" stroke-width="2" fill="none" />
<polyline points="402.5,172.0,395.0,179.5,387.5,187.0" stroke="black" stroke-width="2" fill="none" />
<polyline points="388.5,186.5,396.5,186.0,404.5,185.0" stroke="black" stroke-width="2" fill="none" />
<polyline points="403.5,196.0,395.0,196.5,387.0,196.5" stroke="black" stroke-width="2" fill="none" />
<polyline points="386.5,192.5,395.0,192.0,403.5,191.5" stroke="black" stroke-width="2" fill="none" />
<polyline points="402.5,190.5,394.0,191.0,385.0,192.0" stroke="black" stroke-width="2" fill="none" />
<polyline points="389.5,181.0,397.5,180.5,405.5,180.5" stroke="black" stroke-width="2" fill="none" />
<polyline points="405.5,165.0,397.5,172.5,389.5,179.5" stroke="black" stroke-width="2" fill="none" />
<polyline points="389.5,178.0,397.5,177.0,405.5,176.5" stroke="black" stroke-width="2" fill="none" />
<polyline points="390.0,171.0,398.0,163.0,406.0,155.0" stroke="black" stroke-width="2" fill="none" />
<polyline points="405.5,149.5,397.5,156.5,388.5,164.0" stroke="black" stroke-width="2" fill="none" />
<polyline points="387.0,164.0,395.0,163.0,403.5,162.0" stroke="black" stroke-width="2" fill="none" />
<polyline points="404.0,170.0,395.5,171.0,387.5,171.0" stroke="black" stroke-width="2" fill="none" />
<polyline points="387.5,169.0,395.5,168.5,404.5,168.0" stroke="black" stroke-width="2" fill="none" />
<polyline points="403.5,159.0,396.0,160.0,388.0,160.0" stroke="black" stroke-width="2" fill="none" />
<polyline points="385.5,158.5,394.0,158.0,402.5,157.5" stroke="black" stroke-width="2" fill="none" />
<polyline points="388.0,155.5,395.0,147.5,403.0,139.5" stroke="black" stroke-width="2" fill="none" />
<polyline points="403.0,132.5,394.5,139.5,386.5,147.5" stroke="black" stroke-width="2" fill="none" />
<polyline points="388.5,147.5,396.0,147.0,404.0,146.0" stroke="black" stroke-width="2" fill="none" />
<polyline points="404.0,152.0,395.5,152.5,387.0,153.5" stroke="black" stroke-width="2" fill="none" />
<polyline points="389.0,151.0,397.0,150.5,405.0,149.5" stroke="black" stroke-width="2" fill="none" />
<polyline points="404.0,141.5,396.5,141.5,388.5,142.0" stroke="black" stroke-width="2" fill="none" />
<polyline points="388.5,138.0,396.5,130.5,404.5,123.0" stroke="black" stroke-width="2" fill="none" />
<polyline points="404.5,114.0,397.0,121.5,389.0,129.0" stroke="black" stroke-width="2" fill="none" />
<polyline points="389.0,127.0,397.0,126.5,405.0,126.0" stroke="black" stroke-width="2" fill="none" />
<polyline points="403.5,136.5,396.0,137.5,388.0,138.0" stroke="black" stroke-width="2" fill="none" />
<polyline points="388.5,133.0,396.5,132.5,404.5,132.0" stroke="black" stroke-width="2" fill="none" />
<polyline points="404.0,124.0,396.5,124.5,388.5,124.5" stroke="black" stroke-width="2" fill="none" />
<polyline points="387.5,122.0,396.0,114.0,405.0,107.0" stroke="black" stroke-width="2" fill="none" />
<polyline points="396.0,108.5,387.5,116.0" stroke="black" stroke-width="2" fill="none" />
<polyline points="387.5,116.5,395.0,116.5,403.0,115.5" stroke="black" stroke-width="2" fill="none" />
<polyline points="404.5,119.0,397.0,119.0,389.0,119.0" stroke="black" stroke-width="2" fill="none" />
<polyline points="388.5,113.0,396.5,112.5,405.5,112.0" stroke="black" stroke-width="2" fill="none" />
<polyline points="406.0,108.5,398.0,109.5,390.0,110.0" stroke="black" stroke-width="2" fill="none" />
<polyline points="386.5,105.5,394.5,98.0" stroke="black" stroke-width="2" fill="none" />
<polyline points="389.0,99.5,380.5,107.0" stroke="black" stroke-width="2" fill="none" />
<polyline points="379.5,104.0,387.5,103.5,396.0,103.0" stroke="black" stroke-width="2" fill="none" />
<polyline points="389.0,91.0,380.5,98.5" stroke="black" stroke-width="2" fill="none" />
<polyline points="382.0,102.0,389.5,101.0,397.5,100.5" stroke="black" stroke-width="2" fill="none" />
<polyline points="379.5,91.5,371.5,99.0" stroke="black" stroke-width="2" fill="none" />
<polyline points="373.5,96.5,381.0,95.5,388.5,95.0" stroke="black" stroke-width="2" fill="none" />
<polyline points="380.5,83.5,373.0,91.0" stroke="black" stroke-width="2" fill="none" />
<polyline points="372.5,93.5,381.0,93.0,389.0,92.5" stroke="black" stroke-width="2" fill="none" />
<polyline points="372.0,84.5,364.5,92.0" stroke="black" stroke-width="2" fill="none" />
<polyline points="362.0,90.5,370.0,90.0,378.5,89.0" stroke="black" stroke-width="2" fill="none" />
<polyline points="372.5,75.5,364.5,83.0" stroke="black" stroke-width="2" fill="none" />
<polyline points="362.0,86.5,369.5,86.5,377.5,86.5" stroke="black" stroke-width="2" fill="none" />
<polyline points="365.5,73.5,357.5,81.5" stroke="black" stroke-width="2" fill="none" />
<polyline points="357.0,82.5,365.0,82.5,373.5,82.0" stroke="black" stroke-width="2" fill="none" />
<polyline points="365.0,68.5,357.0,75.5" stroke="black" stroke-width="2" fill="none" />
<polyline points="358.0,77.5,365.5,77.0,373.5,76.5" stroke="black" stroke-width="2" fill="none" />
<polyline points="356.5,69.5,348.5,77.0" stroke="black" stroke-width="2" fill="none" />
<polyline points="348.0,72.0,356.0,71.5,363.5,71.5" stroke="black" stroke-width="2" fill="none" />
<polyline points="356.0,59.5,348.0,67.0" stroke="black" stroke-width="2" fill="none" />
<polyline points="346.5,71.0,354.5,70.5,363.0,70.0" stroke="black" stroke-width="2" fill="none" />
<polyline points="345.0,58.0,337.5,66.0" stroke="black" stroke-width="2" fill="none" />
<polyline points="338.0,67.5,346.0,66.5,354.0,65.0" stroke="black" stroke-width="2" fill="none" />
<polyline points="346.5,51.0,338.5,58.5" stroke="black" stroke-width="2" fill="none" />
<polyline points="337.5,63.5,345.5,63.0,354.0,62.5" stroke="black" stroke-width="2" fill="none" />
<polyline points="338.0,52.5,330.0,60.0" stroke="black" stroke-width="2" fill="none" />
<polyline points="330.5,57.5,338.5,57.0,346.0,56.0" stroke="black" stroke-width="2" fill="none" />
<polyline points="338.0,44.0,330.0,51.0" stroke="black" stroke-width="2" fill="none" />
<polyline points="330.5,52.5,338.5,52.0,346.5,50.5" stroke="black" stroke-width="2" fill="none" />
<polyline points="330.5,43.5,322.5,50.5" stroke="black" stroke-width="2" fill="none" />
<polyline points="323.5,48.5,331.5,48.5,339.5,48.5" stroke="black" stroke-width="2" fill="none" />
<polyline points="331.5,37.0,323.5,44.5" stroke="black" stroke-width="2" fill="none" />
<polyline points="323.0,43.5,331.5,43.0,340.0,42.5" stroke="black" stroke-width="2" fill="none" />
<polyline points="324.0,37.0,316.0,44.5" stroke="black" stroke-width="2" fill="none" />
<polyline points="316.5,41.5,324.5,40.5,332.0,39.5" stroke="black" stroke-width="2" fill="none" />
<polyline points="324.5,28.0,316.0,35.5,307.5,42.5" stroke="black" stroke-width="2" fill="none" />
<polyline points="311.0,39.0,319.0,47.0,328.5,54.5,336.5,62.5,343.5,70.5,352.5,78.5,360.5,86.0,368.5,94.0,376.5,102.5,384.5,110.5,386.5,119.0,386.5,126.5,386.5,134.5,386.0,143.0,386.5,151.0,386.5,159.0,386.5,166.5,386.5,174.5,386.5,182.5,386.5,191.0,387.0,199.0,387.0,207.0,387.0,214.5,384.0,222.5,376.0,230.5,366.5,238.5,360.0,246.5,352.5,254.5,343.5,263.0,336.0,271.0,328.0,279.5,320.0,287.0" stroke="black" stroke-width="2" fill="none" />
<polyline points="331.0,278.5,338.5,278.5,346.5,278.5" stroke="black" stroke-width="2" fill="none" />
<polyline points="338.5,269.0,347.0,268.5,355.5,268.0" stroke="black" stroke-width="2" fill="none" />
<polyline points="348.5,259.5,356.5,259.0,365.0,259.0" stroke="black" stroke-width="2" fill="none" />
<polyline points="374.0,237.0,381.5,236.5,389.5,235.5" stroke="black" stroke-width="2" fill="none" />
<polyline points="306.5,292.5,298.5,300.0,291.0,308.5" stroke="black" stroke-width="2" fill="none" />
<polyline points="285.0,308.5,292.5,301.0,300.5,293.0" stroke="black" stroke-width="2" fill="none" />
<polyline points="291.0,292.5,283.0,299.5,275.0,307.5" stroke="black" stroke-width="2" fill="none" />
<polyline points="268.5,305.5,276.5,298.0,285.0,290.0" stroke="black" stroke-width="2" fill="none" />
<polyline points="277.0,290.0,269.5,297.5,261.5,304.5" stroke="black" stroke-width="2" fill="none" />
<polyline points="252.5,307.5,261.0,301.0,269.0,294.0" stroke="black" stroke-width="2" fill="none" />
<polyline points="259.5,293.0,251.5,300.5,243.5,307.5" stroke="black" stroke-width="2" fill="none" />
<polyline points="234.5,306.5,242.0,298.5,250.0,290.5" stroke="black" stroke-width="2" fill="none" />
<polyline points="245.5,292.5,237.5,300.0,229.0,307.0" stroke="black" stroke-width="2" fill="none" />
<polyline points="219.5,307.0,227.5,299.5,235.5,292.0" stroke="black" stroke-width="2" fill="none" />
<polyline points="227.5,290.5,220.0,298.0,212.0,305.5" stroke="black" stroke-width="2" fill="none" />
<polyline points="204.5,306.5,213.0,299.0,221.5,291.5" stroke="black" stroke-width="2" fill="none" />
<polyline points="195.5,283.0,187.5,290.0" stroke="black" stroke-width="2" fill="none" />
<polyline points="188.0,292.0,196.0,291.5,203.5,291.5,211.5,291.5,220.0,291.0,228.0,290.5,236.0,290.0,244.5,290.0,252.5,289.5,260.5,289.0,268.5,288.5,277.0,288.0,285.0,287.5,293.0,286.5,301.5,285.5,309.5,285.0,317.0,284.5,325.0,284.5,332.5,284.0" stroke="black" stroke-width="2" fill="none" />
<polyline points="323.5,294.0,315.5,294.5,308.0,295.0,301.0,295.5,293.5,295.5,285.5,296.0,278.0,297.0,269.5,297.0,261.5,297.5,253.0,298.0,244.5,298.0,236.0,298.5,228.0,299.0,220.0,300.0,212.0,300.0,203.5,300.5,195.5,300.5" stroke="black" stroke-width="2" fill="none" />
<polyline points="188.5,296.5,196.5,296.0,204.0,295.5" stroke="black" stroke-width="2" fill="none" />
<polyline points="193.5,290.0,186.0,297.5" stroke="black" stroke-width="2" fill="none" />
<polyline points="181.5,290.0,190.0,282.5" stroke="black" stroke-width="2" fill="none" />
<polyline points="187.0,273.5,179.5,281.5" stroke="black" stroke-width="2" fill="none" />
<polyline points="178.5,284.0,186.5,283.5,194.5,283.5" stroke="black" stroke-width="2" fill="none" />
<polyline points="196.0,289.0,188.0,289.5,180.0,290.0" stroke="black" stroke-width="2" fill="none" />
<polyline points="172.5,282.0,180.5,281.5,188.5,281.0" stroke="black" stroke-width="2" fill="none" />
<polyline points="178.5,275.0,170.5,282.5" stroke="black" stroke-width="2" fill="none" />
<polyline points="173.0,276.5,181.0,275.5,189.5,275.0" stroke="black" stroke-width="2" fill="none" />
<polyline points="179.0,267.5,171.0,275.5" stroke="black" stroke-width="2" fill="none" />
<polyline points="168.5,269.5,161.0,277.0" stroke="black" stroke-width="2" fill="none" />
<polyline points="163.0,273.5,170.5,273.0,178.0,272.0" stroke="black" stroke-width="2" fill="none" />
<polyline points="172.0,261.0,164.0,268.0" stroke="black" stroke-width="2" fill="none" />
<polyline points="164.0,268.0,172.0,268.0,179.5,267.0" stroke="black" stroke-width="2" fill="none" />
<polyline points="164.5,261.0,156.5,268.0" stroke="black" stroke-width="2" fill="none" />
<polyline points="155.0,268.0,163.0,267.5,171.0,266.5" stroke="black" stroke-width="2" fill="none" />
<polyline points="171.0,262.0,163.5,262.0,155.5,262.5" stroke="black" stroke-width="2" fill="none" />
<polyline points="156.5,258.5,164.5,250.5" stroke="black" stroke-width="2" fill="none" />
<polyline points="157.0,251.5,149.0,258.5" stroke="black" stroke-width="2" fill="none" />
<polyline points="145.5,258.0,154.0,257.5,162.5,257.0" stroke="black" stroke-width="2" fill="none" />
<polyline points="157.0,243.0,148.5,250.5" stroke="black" stroke-width="2" fill="none" />
<polyline points="145.5,256.0,153.5,256.0,161.5,254.5" stroke="black" stroke-width="2" fill="none" />
<polyline points="147.5,244.0,140.0,251.5" stroke="black" stroke-width="2" fill="none" />
<polyline points="140.0,250.0,147.5,249.5,156.0,249.0" stroke="black" stroke-width="2" fill="none" />
<polyline points="156.0,243.0,148.5,243.5,140.0,244.0" stroke="black" stroke-width="2" fill="none" />
<polyline points="140.0,241.5,147.5,233.5" stroke="black" stroke-width="2" fill="none" />
<polyline points="142.0,234.0,133.5,241.5" stroke="black" stroke-width="2" fill="none" />
<polyline points="132.5,243.0,140.5,243.0,148.0,242.0" stroke="black" stroke-width="2" fill="none" />
<polyline points="148.0,237.0,139.5,237.0,132.0,238.0" stroke="black" stroke-width="2" fill="none" />
<polyline points="133.0,234.0,141.0,226.5" stroke="black" stroke-width="2" fill="none" />
<polyline points="133.5,226.0,125.5,234.0" stroke="black" stroke-width="2" fill="none" />
<polyline points="122.0,231.5,130.5,231.0,138.0,231.5" stroke="black" stroke-width="2" fill="none" />
<polyline points="138.0,227.5,129.5,228.5,121.0,229.0" stroke="black" stroke-width="2" fill="none" />
<polyline points="124.0,225.5,132.0,218.0" stroke="black" stroke-width="2" fill="none" />
<polyline points="131.5,220.5,123.0,221.0,115.0,221.5" stroke="black" stroke-width="2" fill="none" />
<polyline points="115.0,219.0,123.5,211.0,131.5,204.0" stroke="black" stroke-width="2" fill="none" />
<polyline points="130.0,211.0,122.0,218.5,114.0,226.0" stroke="black" stroke-width="2" fill="none" />
<polyline points="116.0,226.0,123.5,225.5,131.5,225.0" stroke="black" stroke-width="2" fill="none" />
<polyline points="131.0,221.0,138.5,228.0,146.5,237.0,154.0,245.0,162.0,252.5,169.5,260.0,178.0,268.5,186.0,277.0,194.5,284.0,202.5,293.0,210.5,295.0,218.5,295.0,226.5,295.0,234.5,295.0,242.0,295.0,250.0,295.0,258.0,295.0,266.0,295.0,274.0,295.0,282.0,295.0,290.0,295.0,298.0,295.0,306.5,295.0,314.5,292.0,322.5,284.5,330.5,275.5,338.5,268.5,346.0,260.0,354.0,250.5,362.0,243.5,370.0,235.5,378.0,226.5" stroke="black" stroke-width="2" fill="none" />
<polyline points="301.0,44.0,309.0,36.5,317.0,29.0" stroke="black" stroke-width="2" fill="none" />
<polyline points="317.5,28.5,325.5,36.0,333.0,44.5,341.0,52.0,348.5,59.5,356.5,67.5,364.5,75.5,373.0,83.0,380.0,91.0,388.0,99.0,396.5,107.0,397.5,115.0,397.0,123.5,397.5,131.5,397.5,139.5,398.0,147.5,398.0,155.5,398.5,163.0,398.5,171.0,398.5,179.5,398.5,187.5,398.5,195.5,398.5,203.5,398.5,211.5,398.0,220.0,394.5,228.0,386.5,236.0,378.5,243.5,370.5,251.0,364.0,259.0,355.5,267.5,347.0,275.0,338.5,283.5,330.5,291.5,322.5,300.0" stroke="black" stroke-width="2" fill="none" />
<polyline points="131.0,217.5,123.5,217.5,116.0,217.5" stroke="black" stroke-width="2" fill="none" />
<polyline points="113.5,214.5,121.5,214.0,130.0,213.5" stroke="black" stroke-width="2" fill="none" />
<polyline points="116.0,210.5,123.5,202.0,131.5,194.0" stroke="black" stroke-width="2" fill="none" />
<polyline points="131.5,187.5,123.5,195.0,115.5,202.5" stroke="black" stroke-width="2" fill="none" />
<polyline points="114.0,201.5,122.5,201.5,131.0,201.5" stroke="black" stroke-width="2" fill="none" />
<polyline points="132.0,209.0,124.0,209.0,116.0,209.5" stroke="black" stroke-width="2" fill="none" />
<polyline points="117.0,207.0,125.0,206.0,133.0,205.5" stroke="black" stroke-width="2" fill="none" />
<polyline points="130.0,197.5,123.0,198.5,115.5,199.0" stroke="black" stroke-width="2" fill="none" />
<polyline points="115.0,194.5,123.5,186.5,131.0,178.5" stroke="black" stroke-width="2" fill="none" />
<polyline points="132.5,170.5,124.5,178.0,116.0,186.0" stroke="black" stroke-width="2" fill="none" />
<polyline points="116.0,188.0,123.5,187.5,131.5,187.0" stroke="black" stroke-width="2" fill="none" />
<polyline points="131.5,193.0,123.5,193.0,115.5,193.5" stroke="black" stroke-width="2" fill="none" />
<polyline points="117.5,184.0,125.0,183.0,133.0,182.5" stroke="black" stroke-width="2" fill="none" />
<polyline points="133.0,180.0,125.0,180.5,117.0,181.0" stroke="black" stroke-width="2" fill="none" />
<polyline points="116.5,179.0,125.0,172.0,133.0,164.5" stroke="black" stroke-width="2" fill="none" />
<polyline points="133.5,154.5,125.5,162.0,117.0,169.5" stroke="black" stroke-width="2" fill="none" />
<polyline points="115.0,170.0,123.5,169.5,131.0,168.5" stroke="black" stroke-width="2" fill="none" />
<polyline points="130.5,177.0,123.0,177.5,115.0,178.0" stroke="black" stroke-width="2" fill="none" />
<polyline points="114.0,176.0,122.0,175.5,129.5,175.0" stroke="black" stroke-width="2" fill="none" />
<polyline points="131.5,164.5,123.5,165.0,115.5,165.5" stroke="black" stroke-width="2" fill="none" />
<polyline points="116.0,162.0,124.0,161.5,132.5,161.0" stroke="black" stroke-width="2" fill="none" />
<polyline points="133.0,146.0,125.0,153.5,116.5,160.5" stroke="black" stroke-width="2" fill="none" />
<polyline points="116.5,158.5,124.5,157.5,132.0,157.5" stroke="black" stroke-width="2" fill="none" />
<polyline points="117.0,154.0,125.0,146.5,132.5,139.0" stroke="black" stroke-width="2" fill="none" />
<polyline points="133.5,131.0,126.0,138.5,117.5,145.5" stroke="black" stroke-width="2" fill="none" />
<polyline points="114.5,145.0,122.5,144.0,130.5,143.0" stroke="black" stroke-width="2" fill="none" />
<polyline points="131.5,152.0,123.5,152.5,115.5,153.0" stroke="black" stroke-width="2" fill="none" />
<polyline points="113.0,148.0,121.0,148.0,129.0,148.0" stroke="black" stroke-width="2" fill="none" />
<polyline points="132.5,140.0,124.5,140.5,116.5,140.5" stroke="black" stroke-width="2" fill="none" />
<polyline points="117.0,138.5,125.5,131.5,134.0,124.0" stroke="black" stroke-width="2" fill="none" />
<polyline points="134.5,116.5,126.0,124.0,117.5,131.5" stroke="black" stroke-width="2" fill="none" />
<polyline points="118.0,133.0,126.0,132.5,134.0,132.5" stroke="black" stroke-width="2" fill="none" />
<polyline points="132.0,136.5,124.5,137.0,116.5,137.5" stroke="black" stroke-width="2" fill="none" />
<polyline points="115.5,128.5,123.5,128.0,131.5,128.0" stroke="black" stroke-width="2" fill="none" />
<polyline points="130.0,124.0,122.0,124.5,113.5,125.0" stroke="black" stroke-width="2" fill="none" />
<polyline points="115.0,121.5,123.5,121.0,132.0,120.0" stroke="black" stroke-width="2" fill="none" />
<polyline points="132.0,116.5,124.0,118.0,116.0,118.0" stroke="black" stroke-width="2" fill="none" />
<polyline points="114.0,117.5,122.0,110.0,130.0,103.0,138.0,95.0,146.0,87.5,154.0,79.5,162.0,72.0,170.5,64.5,178.0,56.5,186.0,50.0,193.5,42.5,201.5,35.0,209.5,27.0" stroke="black" stroke-width="2" fill="none" />
<polyline points="202.5,26.0,194.5,33.0,186.5,41.5,179.0,49.5,171.5,57.5,163.5,65.0,155.5,73.0,148.0,80.5,140.0,88.5,132.0,96.5,123.5,104.0,115.5,111.5" stroke="black" stroke-width="2" fill="none" />
<polyline points="115.0,109.0,122.5,108.0,131.0,107.5" stroke="black" stroke-width="2" fill="none" />
<polyline points="130.5,112.0,138.5,104.0,146.5,96.0,154.5,88.5,162.5,80.5,170.5,72.5,178.5,64.5,185.5,56.5,193.0,49.5,201.0,40.5,209.0,39.0,216.5,38.5,224.5,38.5,232.5,38.5,241.0,38.5,249.0,38.5,257.0,38.5,265.5,38.5,273.5,38.0,281.5,38.0,289.5,38.0,297.5,38.0,305.5,37.5,313.0,38.5,321.0,47.5,328.5,54.5,336.5,62.5,344.5,70.5,353.0,78.5,361.0,86.5,369.0,94.5,377.0,103.5,385.0,110.5" stroke="black" stroke-width="2" fill="none" />
<polyline points="307.5,28.5,299.5,36.5,291.5,44.5" stroke="black" stroke-width="2" fill="none" />
<polyline points="284.0,44.5,291.5,36.5,299.5,29.0" stroke="black" stroke-width="2" fill="none" />
<polyline points="290.5,28.0,283.0,35.5,276.0,43.0" stroke="black" stroke-width="2" fill="none" />
<polyline points="270.0,41.5,278.0,34.5,286.0,27.0" stroke="black" stroke-width="2" fill="none" />
<polyline points="277.5,26.5,269.5,33.5,261.0,41.5" stroke="black" stroke-width="2" fill="none" />
<polyline points="253.0,43.5,260.5,36.0,268.5,28.5" stroke="black" stroke-width="2" fill="none" />
<polyline points="259.0,27.0,250.5,34.5,242.5,42.0" stroke="black" stroke-width="2" fill="none" />
<polyline points="236.5,42.5,244.5,34.0,252.5,26.5" stroke="black" stroke-width="2" fill="none" />
<polyline points="243.0,29.0,235.5,35.5,227.5,42.5" stroke="black" stroke-width="2" fill="none" />
<polyline points="218.5,41.5,227.0,34.0,235.0,26.5" stroke="black" stroke-width="2" fill="none" />
<polyline points="226.5,28.0,218.5,35.5,211.0,43.0" stroke="black" stroke-width="2" fill="none" />
<polyline points="204.0,42.5,211.5,35.0,219.5,27.5" stroke="black" stroke-width="2" fill="none" />
<polyline points="205.5,38.5,196.5,46.5,187.5,54.0,179.5,61.5,173.0,70.0,163.5,77.5,155.5,85.5,147.5,93.0,139.5,101.0,131.0,109.0,129.0,117.0,129.5,125.0,129.5,133.0,129.5,141.0,129.5,149.0,130.0,156.5,130.0,164.5,130.0,172.5,130.0,181.0,130.0,189.0,130.0,197.0,129.5,205.0,129.5,213.0,130.5,221.0,139.5,229.0,146.5,237.0,154.5,245.0,163.0,253.0,171.0,261.0,179.5,269.5,187.5,277.5,196.5,285.5,203.5,293.5" stroke="black" stroke-width="2" fill="none" />
<polyline points="118.0,223.5,126.0,232.5,134.0,240.5,142.0,249.0,150.5,257.0,158.5,265.5,166.5,273.5,174.5,282.0,182.5,290.0,190.5,298.0,199.0,306.0,206.5,307.0,214.5,307.0,222.0,306.5,230.0,306.5,238.0,306.0,246.0,306.0,253.5,306.0,261.5,306.0,269.5,306.0,278.0,306.0,285.5,305.5,294.0,305.5,302.5,305.5,310.5,305.0,318.5,303.0,326.5,295.0,334.0,287.0,342.0,279.0,350.0,271.5,358.0,263.0,366.0,255.5,374.5,247.0,383.0,239.0,391.0,231.5" stroke="black" stroke-width="2" fill="none" />
<polyline points="324.0,24.0,316.0,24.5,308.5,25.5,301.0,26.0,293.0,27.0,285.0,28.0,277.0,29.0,269.0,29.0,261.5,29.0,253.5,29.5,245.0,30.0,236.0,30.0,228.5,30.5,221.0,31.0,213.0,32.0,204.5,32.5,196.5,33.5" stroke="black" stroke-width="2" fill="none" />
<polyline points="196.5,28.0,204.5,27.5,212.0,27.0,220.0,26.0,228.0,25.5,236.0,25.0,244.5,24.5,253.0,24.0,261.5,24.0,269.5,24.0,278.0,24.0,285.5,23.5,293.5,22.5,301.5,22.5,308.5,22.0,316.5,21.5,324.5,21.0" stroke="black" stroke-width="2" fill="none" />
<polyline points="204.0,40.5,196.0,40.5,188.0,40.5" stroke="black" stroke-width="2" fill="none" />
<polyline points="190.0,39.5,198.0,38.5,205.5,38.0,213.0,37.0,221.0,36.0,228.5,35.0,236.0,35.0,243.5,35.0,251.0,34.5,259.0,34.5,267.0,34.0,275.5,33.5,283.5,32.5,291.5,31.5,300.0,31.0,307.5,31.0,315.5,30.0,323.5,29.5,331.5,28.5" stroke="black" stroke-width="2" fill="none" />
<polyline points="194.5,49.5,186.0,49.5,178.5,50.0" stroke="black" stroke-width="2" fill="none" />
<polyline points="179.5,46.5,187.5,46.0,195.5,45.0" stroke="black" stroke-width="2" fill="none" />
<polyline points="187.5,57.0,179.5,57.5,171.5,58.0" stroke="black" stroke-width="2" fill="none" />
<polyline points="170.5,55.0,178.5,54.5,187.0,53.5" stroke="black" stroke-width="2" fill="none" />
<polyline points="179.0,65.0,171.0,65.5,163.0,66.0" stroke="black" stroke-width="2" fill="none" />
<polyline points="163.5,62.0,171.5,62.0,179.5,61.5" stroke="black" stroke-width="2" fill="none" />
<polyline points="171.5,72.0,163.5,72.5,155.5,73.5" stroke="black" stroke-width="2" fill="none" />
<polyline points="155.0,67.5,163.0,67.0,171.5,67.0" stroke="black" stroke-width="2" fill="none" />
<polyline points="163.0,82.5,154.5,83.0,146.0,83.5" stroke="black" stroke-width="2" fill="none" />
<polyline points="150.0,78.5,158.0,78.0,165.5,77.0" stroke="black" stroke-width="2" fill="none" />
<polyline points="156.5,88.0,148.5,89.0,140.0,89.5" stroke="black" stroke-width="2" fill="none" />
<polyline points="139.5,86.5,147.0,86.0,154.5,85.0" stroke="black" stroke-width="2" fill="none" />
<polyline points="148.0,96.0,140.0,96.0,132.5,97.0" stroke="black" stroke-width="2" fill="none" />
<polyline points="131.5,92.0,140.0,91.5,148.0,91.0" stroke="black" stroke-width="2" fill="none" />
<polyline points="139.0,104.5,131.0,105.0,123.5,106.0" stroke="black" stroke-width="2" fill="none" />
<polyline points="122.0,102.0,130.5,101.5,139.5,101.0" stroke="black" stroke-width="2" fill="none" />
<polyline points="131.5,113.0,124.0,113.0,116.5,114.0" stroke="black" stroke-width="2" fill="none" />
<polyline points="117.0,106.0,125.0,98.5,133.0,91.0,141.0,83.0,149.5,75.0,157.5,67.0,165.5,59.5,174.0,51.5,182.0,43.5,190.0,35.5,198.5,27.5,206.0,27.0,214.5,27.5,222.5,27.5,230.5,27.5,238.5,27.5,246.5,27.0,254.0,26.5,262.0,26.5,270.0,26.5,278.0,26.5,286.0,26.5,294.5,27.0,302.5,27.0,310.5,27.0,318.5,27.5,326.5,36.0,335.0,44.0,343.5,52.0,351.5,60.0,359.5,68.5,367.5,76.0,375.5,83.0,383.0,92.5,390.5,100.5" stroke="black" stroke-width="2" fill="none" />
</svg>