<svg xmlns="http://www.w3.org/2000/svg" version="1.1"><polyline points="283.0,6.5,268.0,15.0,262.0,23.0,257.0,31.0,256.0,39.0,261.0,36.0,268.5,27.0,276.5,22.5,284.5,19.5,292.5,17.0,301.0,15.0,309.0,15.0,317.0,14.5,325.0,14.5,333.0,14.5,341.0,14.5,349.5,14.5,357.5,14.5,366.0,15.0,374.5,14.0" stroke="black" stroke-width="2" fill="none" />
<polyline points="370.5,18.5,377.5,11.0,385.5,3.5" stroke="black" stroke-width="2" fill="none" />
<polyline points="380.0,4.5,372.0,12.0,364.0,19.5" stroke="black" stroke-width="2" fill="none" />
<polyline points="370.0,27.0,378.0,19.0,386.0,11.0" stroke="black" stroke-width="2" fill="none" />
<polyline points="380.0,26.5,372.0,27.5" stroke="black" stroke-width="2" fill="none" />
<polyline points="373.5,23.5,381.0,23.0" stroke="black" stroke-width="2" fill="none" />
<polyline points="369.5,2.0,361.0,10.0,353.5,17.0" stroke="black" stroke-width="2" fill="none" />
<polyline points="347.5,19.0,355.5,11.5,363.5,3.5" stroke="black" stroke-width="2" fill="none" />
<polyline points="355.0,5.5,347.0,12.5,339.0,19.5" stroke="black" stroke-width="2" fill="none" />
<polyline points="331.0,18.5,339.5,11.0,347.5,3.5" stroke="black" stroke-width="2" fill="none" />
<polyline points="347.0,4.5,355.0,4.5,363.5,4.0,371.5,4.0,379.0,4.0,387.0,5.0,392.5,7.0,385.5,15.0,375.0,23.0,359.0,28.5,367.0,21.5,372.0,13.5,366.0,21.5,358.5,29.5,365.5,26.5,373.5,23.5,381.5,18.5,389.5,11.0" stroke="black" stroke-width="2" fill="none" />
<polyline points="388.5,5.0,380.5,5.5,372.5,6.0,364.5,6.5,356.0,7.0,348.0,7.0,340.0,6.5,331.5,7.0,323.0,7.5,314.5,7.5,305.5,7.5,297.0,7.5" stroke="black" stroke-width="2" fill="none" />
<polyline points="292.0,5.0,300.0,5.0,308.0,4.0,315.5,3.5,324.0,3.0,332.0,2.5,340.0,2.0,348.0,1.5,355.5,1.0,363.5,0.0,371.0,-1.0,379.0,-1.0,387.0,-1.0,395.0,-1.0" stroke="black" stroke-width="2" fill="none" />
<polyline points="387.5,9.0,380.0,10.0,372.5,10.5,364.5,11.0,356.5,12.0,348.5,12.5,340.0,13.0,331.5,13.5,323.0,14.0,314.5,14.5,306.5,15.0,298.0,15.5,290.0,16.5,282.0,18.0,274.0,19.0" stroke="black" stroke-width="2" fill="none" />
<polyline points="275.5,14.5,283.5,14.0,291.5,13.0,300.0,12.0,308.5,11.5,317.0,11.0,325.0,10.0,333.5,9.0,341.5,8.5,349.0,8.5,357.0,8.0,365.0,7.0,373.5,6.0,381.5,5.0,389.0,4.5,397.0,4.0" stroke="black" stroke-width="2" fill="none" />
<polyline points="396.0,48.5,404.0,48.5,411.5,48.5,419.5,50.0,427.0,51.5,435.0,52.0,443.0,53.0,447.0,54.5,455.0,55.0,463.5,56.0,471.0,59.0" stroke="black" stroke-width="2" fill="none" />
<polyline points="474.5,58.0,467.0,65.0,459.5,72.5" stroke="black" stroke-width="2" fill="none" />
<polyline points="461.0,59.5,453.0,67.0,445.0,75.0,436.5,83.0,428.5,90.5,420.0,98.0,412.5,105.5" stroke="black" stroke-width="2" fill="none" />
<polyline points="412.5,97.0,420.5,96.5,428.5,96.5" stroke="black" stroke-width="2" fill="none" />
<polyline points="430.0,102.0,438.0,105.0,446.0,110.0,454.5,115.0,463.0,120.0,471.5,126.0,479.5,134.0,487.0,144.5,495.0,155.5,503.0,171.5" stroke="black" stroke-width="2" fill="none" />
<polyline points="505.5,171.0,497.5,178.0" stroke="black" stroke-width="2" fill="none" />
<polyline points="498.5,178.5,507.0,177.5" stroke="black" stroke-width="2" fill="none" />
<polyline points="506.5,177.5,499.0,185.0" stroke="black" stroke-width="2" fill="none" />
<polyline points="498.5,183.5,506.5,183.0" stroke="black" stroke-width="2" fill="none" />
<polyline points="508.5,185.5,500.5,193.5" stroke="black" stroke-width="2" fill="none" />
<polyline points="498.5,194.0,506.5,194.0" stroke="black" stroke-width="2" fill="none" />
<polyline points="508.0,196.5,500.5,203.5" stroke="black" stroke-width="2" fill="none" />
<polyline points="500.5,205.5,508.5,205.0,516.5,204.0" stroke="black" stroke-width="2" fill="none" />
<polyline points="514.5,204.0,506.5,212.0" stroke="black" stroke-width="2" fill="none" />
<polyline points="508.5,210.0,516.5,209.5" stroke="black" stroke-width="2" fill="none" />
<polyline points="514.5,213.5,506.5,220.5" stroke="black" stroke-width="2" fill="none" />
<polyline points="510.0,217.5,517.5,217.5" stroke="black" stroke-width="2" fill="none" />
<polyline points="515.5,220.0,507.5,227.5" stroke="black" stroke-width="2" fill="none" />
<polyline points="508.5,225.5,516.0,225.0" stroke="black" stroke-width="2" fill="none" />
<polyline points="515.0,227.5,507.0,235.0" stroke="black" stroke-width="2" fill="none" />
<polyline points="507.0,232.5,515.0,232.0" stroke="black" stroke-width="2" fill="none" />
<polyline points="516.0,234.0,508.0,241.5,499.5,249.0" stroke="black" stroke-width="2" fill="none" />
<polyline points="499.0,248.0,507.0,247.0,514.5,246.5" stroke="black" stroke-width="2" fill="none" />
<polyline points="515.5,251.5,507.0,259.0,499.0,266.5" stroke="black" stroke-width="2" fill="none" />
<polyline points="498.0,267.5,506.0,267.0,513.5,266.5" stroke="black" stroke-width="2" fill="none" />
<polyline points="514.5,259.0,506.5,266.0,498.5,273.0" stroke="black" stroke-width="2" fill="none" />
<polyline points="499.5,272.0,507.5,271.5" stroke="black" stroke-width="2" fill="none" />
<polyline points="508.0,277.5,500.5,285.0,492.0,292.5" stroke="black" stroke-width="2" fill="none" />
<polyline points="491.0,294.0,499.0,293.0,506.5,292.5" stroke="black" stroke-width="2" fill="none" />
<polyline points="507.5,290.5,499.5,298.5,491.5,306.5" stroke="black" stroke-width="2" fill="none" />
<polyline points="493.0,305.5,501.5,305.0" stroke="black" stroke-width="2" fill="none" />
<polyline points="508.0,299.5,500.0,307.5,492.0,314.5,484.0,322.0" stroke="black" stroke-width="2" fill="none" />
<polyline points="485.0,322.0,493.5,321.5,501.5,320.5" stroke="black" stroke-width="2" fill="none" />
<polyline points="499.5,314.0,491.0,321.0,483.0,329.0,475.0,337.0" stroke="black" stroke-width="2" fill="none" />
<polyline points="475.5,337.0,483.0,336.5,491.0,336.0" stroke="black" stroke-width="2" fill="none" />
<polyline points="493.5,334.0,485.5,341.0,477.0,348.0,469.0,355.5,461.0,362.5,452.5,369.5" stroke="black" stroke-width="2" fill="none" />
<polyline points="453.5,370.5,461.5,370.0,469.0,369.5,477.0,369.0" stroke="black" stroke-width="2" fill="none" />
<polyline points="466.5,378.5,459.0,386.0,451.0,394.0,443.5,402.0,436.0,410.0,429.0,417.5,421.0,425.0,413.0,432.5,405.5,440.0" stroke="black" stroke-width="2" fill="none" />
<polyline points="404.0,442.5,412.0,442.0,419.5,441.5,427.5,441.0" stroke="black" stroke-width="2" fill="none" />
<polyline points="435.5,429.0,428.0,436.5,420.0,443.5,412.0,450.5,404.0,458.0,395.5,465.0,387.5,472.5,379.0,480.0,370.5,487.5,362.5,495.5,354.5,503.0,346.5,511.0,339.0,518.5,331.5,526.0,323.5,533.0,315.5,540.5,307.5,548.0,299.5,555.5,291.5,562.5" stroke="black" stroke-width="2" fill="none" />
<polyline points="300.0,564.0,308.0,557.0,316.0,549.5,324.5,542.0,332.5,534.5,340.0,527.5,348.5,520.0,357.0,513.0,365.0,505.5,373.0,497.5,381.0,490.0,388.5,482.5,396.5,475.0,403.5,468.0,410.5,460.5,418.0,453.0" stroke="black" stroke-width="2" fill="none" />
<polyline points="420.5,448.5,413.0,449.5,405.0,450.0" stroke="black" stroke-width="2" fill="none" />
<polyline points="396.5,447.0,404.5,446.5,412.5,445.5,420.0,445.0" stroke="black" stroke-width="2" fill="none" />
<polyline points="413.0,435.5,421.5,435.0,429.5,434.5,437.0,433.5" stroke="black" stroke-width="2" fill="none" />
<polyline points="444.0,417.0,435.5,417.0,427.5,417.5" stroke="black" stroke-width="2" fill="none" />
<polyline points="427.5,409.5,435.0,409.0,443.0,408.0" stroke="black" stroke-width="2" fill="none" />
<polyline points="444.5,409.5,436.5,417.0,428.0,425.0,420.0,433.0,412.5,440.5,404.5,448.0,396.5,455.5,388.5,463.0,381.0,470.0" stroke="black" stroke-width="2" fill="none" />
<polyline points="381.0,469.5,389.0,469.0,397.5,468.5,405.5,468.0" stroke="black" stroke-width="2" fill="none" />
<polyline points="395.5,456.5,403.5,455.5,411.5,455.5,419.5,455.0" stroke="black" stroke-width="2" fill="none" />
<polyline points="426.0,435.5,418.0,435.5,410.0,436.0,402.0,436.5" stroke="black" stroke-width="2" fill="none" />
<polyline points="412.0,430.0,420.0,429.5,428.5,429.0,437.0,428.5" stroke="black" stroke-width="2" fill="none" />
<polyline points="434.5,424.5,426.5,424.5,418.5,425.0" stroke="black" stroke-width="2" fill="none" />
<polyline points="419.0,420.0,427.0,419.5,434.5,418.5,442.0,418.5" stroke="black" stroke-width="2" fill="none" />
<polyline points="435.0,403.5,443.0,402.5,451.0,402.0" stroke="black" stroke-width="2" fill="none" />
<polyline points="443.5,387.0,451.5,387.0,460.0,386.0,468.0,385.5" stroke="black" stroke-width="2" fill="none" />
<polyline points="466.5,378.5,458.5,379.0,450.5,380.0" stroke="black" stroke-width="2" fill="none" />
<polyline points="450.5,375.5,458.5,375.0,467.5,374.0" stroke="black" stroke-width="2" fill="none" />
<polyline points="476.5,365.5,468.5,366.0,460.5,366.5,452.5,367.5" stroke="black" stroke-width="2" fill="none" />
<polyline points="458.0,360.5,466.0,360.0,474.5,360.5,482.5,360.5" stroke="black" stroke-width="2" fill="none" />
<polyline points="484.5,355.0,476.0,362.5,467.5,370.5,459.0,378.0,451.0,386.5,443.0,394.5,434.5,402.0,427.0,409.5,419.5,417.0" stroke="black" stroke-width="2" fill="none" />
<polyline points="419.0,411.0,427.0,411.0,434.5,411.5,442.0,411.5" stroke="black" stroke-width="2" fill="none" />
<polyline points="434.0,398.0,442.0,397.5,450.0,396.5" stroke="black" stroke-width="2" fill="none" />
<polyline points="435.5,392.0,443.5,384.5,452.0,378.0,460.0,370.5,467.5,363.0,475.5,355.5,483.5,348.5,491.5,341.0" stroke="black" stroke-width="2" fill="none" />
<polyline points="492.5,330.0,484.0,330.5" stroke="black" stroke-width="2" fill="none" />
<polyline points="484.5,327.5,492.5,327.0,500.5,325.5" stroke="black" stroke-width="2" fill="none" />
<polyline points="501.0,314.5,492.5,315.0" stroke="black" stroke-width="2" fill="none" />
<polyline points="500.0,315.5,492.5,315.5,484.5,316.0" stroke="black" stroke-width="2" fill="none" />
<polyline points="484.5,311.0,492.0,310.0,500.0,309.5" stroke="black" stroke-width="2" fill="none" />
<polyline points="492.5,301.0,500.5,301.0,508.5,301.0" stroke="black" stroke-width="2" fill="none" />
<polyline points="508.0,284.5,500.0,292.5,491.5,299.5" stroke="black" stroke-width="2" fill="none" />
<polyline points="491.0,300.0,499.5,299.0,508.0,298.0" stroke="black" stroke-width="2" fill="none" />
<polyline points="509.0,281.5,500.5,282.0" stroke="black" stroke-width="2" fill="none" />
<polyline points="501.5,276.0,509.5,275.5" stroke="black" stroke-width="2" fill="none" />
<polyline points="514.5,263.0,506.0,263.5,498.0,263.5" stroke="black" stroke-width="2" fill="none" />
<polyline points="500.0,260.5,508.0,260.0,515.5,260.0" stroke="black" stroke-width="2" fill="none" />
<polyline points="501.5,257.0,510.0,249.0,518.0,241.5" stroke="black" stroke-width="2" fill="none" />
<polyline points="514.0,239.5,506.0,240.0" stroke="black" stroke-width="2" fill="none" />
<polyline points="510.0,244.0,510.0,251.5,510.0,260.0,509.5,268.5,509.0,276.5,508.0,284.5,506.5,292.5,504.5,300.5,501.5,308.0,500.0,315.5,497.0,323.5,493.5,331.5,490.5,339.0,486.0,347.0,481.0,355.0,476.0,362.5,471.0,370.5,466.0,379.0,460.5,387.0,454.5,395.0,449.5,403.0,445.0,411.0,439.0,419.0,435.0,427.0,428.5,435.0,423.5,443.5,418.5,451.0,413.5,459.0,408.0,467.5,402.5,475.5,396.0,484.0,389.0,491.5,384.0,499.0,377.5,507.0,371.5,514.5,364.5,522.5,356.5,530.5,349.0,538.5,340.5,547.0,329.5,554.5,316.5,562.5,297.5,570.5,302.5,569.5,310.5,565.5,318.0,562.0,326.0,555.0,334.0,550.0,341.5,543.0,349.5,536.5,358.0,528.5,366.0,521.5,374.0,512.0,382.5,501.0,390.5,490.5,398.5,480.5,406.5,469.5,414.5,458.0,423.0,446.0,431.0,434.0,439.0,420.0,447.0,408.0,455.0,397.0,463.0,385.0,471.0,373.0,479.0,361.0,486.5,344.5,494.5,327.5" stroke="black" stroke-width="2" fill="none" />
<polyline points="491.0,345.5,483.0,346.5,475.0,347.0" stroke="black" stroke-width="2" fill="none" />
<polyline points="469.5,350.5,477.5,350.0,485.5,349.5" stroke="black" stroke-width="2" fill="none" />
<polyline points="485.0,353.5,477.0,354.0,469.0,354.0" stroke="black" stroke-width="2" fill="none" />
<polyline points="458.0,358.0,466.0,357.5,474.5,357.0,483.0,356.5" stroke="black" stroke-width="2" fill="none" />
<polyline points="492.5,340.0,484.5,340.0,477.0,340.5,469.0,341.5" stroke="black" stroke-width="2" fill="none" />
<polyline points="475.5,334.0,483.5,333.5,491.5,333.0" stroke="black" stroke-width="2" fill="none" />
<polyline points="491.0,288.0,498.5,287.5,506.0,287.0" stroke="black" stroke-width="2" fill="none" />
<polyline points="507.0,283.5,498.5,284.0,490.5,284.5" stroke="black" stroke-width="2" fill="none" />
<polyline points="499.0,259.0,507.0,258.0,515.0,258.0" stroke="black" stroke-width="2" fill="none" />
<polyline points="513.5,253.0,505.0,253.5,496.5,254.0" stroke="black" stroke-width="2" fill="none" />
<polyline points="498.0,251.5,506.0,251.5,513.5,250.5" stroke="black" stroke-width="2" fill="none" />
<polyline points="514.0,239.0,506.5,239.5,498.5,240.0" stroke="black" stroke-width="2" fill="none" />
<polyline points="497.5,229.5,505.0,229.0,513.5,228.5" stroke="black" stroke-width="2" fill="none" />
<polyline points="515.0,220.0,507.5,220.5,499.5,221.0" stroke="black" stroke-width="2" fill="none" />
<polyline points="502.5,212.5,510.5,212.0,517.5,211.5" stroke="black" stroke-width="2" fill="none" />
<polyline points="508.0,204.0,500.5,212.0" stroke="black" stroke-width="2" fill="none" />
<polyline points="503.5,212.5,503.5,220.5,503.5,228.5,504.0,236.5" stroke="black" stroke-width="2" fill="none" />
<polyline points="500.0,201.0,508.5,200.5" stroke="black" stroke-width="2" fill="none" />
<polyline points="515.5,197.5,507.5,198.5,499.0,199.0" stroke="black" stroke-width="2" fill="none" />
<polyline points="497.5,189.5,505.5,189.0" stroke="black" stroke-width="2" fill="none" />
<polyline points="507.5,181.5,500.0,182.0" stroke="black" stroke-width="2" fill="none" />
<polyline points="492.5,174.0,500.5,173.0,509.0,172.0" stroke="black" stroke-width="2" fill="none" />
<polyline points="500.5,162.5,492.5,169.5" stroke="black" stroke-width="2" fill="none" />
<polyline points="491.5,169.5,499.5,169.0" stroke="black" stroke-width="2" fill="none" />
<polyline points="499.0,167.0,490.5,167.5" stroke="black" stroke-width="2" fill="none" />
<polyline points="491.5,163.0,499.5,162.5" stroke="black" stroke-width="2" fill="none" />
<polyline points="492.0,162.5,500.0,155.0" stroke="black" stroke-width="2" fill="none" />
<polyline points="493.5,148.0,485.0,155.5" stroke="black" stroke-width="2" fill="none" />
<polyline points="484.5,151.5,492.5,151.0" stroke="black" stroke-width="2" fill="none" />
<polyline points="490.5,159.0,498.5,159.0" stroke="black" stroke-width="2" fill="none" />
<polyline points="492.5,143.0,484.0,143.5,476.0,144.0" stroke="black" stroke-width="2" fill="none" />
<polyline points="475.0,139.0,483.5,131.0" stroke="black" stroke-width="2" fill="none" />
<polyline points="483.5,134.5,476.0,134.5" stroke="black" stroke-width="2" fill="none" />
<polyline points="467.5,130.0,475.0,122.0" stroke="black" stroke-width="2" fill="none" />
<polyline points="475.5,126.0,467.5,126.5" stroke="black" stroke-width="2" fill="none" />
<polyline points="452.5,105.0,445.0,112.5" stroke="black" stroke-width="2" fill="none" />
<polyline points="444.5,110.5,452.5,117.5,460.5,124.0,468.5,132.0,476.5,142.0,485.0,153.5" stroke="black" stroke-width="2" fill="none" />
<polyline points="451.5,169.5,443.5,177.5" stroke="black" stroke-width="2" fill="none" />
<polyline points="441.0,178.0,441.0,186.0" stroke="black" stroke-width="2" fill="none" />
<polyline points="444.0,185.0,452.0,177.0" stroke="black" stroke-width="2" fill="none" />
<polyline points="453.5,186.0,446.0,186.0" stroke="black" stroke-width="2" fill="none" />
<polyline points="443.5,183.5,451.0,182.5" stroke="black" stroke-width="2" fill="none" />
<polyline points="449.5,177.5,441.0,178.0" stroke="black" stroke-width="2" fill="none" />
<polyline points="442.5,173.5,450.5,173.5" stroke="black" stroke-width="2" fill="none" />
<polyline points="442.5,161.5,434.5,169.0" stroke="black" stroke-width="2" fill="none" />
<polyline points="436.5,169.0,444.5,168.5" stroke="black" stroke-width="2" fill="none" />
<polyline points="444.5,164.0,436.0,164.5" stroke="black" stroke-width="2" fill="none" />
<polyline points="434.5,163.0,437.0,171.0,439.0,178.5,438.5,186.5,436.5,191.0,444.0,193.0,452.0,184.0" stroke="black" stroke-width="2" fill="none" />
<polyline points="452.5,187.5,444.5,188.0,436.5,188.0" stroke="black" stroke-width="2" fill="none" />
<polyline points="449.5,189.5,453.5,181.5,452.5,173.0,445.5,165.0,433.5,164.0" stroke="black" stroke-width="2" fill="none" />
<polyline points="432.0,163.0,440.5,162.0,448.5,167.5" stroke="black" stroke-width="2" fill="none" />
<polyline points="446.0,110.5,459.0,118.5,469.5,126.0,479.0,133.5,485.0,142.0,491.0,149.5,495.0,157.5,499.0,165.5,503.0,173.0,505.5,181.0,508.0,188.5,510.0,196.5,511.0,205.0,511.0,213.0,511.0,221.5" stroke="black" stroke-width="2" fill="none" />
<polyline points="444.0,305.5,436.0,312.5,427.5,320.0" stroke="black" stroke-width="2" fill="none" />
<polyline points="435.0,319.5,427.0,319.5,419.0,319.5" stroke="black" stroke-width="2" fill="none" />
<polyline points="417.0,317.0,425.5,316.5,434.0,316.5,443.0,316.0" stroke="black" stroke-width="2" fill="none" />
<polyline points="435.0,311.0,427.0,318.0,419.0,324.5" stroke="black" stroke-width="2" fill="none" />
<polyline points="419.0,326.5,427.0,327.5,435.5,324.5" stroke="black" stroke-width="2" fill="none" />
<polyline points="442.0,311.0,433.5,311.0,425.5,311.5" stroke="black" stroke-width="2" fill="none" />
<polyline points="426.5,309.0,434.5,301.5" stroke="black" stroke-width="2" fill="none" />
<polyline points="435.5,304.0,427.5,304.5" stroke="black" stroke-width="2" fill="none" />
<polyline points="427.5,308.0,435.5,308.0,444.0,307.5" stroke="black" stroke-width="2" fill="none" />
<polyline points="436.0,300.0,428.5,300.5" stroke="black" stroke-width="2" fill="none" />
<polyline points="432.5,299.0,424.5,294.0" stroke="black" stroke-width="2" fill="none" />
<polyline points="425.5,294.5,426.5,302.0,425.0,310.0,421.0,318.0,417.0,326.0,423.0,313.0" stroke="black" stroke-width="2" fill="none" />
<polyline points="437.0,319.5,437.0,311.5,436.0,303.5,428.0,295.5" stroke="black" stroke-width="2" fill="none" />
<polyline points="365.0,347.0,356.5,354.5" stroke="black" stroke-width="2" fill="none" />
<polyline points="354.0,358.0,361.5,357.0" stroke="black" stroke-width="2" fill="none" />
<polyline points="364.5,355.5,356.5,362.5" stroke="black" stroke-width="2" fill="none" />
<polyline points="356.0,362.0,364.0,361.5" stroke="black" stroke-width="2" fill="none" />
<polyline points="364.0,361.5,356.0,369.0,347.5,376.5" stroke="black" stroke-width="2" fill="none" />
<polyline points="347.0,377.5,355.0,376.5" stroke="black" stroke-width="2" fill="none" />
<polyline points="357.5,372.0,365.5,371.5" stroke="black" stroke-width="2" fill="none" />
<polyline points="348.0,372.0,340.0,379.5" stroke="black" stroke-width="2" fill="none" />
<polyline points="341.5,379.0,349.5,379.0,357.5,376.0" stroke="black" stroke-width="2" fill="none" />
<polyline points="362.0,363.0,354.0,363.5,345.5,364.5" stroke="black" stroke-width="2" fill="none" />
<polyline points="347.5,356.0,355.5,349.0" stroke="black" stroke-width="2" fill="none" />
<polyline points="357.5,350.0,350.0,346.0,342.0,346.5" stroke="black" stroke-width="2" fill="none" />
<polyline points="342.0,348.5,342.0,349.0,349.0,357.0,352.0,365.0,342.0,373.0,343.0,371.5,351.0,366.0" stroke="black" stroke-width="2" fill="none" />
<polyline points="340.5,374.0,348.5,373.0,356.5,373.0,364.5,372.5" stroke="black" stroke-width="2" fill="none" />
<polyline points="364.0,351.0,355.5,351.0,347.5,350.5" stroke="black" stroke-width="2" fill="none" />
<polyline points="348.0,348.0,356.0,347.5,364.0,347.5" stroke="black" stroke-width="2" fill="none" />
<polyline points="351.0,347.0,361.0,355.0,363.0,363.5,361.5,371.5" stroke="black" stroke-width="2" fill="none" />
<polyline points="377.5,410.0,378.0,418.0,378.0,426.0,377.5,433.5,364.5,441.5,370.0,449.5,372.0,449.5,380.0,449.5,388.0,442.5" stroke="black" stroke-width="2" fill="none" />
<polyline points="381.0,435.0,389.0,434.5,396.5,433.5" stroke="black" stroke-width="2" fill="none" />
<polyline points="395.0,426.5,387.0,434.0,379.5,441.0,371.5,449.0" stroke="black" stroke-width="2" fill="none" />
<polyline points="372.0,449.0,380.0,448.5" stroke="black" stroke-width="2" fill="none" />
<polyline points="386.5,444.5,379.0,445.0,371.5,445.5" stroke="black" stroke-width="2" fill="none" />
<polyline points="370.0,441.5,378.5,441.5,386.0,441.5" stroke="black" stroke-width="2" fill="none" />
<polyline points="379.5,431.5,388.0,430.5,396.5,429.0" stroke="black" stroke-width="2" fill="none" />
<polyline points="395.0,417.0,386.5,425.0,379.0,432.5,371.0,440.5" stroke="black" stroke-width="2" fill="none" />
<polyline points="371.5,438.0,379.0,437.5,387.0,437.0,395.0,436.5" stroke="black" stroke-width="2" fill="none" />
<polyline points="389.0,426.5,381.0,427.5" stroke="black" stroke-width="2" fill="none" />
<polyline points="378.0,426.5,386.0,419.5" stroke="black" stroke-width="2" fill="none" />
<polyline points="388.5,419.0,380.0,419.0" stroke="black" stroke-width="2" fill="none" />
<polyline points="379.0,418.5,386.0,411.5" stroke="black" stroke-width="2" fill="none" />
<polyline points="389.5,414.0,381.5,414.5" stroke="black" stroke-width="2" fill="none" />
<polyline points="380.0,410.0,387.0,418.0,390.0,426.5,390.0,434.5,387.0,443.0" stroke="black" stroke-width="2" fill="none" />
<polyline points="395.0,454.0,403.0,453.5,411.0,453.0,419.0,452.5" stroke="black" stroke-width="2" fill="none" />
<polyline points="410.0,463.0,402.0,463.0,394.5,463.0,387.0,463.0" stroke="black" stroke-width="2" fill="none" />
<polyline points="387.0,460.0,395.0,459.5,403.0,458.5,410.5,458.0" stroke="black" stroke-width="2" fill="none" />
<polyline points="395.5,484.0,388.0,492.0,379.5,499.5,371.5,506.5,363.5,513.5,355.5,520.5,348.0,527.5,340.0,535.5,332.0,542.5,324.5,550.0" stroke="black" stroke-width="2" fill="none" />
<polyline points="323.0,537.5,331.0,537.0,339.0,536.5,347.0,536.0,355.5,536.0" stroke="black" stroke-width="2" fill="none" />
<polyline points="362.5,523.0,354.5,531.0,347.0,538.0,339.0,545.0" stroke="black" stroke-width="2" fill="none" />
<polyline points="332.5,529.5,341.0,529.0,349.0,528.5,357.0,527.5" stroke="black" stroke-width="2" fill="none" />
<polyline points="346.5,515.0,354.5,514.0,362.0,513.0,370.5,512.5" stroke="black" stroke-width="2" fill="none" />
<polyline points="363.5,499.0,371.0,498.5,379.5,498.0,387.5,497.5" stroke="black" stroke-width="2" fill="none" />
<polyline points="396.0,487.0,388.5,488.0,380.5,489.0,373.0,490.0" stroke="black" stroke-width="2" fill="none" />
<polyline points="371.0,484.0,379.5,483.5,387.0,483.0,395.0,483.0" stroke="black" stroke-width="2" fill="none" />
<polyline points="397.0,480.5,389.0,480.5,381.0,481.5" stroke="black" stroke-width="2" fill="none" />
<polyline points="381.0,476.5,389.0,476.5,396.0,476.0" stroke="black" stroke-width="2" fill="none" />
<polyline points="405.0,469.5,397.5,470.5,389.0,471.0,381.0,472.0" stroke="black" stroke-width="2" fill="none" />
<polyline points="388.0,493.5,379.5,494.0,371.0,494.5,363.0,495.0" stroke="black" stroke-width="2" fill="none" />
<polyline points="354.5,504.5,363.0,503.5,371.5,502.5,379.5,501.5,387.0,500.5" stroke="black" stroke-width="2" fill="none" />
<polyline points="379.0,505.5,371.0,506.0,362.0,507.0,353.5,507.5" stroke="black" stroke-width="2" fill="none" />
<polyline points="347.5,510.0,356.0,510.0,364.0,510.0,371.5,509.5" stroke="black" stroke-width="2" fill="none" />
<polyline points="363.5,520.5,355.0,521.0,346.5,522.5,338.5,523.0" stroke="black" stroke-width="2" fill="none" />
<polyline points="338.5,519.0,347.0,518.5,355.0,517.5,363.0,516.5,371.5,515.5" stroke="black" stroke-width="2" fill="none" />
<polyline points="364.0,523.5,356.5,523.5,349.0,524.5,341.0,525.0,333.0,525.5" stroke="black" stroke-width="2" fill="none" />
<polyline points="323.5,532.0,316.0,539.5,307.5,547.0,299.5,555.0,291.5,562.5,283.5,570.0" stroke="black" stroke-width="2" fill="none" />
<polyline points="276.0,570.5,284.0,563.0,292.0,554.5,300.0,547.0" stroke="black" stroke-width="2" fill="none" />
<polyline points="306.5,544.5,314.0,543.5,322.0,543.0,330.0,542.5,338.5,541.5,347.0,540.5" stroke="black" stroke-width="2" fill="none" />
<polyline points="356.5,532.0,348.5,532.5,340.5,533.5,332.5,534.0,325.0,534.5,317.5,534.5" stroke="black" stroke-width="2" fill="none" />
<polyline points="307.0,542.0,315.0,541.0,324.0,540.5,332.5,539.5,341.0,538.5,349.5,538.0" stroke="black" stroke-width="2" fill="none" />
<polyline points="313.5,499.5,321.5,492.5,329.0,485.0" stroke="black" stroke-width="2" fill="none" />
<polyline points="331.5,480.5,323.5,481.0" stroke="black" stroke-width="2" fill="none" />
<polyline points="323.5,478.0,331.5,477.0" stroke="black" stroke-width="2" fill="none" />
<polyline points="330.0,476.5,322.0,484.0,313.5,491.5,305.5,498.5" stroke="black" stroke-width="2" fill="none" />
<polyline points="305.5,497.5,313.5,497.0,322.5,496.5" stroke="black" stroke-width="2" fill="none" />
<polyline points="314.5,491.0,322.5,490.5,330.5,489.5" stroke="black" stroke-width="2" fill="none" />
<polyline points="330.5,485.0,322.5,485.5,314.5,486.5" stroke="black" stroke-width="2" fill="none" />
<polyline points="307.0,493.5,315.0,493.0,323.5,492.0,331.5,492.0" stroke="black" stroke-width="2" fill="none" />
<polyline points="317.0,502.0,309.5,502.5" stroke="black" stroke-width="2" fill="none" />
<polyline points="307.0,502.0,315.0,501.5,323.0,498.5" stroke="black" stroke-width="2" fill="none" />
<polyline points="315.0,505.0,307.0,505.0" stroke="black" stroke-width="2" fill="none" />
<polyline points="325.0,498.0,330.0,490.0,330.0,482.0,325.0,473.5" stroke="black" stroke-width="2" fill="none" />
<polyline points="322.5,471.5,319.5,479.5,314.0,488.0,307.0,496.0,305.5,499.5,313.5,490.0,321.5,476.0,330.0,481.0" stroke="black" stroke-width="2" fill="none" />
<polyline points="362.0,441.5,370.5,438.5" stroke="black" stroke-width="2" fill="none" />
<polyline points="381.0,424.0,389.0,423.5,396.5,422.5" stroke="black" stroke-width="2" fill="none" />
<polyline points="386.5,414.0,378.5,410.5" stroke="black" stroke-width="2" fill="none" />
<polyline points="424.5,405.5,433.0,405.0,441.0,404.5" stroke="black" stroke-width="2" fill="none" />
<polyline points="434.5,394.0,443.0,394.0,451.5,393.0,459.0,392.5" stroke="black" stroke-width="2" fill="none" />
<polyline points="468.5,381.0,460.5,381.0,452.5,381.5,444.5,382.0" stroke="black" stroke-width="2" fill="none" />
<polyline points="435.0,390.0,443.0,389.5,451.0,389.0,459.5,389.0" stroke="black" stroke-width="2" fill="none" />
<polyline points="347.5,258.5,355.5,250.5,364.0,242.5" stroke="black" stroke-width="2" fill="none" />
<polyline points="364.5,237.0,356.5,244.5" stroke="black" stroke-width="2" fill="none" />
<polyline points="356.5,243.0,364.0,242.5" stroke="black" stroke-width="2" fill="none" />
<polyline points="362.5,251.0,354.5,251.5" stroke="black" stroke-width="2" fill="none" />
<polyline points="355.5,246.5,364.0,246.5" stroke="black" stroke-width="2" fill="none" />
<polyline points="356.0,235.5,348.0,243.5" stroke="black" stroke-width="2" fill="none" />
<polyline points="347.5,237.0,355.5,236.5,363.5,236.0" stroke="black" stroke-width="2" fill="none" />
<polyline points="356.5,228.0,348.0,235.5" stroke="black" stroke-width="2" fill="none" />
<polyline points="345.0,232.5,353.0,232.0" stroke="black" stroke-width="2" fill="none" />
<polyline points="352.5,225.5,360.5,233.5,364.0,242.0,362.5,250.5" stroke="black" stroke-width="2" fill="none" />
<polyline points="357.5,254.5,349.0,255.0" stroke="black" stroke-width="2" fill="none" />
<polyline points="349.0,252.5,357.0,252.0,365.0,252.0" stroke="black" stroke-width="2" fill="none" />
<polyline points="362.0,252.5,354.0,258.0,346.0,257.0" stroke="black" stroke-width="2" fill="none" />
<polyline points="344.5,230.0,353.0,230.0,362.0,229.5" stroke="black" stroke-width="2" fill="none" />
<polyline points="347.5,238.0,339.5,228.0" stroke="black" stroke-width="2" fill="none" />
<polyline points="337.5,228.0,345.0,225.0,352.5,226.5,360.5,233.5" stroke="black" stroke-width="2" fill="none" />
<polyline points="338.0,226.0,343.0,234.0,351.0,242.0,349.0,250.0,345.5,254.5" stroke="black" stroke-width="2" fill="none" />
<polyline points="347.5,178.0,355.5,170.5,363.0,163.0" stroke="black" stroke-width="2" fill="none" />
<polyline points="370.5,164.5,362.5,172.0" stroke="black" stroke-width="2" fill="none" />
<polyline points="363.0,154.5,355.0,162.0,347.5,169.0,339.5,176.5" stroke="black" stroke-width="2" fill="none" />
<polyline points="333.0,176.0,340.5,175.5,348.5,175.5,356.5,175.0" stroke="black" stroke-width="2" fill="none" />
<polyline points="355.0,156.0,347.5,163.5,339.5,171.0,331.5,179.0" stroke="black" stroke-width="2" fill="none" />
<polyline points="332.5,174.0,340.5,173.5,348.5,172.5,356.5,171.5" stroke="black" stroke-width="2" fill="none" />
<polyline points="353.5,148.5,345.5,155.5,337.0,163.0,329.5,170.5" stroke="black" stroke-width="2" fill="none" />
<polyline points="324.5,169.5,333.0,162.0,341.0,154.5,349.0,147.0" stroke="black" stroke-width="2" fill="none" />
<polyline points="348.0,144.0,340.0,144.0,331.5,144.5" stroke="black" stroke-width="2" fill="none" />
<polyline points="331.5,146.0,340.0,139.0,348.0,131.5" stroke="black" stroke-width="2" fill="none" />
<polyline points="347.5,140.0,339.5,147.5,331.0,155.0" stroke="black" stroke-width="2" fill="none" />
<polyline points="334.0,154.5,342.0,154.5,350.0,154.0,357.5,153.5" stroke="black" stroke-width="2" fill="none" />
<polyline points="357.0,160.5,349.5,161.0,341.5,161.5,333.5,161.5" stroke="black" stroke-width="2" fill="none" />
<polyline points="332.5,158.5,340.5,158.0,348.5,157.5,356.0,156.5,364.5,156.0" stroke="black" stroke-width="2" fill="none" />
<polyline points="356.5,148.0,348.0,149.0,339.5,150.0,332.0,151.0" stroke="black" stroke-width="2" fill="none" />
<polyline points="325.0,145.0,332.5,137.0,340.5,129.0,348.0,121.5" stroke="black" stroke-width="2" fill="none" />
<polyline points="355.5,115.5,363.5,108.5" stroke="black" stroke-width="2" fill="none" />
<polyline points="370.0,109.0,362.0,116.5" stroke="black" stroke-width="2" fill="none" />
<polyline points="356.5,115.0,364.5,114.5,372.0,113.5,380.0,113.0,388.5,112.5,396.0,111.5" stroke="black" stroke-width="2" fill="none" />
<polyline points="397.0,106.0,405.0,105.0,412.5,105.0,420.5,104.5" stroke="black" stroke-width="2" fill="none" />
<polyline points="418.0,90.5,425.5,90.0,434.0,90.0,442.0,89.5" stroke="black" stroke-width="2" fill="none" />
<polyline points="436.5,89.5,444.0,82.5,451.5,75.0,459.5,67.5,467.0,60.0" stroke="black" stroke-width="2" fill="none" />
<polyline points="474.0,61.5,475.0,69.5,459.5,77.5,444.0,85.0,432.0,93.0,416.5,101.0" stroke="black" stroke-width="2" fill="none" />
<polyline points="411.5,92.5,403.5,100.0,395.0,107.5,386.5,115.0" stroke="black" stroke-width="2" fill="none" />
<polyline points="380.5,114.5,388.0,107.5" stroke="black" stroke-width="2" fill="none" />
<polyline points="379.5,106.5,371.5,114.0" stroke="black" stroke-width="2" fill="none" />
<polyline points="356.5,110.0,364.5,110.0,371.5,109.5,379.5,109.0,387.5,108.5,395.5,107.5" stroke="black" stroke-width="2" fill="none" />
<polyline points="396.0,102.5,404.0,102.0,411.5,101.0,419.5,100.0" stroke="black" stroke-width="2" fill="none" />
<polyline points="419.5,87.5,427.5,86.5,436.0,85.5,444.5,85.0" stroke="black" stroke-width="2" fill="none" />
<polyline points="443.0,74.0,451.0,73.5,459.0,73.5,467.0,73.5" stroke="black" stroke-width="2" fill="none" />
<polyline points="454.0,57.0,446.0,64.5" stroke="black" stroke-width="2" fill="none" />
<polyline points="445.0,59.0,436.5,66.5" stroke="black" stroke-width="2" fill="none" />
<polyline points="428.5,65.5,437.0,58.0,445.0,51.0" stroke="black" stroke-width="2" fill="none" />
<polyline points="436.0,52.0,427.5,59.5,419.5,67.0" stroke="black" stroke-width="2" fill="none" />
<polyline points="412.0,67.0,420.0,59.5,428.5,52.0" stroke="black" stroke-width="2" fill="none" />
<polyline points="419.0,53.5,411.0,61.0,403.0,68.5" stroke="black" stroke-width="2" fill="none" />
<polyline points="394.5,68.0,403.0,60.5,410.5,53.0" stroke="black" stroke-width="2" fill="none" />
<polyline points="404.5,52.5,396.5,60.0" stroke="black" stroke-width="2" fill="none" />
<polyline points="394.5,64.5,402.5,63.5,410.5,63.0,419.0,62.5,427.0,62.5,435.5,62.0,443.5,62.0,451.5,62.0,459.0,61.5,467.0,61.0,475.0,61.0" stroke="black" stroke-width="2" fill="none" />
<polyline points="467.5,69.5,459.5,70.5,451.5,71.5,443.5,72.0" stroke="black" stroke-width="2" fill="none" />
<polyline points="434.5,76.5,426.0,83.5,418.0,90.5,410.0,97.5,402.5,105.5" stroke="black" stroke-width="2" fill="none" />
<polyline points="401.5,91.5,409.5,91.5,418.5,91.0,426.5,90.5,434.0,90.0" stroke="black" stroke-width="2" fill="none" />
<polyline points="429.0,80.5,436.5,80.0,443.5,80.0,451.5,79.5" stroke="black" stroke-width="2" fill="none" />
<polyline points="459.5,77.0,451.0,77.0,442.5,77.5,434.5,77.5,426.5,78.0" stroke="black" stroke-width="2" fill="none" />
<polyline points="435.0,51.0,427.0,52.0,418.5,53.0,410.5,54.0,402.5,54.5,394.0,55.0,386.5,55.5,379.0,55.5,371.0,56.0,363.0,56.5,355.5,57.0" stroke="black" stroke-width="2" fill="none" />
<polyline points="362.5,59.5,371.0,52.0" stroke="black" stroke-width="2" fill="none" />
<polyline points="374.0,48.5,382.0,48.5" stroke="black" stroke-width="2" fill="none" />
<polyline points="379.5,51.5,371.5,59.5" stroke="black" stroke-width="2" fill="none" />
<polyline points="379.0,58.5,386.5,51.0" stroke="black" stroke-width="2" fill="none" />
<polyline points="386.0,57.0,394.0,50.0" stroke="black" stroke-width="2" fill="none" />
<polyline points="387.0,60.0,395.5,59.5,404.0,59.5,412.0,59.5,420.0,59.0,428.0,58.5,436.0,58.0,444.5,57.0,453.0,56.5,460.5,56.0,468.0,55.5,476.5,55.0" stroke="black" stroke-width="2" fill="none" />
<polyline points="451.5,110.0,443.5,110.5" stroke="black" stroke-width="2" fill="none" />
<polyline points="435.5,106.5,441.5,110.5,454.0,118.5,463.0,126.5,470.5,134.5,477.0,142.5,482.0,151.0,487.0,158.5,489.5,166.5,493.0,173.0,495.0,181.0,497.0,187.0,498.0,195.0,499.5,203.0,501.0,211.0,501.5,219.0,500.5,227.5,501.5,235.5,502.0,243.5,501.0,251.5,501.0,259.5,499.0,267.5,497.0,275.5,495.0,283.5,494.0,291.0,489.5,298.5,486.5,307.0,484.0,315.0,480.0,322.5,476.0,330.5,472.0,339.0,465.5,347.0,460.5,355.0,455.5,363.5,449.5,371.0,445.0,379.0,440.0,387.0,433.0,395.0,428.5,402.5,423.5,410.0,418.5,418.0,413.5,426.0,408.5,434.5,402.5,443.0,397.0,451.0,390.5,459.0,384.0,466.5,379.5,474.0,373.0,482.0,366.0,489.5,360.0,497.5,352.0,505.5,344.0,514.0,336.0,522.5,325.5,531.0,314.0,540.0,300.5,548.0" stroke="black" stroke-width="2" fill="none" />
<polyline points="292.0,549.0,284.0,557.0,275.5,564.5,267.5,571.5" stroke="black" stroke-width="2" fill="none" />
<polyline points="260.5,569.0,268.5,561.0,276.0,554.0" stroke="black" stroke-width="2" fill="none" />
<polyline points="282.5,553.0,291.0,552.5,299.0,553.0,307.5,552.5,316.0,552.5,324.0,552.0,332.0,551.5" stroke="black" stroke-width="2" fill="none" />
<polyline points="332.0,547.5,323.5,548.0,315.5,548.5,307.0,548.5,299.0,549.0,290.5,549.5,283.0,550.5" stroke="black" stroke-width="2" fill="none" />
<polyline points="268.5,553.5,261.0,561.5,253.5,569.0" stroke="black" stroke-width="2" fill="none" />
<polyline points="244.0,569.0,252.5,561.0,260.5,553.5" stroke="black" stroke-width="2" fill="none" />
<polyline points="252.0,555.0,244.0,562.5,235.5,570.5" stroke="black" stroke-width="2" fill="none" />
<polyline points="229.5,569.5,238.0,561.0,246.0,553.5" stroke="black" stroke-width="2" fill="none" />
<polyline points="243.5,557.5,251.5,557.5,264.5,557.5" stroke="black" stroke-width="2" fill="none" />
<polyline points="235.0,555.5,227.0,563.0,219.0,570.5" stroke="black" stroke-width="2" fill="none" />
<polyline points="211.5,571.0,219.5,563.5,227.0,556.0,234.5,548.5" stroke="black" stroke-width="2" fill="none" />
<polyline points="226.0,547.0,218.0,554.0,210.0,561.0" stroke="black" stroke-width="2" fill="none" />
<polyline points="212.5,564.0,220.5,564.0,228.5,563.5,236.5,563.5,244.0,563.5,251.5,563.5,259.0,563.0,267.5,562.5,275.0,562.0,283.0,561.5,291.0,561.5,298.5,560.5,307.0,560.0" stroke="black" stroke-width="2" fill="none" />
<polyline points="220.5,546.0,212.0,553.5,204.0,561.0" stroke="black" stroke-width="2" fill="none" />
<polyline points="203.5,559.5,211.5,559.0,220.0,559.5,228.0,559.5,235.5,559.0,243.0,558.5,251.5,558.0,259.5,557.5,267.5,557.0,275.5,556.5,283.0,555.5,291.0,555.5,299.0,555.0,307.5,554.5,316.5,554.5" stroke="black" stroke-width="2" fill="none" />
<polyline points="212.5,538.5,205.0,546.0,196.0,553.5" stroke="black" stroke-width="2" fill="none" />
<polyline points="195.0,558.5,203.0,558.0,211.5,558.0,219.5,557.0,227.5,555.5,235.5,554.5,243.5,554.5,251.5,554.5,260.0,554.5,268.0,554.5,275.5,553.5,283.5,553.0,291.5,552.0,300.0,551.0,308.5,550.5,317.0,550.0,325.0,549.0" stroke="black" stroke-width="2" fill="none" />
<polyline points="210.5,545.0,203.0,553.0" stroke="black" stroke-width="2" fill="none" />
<polyline points="204.0,541.0,195.5,548.5,187.5,556.0" stroke="black" stroke-width="2" fill="none" />
<polyline points="189.0,554.5,197.0,554.5,205.0,554.0,213.0,553.5,220.5,553.0,227.5,552.5,235.0,551.5" stroke="black" stroke-width="2" fill="none" />
<polyline points="211.0,569.0,219.5,568.5,228.0,568.0,236.0,567.5,244.0,567.0,252.0,567.0,260.0,566.5,268.0,566.0,275.5,565.5,283.0,564.5,290.5,564.0,299.0,563.5,307.0,564.0" stroke="black" stroke-width="2" fill="none" />
<polyline points="201.5,533.5,194.0,541.0,186.5,548.0" stroke="black" stroke-width="2" fill="none" />
<polyline points="187.0,550.5,195.0,550.0,203.0,549.5,211.0,548.5,219.5,548.0,227.5,547.0,235.0,546.5" stroke="black" stroke-width="2" fill="none" />
<polyline points="195.5,530.0,187.5,537.5,179.5,545.0" stroke="black" stroke-width="2" fill="none" />
<polyline points="172.0,547.0,180.0,539.5,188.0,532.0" stroke="black" stroke-width="2" fill="none" />
<polyline points="186.0,523.0,178.5,530.5,170.5,537.5" stroke="black" stroke-width="2" fill="none" />
<polyline points="171.0,541.5,179.0,540.5,187.0,540.0,195.0,539.5,203.0,539.0,211.0,538.5" stroke="black" stroke-width="2" fill="none" />
<polyline points="178.0,522.5,170.5,530.5,162.5,538.5" stroke="black" stroke-width="2" fill="none" />
<polyline points="164.0,538.0,171.5,537.5,179.5,536.5,186.5,535.5,194.5,535.5" stroke="black" stroke-width="2" fill="none" />
<polyline points="210.5,542.5,202.5,543.0,194.5,543.0,186.5,543.5,178.5,544.0,170.5,544.5" stroke="black" stroke-width="2" fill="none" />
<polyline points="164.0,533.0,172.0,532.5,179.5,532.0,187.5,531.0,194.5,530.0,202.5,529.5" stroke="black" stroke-width="2" fill="none" />
<polyline points="177.5,515.5,169.5,523.5,162.0,531.0" stroke="black" stroke-width="2" fill="none" />
<polyline points="155.0,529.5,163.0,529.0,171.0,528.5,179.0,528.0,187.5,527.5" stroke="black" stroke-width="2" fill="none" />
<polyline points="171.0,517.0,162.5,524.5,154.5,532.0" stroke="black" stroke-width="2" fill="none" />
<polyline points="155.5,526.0,163.5,525.5,171.0,524.5,178.5,524.0,186.0,523.0" stroke="black" stroke-width="2" fill="none" />
<polyline points="171.5,509.0,164.0,516.5,156.0,524.0" stroke="black" stroke-width="2" fill="none" />
<polyline points="149.5,522.0,157.5,514.5,165.0,507.0" stroke="black" stroke-width="2" fill="none" />
<polyline points="165.0,497.5,157.0,504.5,148.5,512.5" stroke="black" stroke-width="2" fill="none" />
<polyline points="147.5,516.5,155.5,516.5,163.5,515.5,171.0,515.0,178.5,514.0" stroke="black" stroke-width="2" fill="none" />
<polyline points="155.5,501.0,147.5,508.0,139.5,515.0" stroke="black" stroke-width="2" fill="none" />
<polyline points="140.0,513.5,148.5,512.5,156.5,512.0,164.0,511.5,171.5,511.5" stroke="black" stroke-width="2" fill="none" />
<polyline points="155.0,491.0,146.5,498.5,138.5,506.5" stroke="black" stroke-width="2" fill="none" />
<polyline points="139.5,510.5,147.5,510.0,155.5,510.0,163.5,509.5,171.5,509.5" stroke="black" stroke-width="2" fill="none" />
<polyline points="179.0,518.5,171.5,520.0,164.0,521.0,155.5,522.0,147.0,522.5" stroke="black" stroke-width="2" fill="none" />
<polyline points="132.5,507.5,140.5,506.5,148.0,506.0,156.0,505.0,164.5,504.0" stroke="black" stroke-width="2" fill="none" />
<polyline points="153.0,483.0,145.5,490.5,138.0,499.0,130.5,506.5" stroke="black" stroke-width="2" fill="none" />
<polyline points="132.5,502.5,140.5,501.5,148.0,500.5,155.5,499.5,163.5,499.0" stroke="black" stroke-width="2" fill="none" />
<polyline points="147.0,484.5,139.0,491.5,131.0,499.0" stroke="black" stroke-width="2" fill="none" />
<polyline points="123.0,497.5,131.0,496.5,139.0,495.5,147.0,495.0,154.5,495.5" stroke="black" stroke-width="2" fill="none" />
<polyline points="147.0,475.0,138.5,483.0,130.5,490.5,122.0,498.0" stroke="black" stroke-width="2" fill="none" />
<polyline points="122.0,493.0,130.0,493.0,138.0,492.5,146.5,492.0,155.5,491.5,164.0,491.0" stroke="black" stroke-width="2" fill="none" />
<polyline points="141.0,475.0,133.0,482.5,125.0,489.5" stroke="black" stroke-width="2" fill="none" />
<polyline points="122.0,488.5,130.0,488.5,138.5,488.5,147.0,488.5,155.5,488.0" stroke="black" stroke-width="2" fill="none" />
<polyline points="139.0,467.5,130.5,475.0,122.5,482.5" stroke="black" stroke-width="2" fill="none" />
<polyline points="123.5,484.5,132.0,484.5,140.0,484.0,148.5,484.0,156.5,484.0" stroke="black" stroke-width="2" fill="none" />
<polyline points="131.0,467.5,123.0,475.0,115.0,482.0" stroke="black" stroke-width="2" fill="none" />
<polyline points="115.0,484.0,123.0,483.5,131.5,482.5,139.5,481.5,147.5,480.5" stroke="black" stroke-width="2" fill="none" />
<polyline points="131.0,458.0,122.5,465.5,114.0,473.5" stroke="black" stroke-width="2" fill="none" />
<polyline points="114.5,478.5,122.5,478.0,130.0,477.0,138.0,476.5,146.0,476.5" stroke="black" stroke-width="2" fill="none" />
<polyline points="124.5,460.5,116.5,468.5,109.0,476.0" stroke="black" stroke-width="2" fill="none" />
<polyline points="108.5,473.0,116.5,472.5,124.5,472.0,132.0,471.5,139.5,471.0" stroke="black" stroke-width="2" fill="none" />
<polyline points="123.5,452.5,115.5,460.0,107.5,467.5" stroke="black" stroke-width="2" fill="none" />
<polyline points="108.0,468.5,115.5,468.0,123.0,467.0,131.0,466.5,139.0,466.5" stroke="black" stroke-width="2" fill="none" />
<polyline points="123.0,443.0,115.0,450.5,107.5,458.0,99.5,465.5" stroke="black" stroke-width="2" fill="none" />
<polyline points="100.5,466.0,108.5,465.0,117.0,464.5,125.0,464.0,132.5,463.0" stroke="black" stroke-width="2" fill="none" />
<polyline points="116.5,442.0,108.5,449.5,100.5,456.5" stroke="black" stroke-width="2" fill="none" />
<polyline points="100.5,456.0,108.5,456.0,116.5,456.5,124.0,457.0" stroke="black" stroke-width="2" fill="none" />
<polyline points="117.5,434.5,109.5,442.0,101.0,449.5" stroke="black" stroke-width="2" fill="none" />
<polyline points="93.0,449.0,101.0,448.5,108.5,448.5,116.0,448.0,124.0,447.5" stroke="black" stroke-width="2" fill="none" />
<polyline points="116.5,427.0,109.0,434.5,100.5,441.5,92.0,449.5" stroke="black" stroke-width="2" fill="none" />
<polyline points="92.0,453.5,100.5,453.5,108.5,452.5,116.5,452.0,124.0,451.5,132.0,451.0" stroke="black" stroke-width="2" fill="none" />
<polyline points="107.5,429.5,99.5,436.5,91.5,443.5" stroke="black" stroke-width="2" fill="none" />
<polyline points="92.0,445.0,100.0,444.0,108.0,444.0,116.0,443.5,124.0,442.5" stroke="black" stroke-width="2" fill="none" />
<polyline points="107.0,419.0,99.0,426.5,91.5,434.5,83.5,442.5" stroke="black" stroke-width="2" fill="none" />
<polyline points="84.0,440.0,92.0,439.5,100.5,439.0,109.0,439.0,117.0,439.5" stroke="black" stroke-width="2" fill="none" />
<polyline points="100.5,420.5,92.5,428.0,84.0,435.5" stroke="black" stroke-width="2" fill="none" />
<polyline points="84.0,436.0,91.5,435.5,100.0,435.5,108.5,435.5,116.5,436.0" stroke="black" stroke-width="2" fill="none" />
<polyline points="100.5,412.0,93.0,420.0,84.5,427.5,76.5,435.0" stroke="black" stroke-width="2" fill="none" />
<polyline points="74.5,429.5,83.0,429.0,91.5,428.5,100.0,428.0,108.0,426.5,116.5,425.5" stroke="black" stroke-width="2" fill="none" />
<polyline points="92.5,411.0,83.5,419.0,75.0,426.5" stroke="black" stroke-width="2" fill="none" />
<polyline points="77.0,426.0,85.0,425.5,93.5,425.0,101.5,424.5" stroke="black" stroke-width="2" fill="none" />
<polyline points="106.5,432.5,98.0,432.5,90.0,432.5,82.0,432.0" stroke="black" stroke-width="2" fill="none" />
<polyline points="77.0,420.5,84.5,420.0,92.5,420.0,100.5,420.0,107.5,420.5" stroke="black" stroke-width="2" fill="none" />
<polyline points="91.0,403.5,83.0,410.5,75.5,418.0" stroke="black" stroke-width="2" fill="none" />
<polyline points="69.5,418.0,77.5,410.0,85.5,402.5" stroke="black" stroke-width="2" fill="none" />
<polyline points="85.5,394.5,77.5,402.0,69.5,409.5" stroke="black" stroke-width="2" fill="none" />
<polyline points="68.5,409.0,76.5,409.0,84.0,408.5,92.0,408.0" stroke="black" stroke-width="2" fill="none" />
<polyline points="76.5,395.5,68.5,403.0" stroke="black" stroke-width="2" fill="none" />
<polyline points="69.0,405.0,76.5,404.5,84.5,404.5,92.5,404.0" stroke="black" stroke-width="2" fill="none" />
<polyline points="99.5,415.5,91.5,416.0,83.5,416.5,75.0,417.0,67.0,418.0" stroke="black" stroke-width="2" fill="none" />
<polyline points="69.5,414.5,77.0,414.0,85.0,413.0,93.0,412.0,101.0,411.0" stroke="black" stroke-width="2" fill="none" />
<polyline points="74.0,386.5,66.5,394.0,59.0,402.0" stroke="black" stroke-width="2" fill="none" />
<polyline points="61.5,401.5,69.5,401.0,77.5,400.0,85.5,399.0" stroke="black" stroke-width="2" fill="none" />
<polyline points="76.0,378.5,68.0,386.0,60.5,394.5" stroke="black" stroke-width="2" fill="none" />
<polyline points="61.5,393.5,69.5,393.0,76.5,392.5" stroke="black" stroke-width="2" fill="none" />
<polyline points="84.0,396.0,76.5,396.5,69.0,396.5,61.5,396.5" stroke="black" stroke-width="2" fill="none" />
<polyline points="61.0,386.0,69.5,378.0" stroke="black" stroke-width="2" fill="none" />
<polyline points="69.5,371.5,61.0,378.5,53.0,385.5" stroke="black" stroke-width="2" fill="none" />
<polyline points="50.0,386.5,58.5,385.5,67.0,385.5,75.5,385.0" stroke="black" stroke-width="2" fill="none" />
<polyline points="58.5,371.0,51.0,378.5" stroke="black" stroke-width="2" fill="none" />
<polyline points="51.0,381.0,59.0,381.0,67.5,380.5,75.5,380.0" stroke="black" stroke-width="2" fill="none" />
<polyline points="57.5,363.0,49.5,370.5,42.5,378.0" stroke="black" stroke-width="2" fill="none" />
<polyline points="41.0,378.0,49.5,377.5,58.0,377.0,66.5,376.5" stroke="black" stroke-width="2" fill="none" />
<polyline points="83.5,386.5,75.0,388.0,67.0,389.0,59.0,389.5,50.5,390.0" stroke="black" stroke-width="2" fill="none" />
<polyline points="42.5,375.0,51.0,374.5,59.5,374.0,68.0,373.0" stroke="black" stroke-width="2" fill="none" />
<polyline points="59.5,355.0,52.0,363.0,43.5,370.5" stroke="black" stroke-width="2" fill="none" />
<polyline points="44.5,369.5,52.5,369.0,60.0,368.0" stroke="black" stroke-width="2" fill="none" />
<polyline points="52.0,354.0,44.0,362.0,36.0,369.5" stroke="black" stroke-width="2" fill="none" />
<polyline points="33.5,365.5,41.5,365.0,49.5,364.0,57.5,363.0" stroke="black" stroke-width="2" fill="none" />
<polyline points="50.0,349.0,42.0,356.0,34.5,363.0" stroke="black" stroke-width="2" fill="none" />
<polyline points="34.5,360.0,42.5,360.0,50.0,359.5,58.0,358.5" stroke="black" stroke-width="2" fill="none" />
<polyline points="42.5,347.5,35.0,354.5" stroke="black" stroke-width="2" fill="none" />
<polyline points="34.0,357.0,42.0,356.5,50.5,356.0,58.5,355.5" stroke="black" stroke-width="2" fill="none" />
<polyline points="43.0,338.5,35.0,346.0,27.0,353.5" stroke="black" stroke-width="2" fill="none" />
<polyline points="29.0,352.5,37.0,352.0,45.0,352.0,53.5,352.0" stroke="black" stroke-width="2" fill="none" />
<polyline points="41.5,331.5,33.5,339.5,26.0,347.0" stroke="black" stroke-width="2" fill="none" />
<polyline points="27.0,349.0,35.0,348.5,43.5,348.0,51.5,347.5" stroke="black" stroke-width="2" fill="none" />
<polyline points="35.5,331.0,27.0,339.0" stroke="black" stroke-width="2" fill="none" />
<polyline points="27.0,339.0,35.0,339.0,43.0,338.5" stroke="black" stroke-width="2" fill="none" />
<polyline points="42.0,342.5,34.0,343.5,26.0,344.0" stroke="black" stroke-width="2" fill="none" />
<polyline points="20.5,338.5,29.0,353.5,37.5,368.5,45.5,380.5,53.0,393.5,61.0,406.5,69.5,419.0,77.5,430.0,85.5,444.5,94.0,456.5,102.5,468.0,110.0,478.5,118.0,488.5,126.0,497.0,134.0,507.0,142.0,515.5,150.0,524.5,158.0,533.0,166.0,539.0,174.0,545.0,181.5,551.5,189.5,557.0,197.5,562.5,205.5,565.5,213.0,570.0" stroke="black" stroke-width="2" fill="none" />
<polyline points="251.0,434.5,259.0,427.0" stroke="black" stroke-width="2" fill="none" />
<polyline points="259.5,421.5,251.0,429.5" stroke="black" stroke-width="2" fill="none" />
<polyline points="251.5,429.0,259.0,428.5" stroke="black" stroke-width="2" fill="none" />
<polyline points="257.5,424.0,249.5,424.5" stroke="black" stroke-width="2" fill="none" />
<polyline points="251.5,421.5,259.5,421.0" stroke="black" stroke-width="2" fill="none" />
<polyline points="259.0,418.5,251.0,419.0" stroke="black" stroke-width="2" fill="none" />
<polyline points="251.0,419.0,259.5,411.5" stroke="black" stroke-width="2" fill="none" />
<polyline points="260.5,409.5,252.5,409.5" stroke="black" stroke-width="2" fill="none" />
<polyline points="250.0,411.0,258.0,404.0" stroke="black" stroke-width="2" fill="none" />
<polyline points="259.5,403.5,251.5,403.5" stroke="black" stroke-width="2" fill="none" />
<polyline points="251.0,404.0,257.0,412.0,258.0,419.5,257.0,427.5" stroke="black" stroke-width="2" fill="none" />
<polyline points="254.0,432.0,246.0,427.0" stroke="black" stroke-width="2" fill="none" />
<polyline points="243.5,414.0,251.5,405.0" stroke="black" stroke-width="2" fill="none" />
<polyline points="249.0,404.0,246.0,412.0,244.0,420.0,246.5,428.5" stroke="black" stroke-width="2" fill="none" />
<polyline points="243.5,414.0,251.5,414.0,259.5,414.0" stroke="black" stroke-width="2" fill="none" />
<polyline points="131.0,459.5,123.0,460.0,116.0,461.0,108.5,461.5,101.0,462.5" stroke="black" stroke-width="2" fill="none" />
<polyline points="36.5,335.5,28.0,336.0" stroke="black" stroke-width="2" fill="none" />
<polyline points="28.5,330.0,36.5,322.0" stroke="black" stroke-width="2" fill="none" />
<polyline points="35.5,323.5,27.5,324.5,19.5,325.5" stroke="black" stroke-width="2" fill="none" />
<polyline points="20.0,329.0,29.0,321.5,37.0,314.5" stroke="black" stroke-width="2" fill="none" />
<polyline points="27.5,315.5,19.5,322.5" stroke="black" stroke-width="2" fill="none" />
<polyline points="21.0,321.0,29.0,320.5,37.0,320.5" stroke="black" stroke-width="2" fill="none" />
<polyline points="35.5,316.0,28.0,316.0,20.5,316.5" stroke="black" stroke-width="2" fill="none" />
<polyline points="19.5,315.0,27.5,307.5" stroke="black" stroke-width="2" fill="none" />
<polyline points="28.0,301.0,19.5,308.5,11.0,316.5" stroke="black" stroke-width="2" fill="none" />
<polyline points="10.0,309.5,17.5,309.0,26.0,309.0" stroke="black" stroke-width="2" fill="none" />
<polyline points="27.5,311.5,19.0,312.0" stroke="black" stroke-width="2" fill="none" />
<polyline points="11.5,306.0,19.5,305.5,27.5,305.0" stroke="black" stroke-width="2" fill="none" />
<polyline points="26.0,293.5,17.5,301.0,9.5,308.0" stroke="black" stroke-width="2" fill="none" />
<polyline points="12.0,302.0,20.0,301.0,27.5,300.5" stroke="black" stroke-width="2" fill="none" />
<polyline points="19.5,291.5,12.0,299.5" stroke="black" stroke-width="2" fill="none" />
<polyline points="12.5,298.0,21.0,297.5,29.0,296.5" stroke="black" stroke-width="2" fill="none" />
<polyline points="20.5,285.0,12.5,292.0" stroke="black" stroke-width="2" fill="none" />
<polyline points="12.0,291.0,20.0,290.5,27.0,291.0" stroke="black" stroke-width="2" fill="none" />
<polyline points="20.5,288.5,13.0,289.0" stroke="black" stroke-width="2" fill="none" />
<polyline points="11.5,285.5,19.5,278.5" stroke="black" stroke-width="2" fill="none" />
<polyline points="19.5,267.5,12.0,275.5,4.0,282.5" stroke="black" stroke-width="2" fill="none" />
<polyline points="1.5,280.0,9.5,279.5,17.5,279.5" stroke="black" stroke-width="2" fill="none" />
<polyline points="27.0,283.5,18.5,283.5,10.0,284.5,2.0,285.5" stroke="black" stroke-width="2" fill="none" />
<polyline points="2.0,277.0,10.0,276.5,18.5,275.5" stroke="black" stroke-width="2" fill="none" />
<polyline points="3.0,272.0,10.0,264.5,18.0,257.0" stroke="black" stroke-width="2" fill="none" />
<polyline points="19.0,251.0,11.0,259.0,3.0,266.5" stroke="black" stroke-width="2" fill="none" />
<polyline points="3.0,266.0,11.5,265.5,19.5,264.5" stroke="black" stroke-width="2" fill="none" />
<polyline points="18.0,273.5,10.5,274.5,2.5,275.5" stroke="black" stroke-width="2" fill="none" />
<polyline points="1.5,270.0,10.0,269.5,18.5,268.5" stroke="black" stroke-width="2" fill="none" />
<polyline points="20.5,261.0,13.0,261.0,5.5,261.5" stroke="black" stroke-width="2" fill="none" />
<polyline points="5.5,260.0,13.0,259.5,20.5,258.5" stroke="black" stroke-width="2" fill="none" />
<polyline points="19.0,245.5,11.0,253.5,3.5,260.5" stroke="black" stroke-width="2" fill="none" />
<polyline points="5.0,259.5,5.0,267.5,5.0,275.0,6.0,283.0,6.5,291.5,9.5,299.5,10.5,307.5,12.5,315.5,15.0,320.0,16.5,328.0,20.5,336.0,24.5,344.0,29.0,352.0,32.0,360.0,37.5,368.0,42.5,376.0,47.5,384.0,51.5,392.0,56.5,399.5,63.0,407.5,68.0,416.0,73.0,424.0,77.5,432.0,82.5,440.0,87.5,448.0,92.5,456.5,98.5,464.5,104.0,472.5,109.0,480.5,116.0,488.5,122.0,496.5,130.5,504.5,137.5,512.5,144.0,520.5,152.0,529.0,162.0,536.5,170.0,544.5,180.5,552.0,193.0,560.0,204.5,568.0" stroke="black" stroke-width="2" fill="none" />
<polyline points="42.5,332.0,34.0,332.5,25.5,333.5,17.5,333.5" stroke="black" stroke-width="2" fill="none" />
<polyline points="17.0,328.5,25.5,328.0,34.0,327.5" stroke="black" stroke-width="2" fill="none" />
<polyline points="34.5,327.5,42.5,343.0,50.5,356.0,58.5,367.0,66.5,377.0,74.5,389.0,83.0,399.0,91.0,409.5,99.0,419.5,107.0,429.5,114.5,441.0,122.5,452.0,131.0,462.0,139.5,474.0,147.5,484.0,156.0,494.0,163.5,504.0,172.0,514.0,180.0,521.0,188.5,529.0,196.5,535.0,204.0,541.0,212.0,546.0,219.5,549.5,227.5,553.0,235.0,555.5,243.0,556.0,250.5,556.0,261.5,555.5,269.5,555.5,277.5,554.5,285.0,552.5,293.0,549.0,300.5,545.0,308.5,540.0,316.5,535.0,324.5,529.5,333.0,524.0,341.0,516.0,348.5,508.0,356.5,499.5,365.0,491.0,373.5,480.0,381.5,471.0,390.0,458.0,398.0,448.0,406.0,437.5,414.5,425.5,422.5,413.5,431.0,403.0,439.0,388.5,447.0,376.5,455.0,366.5,463.0,355.0,470.5,341.0,479.0,328.0" stroke="black" stroke-width="2" fill="none" />
<polyline points="322.5,163.5,314.5,171.0" stroke="black" stroke-width="2" fill="none" />
<polyline points="314.5,164.0,306.5,171.5" stroke="black" stroke-width="2" fill="none" />
<polyline points="305.5,171.0,314.0,170.5,322.0,169.5,330.5,168.5,338.5,167.5,347.0,166.5,355.5,166.5,363.5,166.5,371.5,166.5" stroke="black" stroke-width="2" fill="none" />
<polyline points="372.0,160.0,364.0,160.5,355.5,161.0,346.5,162.0,339.0,163.0,330.5,164.5,322.5,165.5,314.0,166.0,306.0,167.0" stroke="black" stroke-width="2" fill="none" />
<polyline points="306.0,165.0,314.0,157.0" stroke="black" stroke-width="2" fill="none" />
<polyline points="307.5,156.0,299.5,163.5" stroke="black" stroke-width="2" fill="none" />
<polyline points="298.5,162.0,306.5,161.5,314.5,161.5" stroke="black" stroke-width="2" fill="none" />
<polyline points="314.5,158.5,305.5,159.0,297.0,159.0" stroke="black" stroke-width="2" fill="none" />
<polyline points="291.5,157.0,300.0,149.5" stroke="black" stroke-width="2" fill="none" />
<polyline points="299.5,152.0,291.5,152.5" stroke="black" stroke-width="2" fill="none" />
<polyline points="293.5,150.0,301.5,149.0" stroke="black" stroke-width="2" fill="none" />
<polyline points="283.0,139.0,275.0,146.5" stroke="black" stroke-width="2" fill="none" />
<polyline points="275.0,140.5,283.0,140.5" stroke="black" stroke-width="2" fill="none" />
<polyline points="267.5,130.5,275.0,140.5,282.5,147.5,290.5,155.5,299.0,161.5,307.0,166.5,315.5,170.0,324.0,172.5,332.0,174.5,339.5,175.5,347.5,175.5,355.5,172.5,363.5,170.5" stroke="black" stroke-width="2" fill="none" />
<polyline points="364.0,162.5,356.0,154.5,348.0,140.5" stroke="black" stroke-width="2" fill="none" />
<polyline points="338.0,124.5,330.5,131.5,322.5,139.5" stroke="black" stroke-width="2" fill="none" />
<polyline points="323.5,138.5,331.5,138.0,339.5,137.5,348.0,137.5" stroke="black" stroke-width="2" fill="none" />
<polyline points="348.0,140.5,339.5,141.0,331.0,141.5,323.0,142.0" stroke="black" stroke-width="2" fill="none" />
<polyline points="324.5,134.5,332.5,134.0,340.0,134.0,347.5,134.0" stroke="black" stroke-width="2" fill="none" />
<polyline points="339.0,114.5,331.0,122.5,323.0,131.0" stroke="black" stroke-width="2" fill="none" />
<polyline points="322.0,129.0,330.0,128.5,338.5,128.0" stroke="black" stroke-width="2" fill="none" />
<polyline points="324.0,122.5,332.0,115.0,340.5,108.0" stroke="black" stroke-width="2" fill="none" />
<polyline points="339.0,101.5,331.0,108.5,323.0,115.5" stroke="black" stroke-width="2" fill="none" />
<polyline points="323.5,114.5,323.5,122.0,323.5,130.0,323.0,137.5,323.5,144.5,327.5,152.5,329.5,160.0" stroke="black" stroke-width="2" fill="none" />
<polyline points="322.5,123.5,330.5,123.0,338.0,122.5,345.5,122.0" stroke="black" stroke-width="2" fill="none" />
<polyline points="339.0,120.0,331.0,120.0,323.0,120.0" stroke="black" stroke-width="2" fill="none" />
<polyline points="323.5,118.0,331.5,117.5,339.5,117.5" stroke="black" stroke-width="2" fill="none" />
<polyline points="340.5,113.5,333.0,113.5,325.5,114.0" stroke="black" stroke-width="2" fill="none" />
<polyline points="325.0,108.5,333.0,108.0,340.5,107.5" stroke="black" stroke-width="2" fill="none" />
<polyline points="340.5,103.5,332.5,104.0,324.5,105.0" stroke="black" stroke-width="2" fill="none" />
<polyline points="323.0,108.0,330.5,100.0,338.5,92.5" stroke="black" stroke-width="2" fill="none" />
<polyline points="341.0,91.0,332.5,91.0,324.0,91.5" stroke="black" stroke-width="2" fill="none" />
<polyline points="324.0,91.0,332.0,90.5,339.5,89.5" stroke="black" stroke-width="2" fill="none" />
<polyline points="341.0,86.5,332.5,87.5,324.5,88.5" stroke="black" stroke-width="2" fill="none" />
<polyline points="324.0,91.0,332.5,83.5" stroke="black" stroke-width="2" fill="none" />
<polyline points="339.0,83.5,331.0,91.0,323.0,98.5" stroke="black" stroke-width="2" fill="none" />
<polyline points="324.0,95.5,332.0,95.5,340.0,95.5" stroke="black" stroke-width="2" fill="none" />
<polyline points="340.0,95.5,341.0,99.0,349.0,107.0,362.5,115.0,375.5,117.0" stroke="black" stroke-width="2" fill="none" />
<polyline points="386.0,103.5,401.0,95.5,412.5,87.5,422.5,79.5,436.0,72.0,437.0,72.0,428.5,77.0,420.5,83.5,412.5,88.0,405.0,94.0,397.5,99.0,389.5,103.5,381.0,107.5,373.5,108.5,365.5,108.5,357.5,106.5,349.0,100.0,341.5,97.0" stroke="black" stroke-width="2" fill="none" />
<polyline points="341.5,99.0,333.0,100.0,325.0,101.0" stroke="black" stroke-width="2" fill="none" />
<polyline points="324.0,84.0,332.0,83.5" stroke="black" stroke-width="2" fill="none" />
<polyline points="325.0,82.0,333.0,74.0" stroke="black" stroke-width="2" fill="none" />
<polyline points="333.5,67.5,325.5,75.0" stroke="black" stroke-width="2" fill="none" />
<polyline points="323.5,75.0,331.5,74.5" stroke="black" stroke-width="2" fill="none" />
<polyline points="332.0,79.0,324.5,79.5" stroke="black" stroke-width="2" fill="none" />
<polyline points="331.0,67.5,323.0,68.0,314.5,68.5" stroke="black" stroke-width="2" fill="none" />
<polyline points="315.0,67.5,323.5,60.5" stroke="black" stroke-width="2" fill="none" />
<polyline points="322.5,66.0,314.0,66.5,306.0,67.0" stroke="black" stroke-width="2" fill="none" />
<polyline points="307.5,68.5,315.0,60.5" stroke="black" stroke-width="2" fill="none" />
<polyline points="317.0,57.5,325.5,65.5,330.5,73.0,332.0,81.0,335.5,89.0,335.5,97.0,336.5,105.0,337.0,113.0,340.0,120.0,341.0,128.0,345.0,136.0,349.0,144.0,353.0,151.5,360.0,159.5,365.0,167.5" stroke="black" stroke-width="2" fill="none" />
<polyline points="343.5,101.0,351.0,108.5,359.0,113.5,367.0,115.0,375.0,115.0,383.0,114.5,391.0,112.5,399.0,110.0,407.0,107.0,415.0,103.0,422.5,97.5,430.5,93.0,438.5,87.5,446.5,82.5,454.0,78.0,462.0,74.0,469.5,70.0" stroke="black" stroke-width="2" fill="none" />
<polyline points="362.5,52.5,355.0,60.0" stroke="black" stroke-width="2" fill="none" />
<polyline points="347.0,54.0,354.5,53.5,362.5,53.0,370.0,52.5,378.0,51.5,386.0,50.5,395.0,50.0,403.5,50.0,412.5,49.5,420.5,49.0,429.0,49.0,436.5,48.0,444.5,47.0" stroke="black" stroke-width="2" fill="none" />
<polyline points="440.5,67.5,433.0,68.0,425.0,68.0,422.5,66.0,414.5,65.0,406.0,65.0,401.0,63.0,392.5,62.0,385.0,61.0,376.5,60.0,368.5,60.0,360.0,60.0,351.5,60.0,343.5,60.0" stroke="black" stroke-width="2" fill="none" />
<polyline points="335.5,59.5,343.5,57.5,351.5,57.5,360.0,56.0" stroke="black" stroke-width="2" fill="none" />
<polyline points="330.5,57.5,338.5,55.5,347.0,54.5,355.0,51.5,363.5,50.5,371.5,49.0,380.0,47.0,388.0,45.5,396.0,46.5,404.0,46.5" stroke="black" stroke-width="2" fill="none" />
<polyline points="338.0,4.5,330.0,12.0,321.5,19.5" stroke="black" stroke-width="2" fill="none" />
<polyline points="317.5,19.5,325.5,12.0,333.5,4.0" stroke="black" stroke-width="2" fill="none" />
<polyline points="323.0,2.0,315.0,9.5,307.5,17.5" stroke="black" stroke-width="2" fill="none" />
<polyline points="299.0,19.5,307.0,12.5,315.5,5.0" stroke="black" stroke-width="2" fill="none" />
<polyline points="307.5,2.5,299.5,10.0,292.0,18.0" stroke="black" stroke-width="2" fill="none" />
<polyline points="289.0,12.5,281.0,20.0,274.0,26.5" stroke="black" stroke-width="2" fill="none" />
<polyline points="281.5,25.0,273.5,26.0,265.5,26.5" stroke="black" stroke-width="2" fill="none" />
<polyline points="266.0,22.5,273.5,21.5,282.0,21.0" stroke="black" stroke-width="2" fill="none" />
<polyline points="281.5,20.0,268.5,28.0,261.5,36.0,258.5,44.5" stroke="black" stroke-width="2" fill="none" />
<polyline points="259.5,34.5,267.5,34.0" stroke="black" stroke-width="2" fill="none" />
<polyline points="260.0,33.5,268.0,25.5,276.0,17.5,284.0,10.0" stroke="black" stroke-width="2" fill="none" />
<polyline points="268.0,30.5,260.0,31.0" stroke="black" stroke-width="2" fill="none" />
<polyline points="256.5,31.5,264.5,19.5,272.5,13.0,280.5,10.0,288.5,7.0,297.0,6.5,305.0,5.0,313.0,5.0" stroke="black" stroke-width="2" fill="none" />
<polyline points="305.0,52.0,296.5,53.0" stroke="black" stroke-width="2" fill="none" />
<polyline points="292.5,54.0,300.5,54.0,309.0,55.0,317.0,57.0,325.5,64.0" stroke="black" stroke-width="2" fill="none" />
<polyline points="323.0,62.0,315.0,62.5,306.5,63.0" stroke="black" stroke-width="2" fill="none" />
<polyline points="305.5,60.5,316.5,68.5,320.0,77.0,320.5,85.0,321.5,93.0,321.0,101.0,320.0,109.5,321.0,117.5,320.0,125.5" stroke="black" stroke-width="2" fill="none" />
<polyline points="293.5,148.5,281.5,140.5,275.5,134.5,268.0,127.5,265.0,120.0" stroke="black" stroke-width="2" fill="none" />
<polyline points="263.5,120.0,271.5,130.0,280.0,139.0,288.5,145.5,296.5,151.5,304.5,155.0,312.5,158.0,320.5,160.5,328.5,161.0" stroke="black" stroke-width="2" fill="none" />
<polyline points="307.5,166.5,296.0,158.5,284.5,150.5,277.0,142.5,271.0,134.5,266.0,126.0,263.0,118.0" stroke="black" stroke-width="2" fill="none" />
<polyline points="236.0,123.0,234.0,131.0,229.0,137.5,223.0,145.5,210.0,153.5" stroke="black" stroke-width="2" fill="none" />
<polyline points="213.5,155.0,221.5,147.0,230.0,139.0,237.5,131.5" stroke="black" stroke-width="2" fill="none" />
<polyline points="235.0,137.5,227.5,138.0" stroke="black" stroke-width="2" fill="none" />
<polyline points="226.5,131.5,234.5,131.0" stroke="black" stroke-width="2" fill="none" />
<polyline points="227.0,140.5,218.5,141.0" stroke="black" stroke-width="2" fill="none" />
<polyline points="217.5,145.5,225.0,145.0" stroke="black" stroke-width="2" fill="none" />
<polyline points="213.0,148.5,205.5,155.5" stroke="black" stroke-width="2" fill="none" />
<polyline points="202.5,153.0,211.0,153.0" stroke="black" stroke-width="2" fill="none" />
<polyline points="201.5,148.5,193.5,156.0,185.5,163.5" stroke="black" stroke-width="2" fill="none" />
<polyline points="185.0,156.0,177.5,163.0" stroke="black" stroke-width="2" fill="none" />
<polyline points="170.0,163.0,178.0,155.5" stroke="black" stroke-width="2" fill="none" />
<polyline points="178.5,147.0,170.5,154.5,162.5,162.0" stroke="black" stroke-width="2" fill="none" />
<polyline points="163.5,161.5,171.5,161.0,179.5,160.0,187.0,159.0,195.0,158.0" stroke="black" stroke-width="2" fill="none" />
<polyline points="172.5,148.0,165.0,156.0" stroke="black" stroke-width="2" fill="none" />
<polyline points="157.0,154.0,165.0,146.5" stroke="black" stroke-width="2" fill="none" />
<polyline points="154.0,148.0,146.0,155.5" stroke="black" stroke-width="2" fill="none" />
<polyline points="138.0,154.0,146.5,146.0" stroke="black" stroke-width="2" fill="none" />
<polyline points="137.5,146.5,130.0,154.0" stroke="black" stroke-width="2" fill="none" />
<polyline points="130.5,148.5,122.5,156.0" stroke="black" stroke-width="2" fill="none" />
<polyline points="123.5,153.0,132.0,153.0,140.5,152.5,149.0,152.5,157.5,152.5,165.0,152.0,173.0,152.0" stroke="black" stroke-width="2" fill="none" />
<polyline points="155.0,158.0,163.0,158.0,171.0,157.0,179.0,156.5,186.5,155.5,194.5,154.0,202.5,153.5" stroke="black" stroke-width="2" fill="none" />
<polyline points="218.5,142.5,211.5,143.5,203.5,144.5,196.0,145.0,188.0,145.5,179.5,146.0,171.0,146.0,163.0,146.5,155.0,147.0,147.0,147.5,139.0,148.0,131.0,148.5,123.5,149.5,116.0,150.0" stroke="black" stroke-width="2" fill="none" />
<polyline points="115.5,155.5,123.5,147.5" stroke="black" stroke-width="2" fill="none" />
<polyline points="123.0,141.0,115.0,148.0" stroke="black" stroke-width="2" fill="none" />
<polyline points="108.0,144.0,116.5,136.0,125.0,129.0,133.0,122.0,141.0,114.0,148.5,106.0,156.5,98.5,164.5,91.0,172.5,84.0" stroke="black" stroke-width="2" fill="none" />
<polyline points="175.0,78.0,160.0,86.0,147.0,94.0,136.0,102.0,124.0,110.0,111.0,118.5,96.0,127.0" stroke="black" stroke-width="2" fill="none" />
<polyline points="99.5,125.5,108.0,125.0,116.0,124.0,124.5,123.0,132.5,122.5,140.0,122.0" stroke="black" stroke-width="2" fill="none" />
<polyline points="138.0,121.0,146.0,114.0,154.0,106.0,162.5,97.5,170.5,89.5,178.5,82.0,186.5,74.0" stroke="black" stroke-width="2" fill="none" />
<polyline points="179.5,76.0,187.5,75.5,195.5,75.5" stroke="black" stroke-width="2" fill="none" />
<polyline points="197.0,74.5,205.0,74.0,213.0,73.5,220.5,72.5" stroke="black" stroke-width="2" fill="none" />
<polyline points="219.5,67.0,211.5,74.0" stroke="black" stroke-width="2" fill="none" />
<polyline points="211.5,68.5,203.5,76.0" stroke="black" stroke-width="2" fill="none" />
<polyline points="196.0,78.0,184.0,86.0,174.0,93.5,164.5,102.0,155.0,109.5,147.0,118.0,135.5,126.0,121.5,134.0,111.5,141.0,119.5,136.5,127.0,132.5,135.0,126.5,143.0,120.5,151.0,113.5,159.0,106.5,167.5,99.0,175.5,91.0,183.0,88.0,191.5,81.0,199.5,79.0,207.0,75.0,215.0,74.0,223.0,72.5,231.0,72.0" stroke="black" stroke-width="2" fill="none" />
<polyline points="236.5,68.5,229.5,69.0,221.5,69.5,213.5,69.5,205.0,70.0,197.0,70.0" stroke="black" stroke-width="2" fill="none" />
<polyline points="201.5,68.5,193.5,75.5,185.5,82.5,178.0,90.0" stroke="black" stroke-width="2" fill="none" />
<polyline points="180.0,82.5,188.0,82.0,196.0,81.5" stroke="black" stroke-width="2" fill="none" />
<polyline points="186.5,67.0,179.0,68.0" stroke="black" stroke-width="2" fill="none" />
<polyline points="166.5,73.0,158.5,80.5" stroke="black" stroke-width="2" fill="none" />
<polyline points="162.0,84.5,170.0,84.0,177.5,84.0,185.5,84.0" stroke="black" stroke-width="2" fill="none" />
<polyline points="185.0,86.5,177.5,87.0,170.0,88.0,162.5,88.5" stroke="black" stroke-width="2" fill="none" />
<polyline points="170.5,93.5,162.0,94.0,154.0,94.0" stroke="black" stroke-width="2" fill="none" />
<polyline points="155.0,98.0,162.5,98.0,170.0,97.0" stroke="black" stroke-width="2" fill="none" />
<polyline points="146.0,98.5,138.0,106.0,130.5,113.5,122.5,121.0,114.5,128.5,106.5,136.5,98.0,143.5" stroke="black" stroke-width="2" fill="none" />
<polyline points="89.0,146.5,97.5,139.0,105.5,131.5,113.5,123.5,122.0,116.0,130.0,109.0" stroke="black" stroke-width="2" fill="none" />
<polyline points="124.0,110.0,132.0,109.5,140.0,109.0,148.0,108.5,156.5,107.5" stroke="black" stroke-width="2" fill="none" />
<polyline points="164.5,105.0,156.5,105.5,148.0,105.5,139.5,106.0" stroke="black" stroke-width="2" fill="none" />
<polyline points="140.5,101.5,148.5,101.0,157.0,100.5,165.5,100.0" stroke="black" stroke-width="2" fill="none" />
<polyline points="147.5,81.0,156.0,73.5,164.0,66.5" stroke="black" stroke-width="2" fill="none" />
<polyline points="164.0,70.5,156.0,71.0,148.5,72.0,140.5,72.5,132.0,73.0,123.5,73.5" stroke="black" stroke-width="2" fill="none" />
<polyline points="123.5,76.0,132.0,68.5" stroke="black" stroke-width="2" fill="none" />
<polyline points="137.5,67.0,129.5,74.5" stroke="black" stroke-width="2" fill="none" />
<polyline points="122.0,70.5,129.5,70.5,138.0,70.0,146.5,69.5,154.5,68.0,163.0,67.0,171.0,66.0" stroke="black" stroke-width="2" fill="none" />
<polyline points="165.0,72.0,173.0,72.0,181.0,73.0" stroke="black" stroke-width="2" fill="none" />
<polyline points="153.0,67.0,145.5,74.5,138.0,82.0" stroke="black" stroke-width="2" fill="none" />
<polyline points="140.0,79.5,148.0,79.0,156.5,78.0,164.5,77.5,173.0,77.0" stroke="black" stroke-width="2" fill="none" />
<polyline points="163.5,79.5,155.0,79.0,147.5,79.5" stroke="black" stroke-width="2" fill="none" />
<polyline points="139.0,75.0,147.5,67.5" stroke="black" stroke-width="2" fill="none" />
<polyline points="131.0,58.5,123.5,66.0" stroke="black" stroke-width="2" fill="none" />
<polyline points="117.0,67.0,124.5,59.0" stroke="black" stroke-width="2" fill="none" />
<polyline points="125.0,51.5,116.5,59.0,108.5,67.0" stroke="black" stroke-width="2" fill="none" />
<polyline points="101.5,64.5,109.5,64.5,117.0,63.5,124.5,63.0,132.0,63.0" stroke="black" stroke-width="2" fill="none" />
<polyline points="115.0,52.0,107.5,59.5,100.0,66.5" stroke="black" stroke-width="2" fill="none" />
<polyline points="100.5,62.5,109.0,62.0,117.0,61.5,125.5,61.0,133.0,60.5" stroke="black" stroke-width="2" fill="none" />
<polyline points="132.0,42.5,140.0,35.0,148.0,27.0" stroke="black" stroke-width="2" fill="none" />
<polyline points="153.5,27.5,146.0,35.0" stroke="black" stroke-width="2" fill="none" />
<polyline points="138.0,28.5,130.0,35.5,123.0,43.0" stroke="black" stroke-width="2" fill="none" />
<polyline points="116.5,42.5,124.5,34.5,132.5,27.5" stroke="black" stroke-width="2" fill="none" />
<polyline points="124.0,26.0,116.0,33.5,107.5,41.5,99.5,49.0,91.5,56.0" stroke="black" stroke-width="2" fill="none" />
<polyline points="98.0,58.5,106.0,51.5" stroke="black" stroke-width="2" fill="none" />
<polyline points="107.5,47.5,100.0,48.0,92.0,48.5,83.5,49.5,75.0,50.0" stroke="black" stroke-width="2" fill="none" />
<polyline points="78.0,50.5,86.0,43.0,94.0,36.0" stroke="black" stroke-width="2" fill="none" />
<polyline points="99.5,35.5,91.0,43.5,82.5,50.5" stroke="black" stroke-width="2" fill="none" />
<polyline points="83.5,51.5,92.0,51.0,100.0,51.5,107.5,51.0,115.0,51.0,123.0,51.0" stroke="black" stroke-width="2" fill="none" />
<polyline points="116.0,54.0,108.0,54.5,100.0,55.0,92.0,55.5,84.0,56.0" stroke="black" stroke-width="2" fill="none" />
<polyline points="82.0,58.5,90.0,51.5,98.5,44.5,107.0,36.5" stroke="black" stroke-width="2" fill="none" />
<polyline points="108.0,43.5,99.5,44.0,91.5,45.0,83.5,46.0,75.5,46.5" stroke="black" stroke-width="2" fill="none" />
<polyline points="76.0,45.5,84.5,52.5,92.5,57.0,100.0,61.0,108.0,64.5,116.0,68.5,123.5,71.5,132.0,74.5,140.0,78.5,148.0,79.5,156.0,79.5,164.0,78.5,172.0,76.5,180.0,74.5,188.5,74.0,196.5,70.0,204.5,68.0,212.5,68.5,220.0,68.5,228.0,68.5,236.5,70.5" stroke="black" stroke-width="2" fill="none" />
<polyline points="258.5,62.5,266.5,60.5,274.0,57.0,281.5,55.0,289.5,54.0,297.5,52.0" stroke="black" stroke-width="2" fill="none" />
<polyline points="278.5,58.5,270.0,66.0" stroke="black" stroke-width="2" fill="none" />
<polyline points="267.0,65.0,275.0,64.5" stroke="black" stroke-width="2" fill="none" />
<polyline points="268.0,60.5,275.5,60.0,283.5,60.0" stroke="black" stroke-width="2" fill="none" />
<polyline points="262.5,64.0,270.5,62.0,278.5,60.5,286.5,59.5,294.0,58.5,301.5,59.5,310.0,61.5,318.0,71.0" stroke="black" stroke-width="2" fill="none" />
<polyline points="345.0,99.5,356.0,107.5" stroke="black" stroke-width="2" fill="none" />
<polyline points="235.0,118.0,232.5,126.0,227.5,133.5,218.5,141.0" stroke="black" stroke-width="2" fill="none" />
<polyline points="234.5,195.0,242.5,194.5" stroke="black" stroke-width="2" fill="none" />
<polyline points="243.0,194.5,235.5,202.0" stroke="black" stroke-width="2" fill="none" />
<polyline points="234.5,204.5,242.5,204.0,250.5,203.5,258.0,203.5" stroke="black" stroke-width="2" fill="none" />
<polyline points="260.0,204.5,252.0,212.0,243.5,219.5" stroke="black" stroke-width="2" fill="none" />
<polyline points="249.5,221.0,258.0,220.5" stroke="black" stroke-width="2" fill="none" />
<polyline points="259.0,220.0,251.0,227.5" stroke="black" stroke-width="2" fill="none" />
<polyline points="250.5,225.0,258.5,224.5" stroke="black" stroke-width="2" fill="none" />
<polyline points="253.0,219.5,261.5,211.5" stroke="black" stroke-width="2" fill="none" />
<polyline points="259.5,217.5,251.5,218.5" stroke="black" stroke-width="2" fill="none" />
<polyline points="259.0,212.0,251.5,212.0,243.5,212.5" stroke="black" stroke-width="2" fill="none" />
<polyline points="243.5,210.5,251.5,203.0" stroke="black" stroke-width="2" fill="none" />
<polyline points="246.0,201.5,255.0,209.5,258.0,218.0,255.0,226.0" stroke="black" stroke-width="2" fill="none" />
<polyline points="258.5,207.5,250.5,208.0,242.5,209.0" stroke="black" stroke-width="2" fill="none" />
<polyline points="240.5,210.5,232.5,203.5" stroke="black" stroke-width="2" fill="none" />
<polyline points="232.5,201.0,237.0,208.5,244.0,216.5,247.0,224.0,249.5,227.0" stroke="black" stroke-width="2" fill="none" />
<polyline points="256.5,209.0,248.5,201.0,240.5,199.0,233.0,199.0" stroke="black" stroke-width="2" fill="none" />
<polyline points="156.0,112.5,148.0,113.0,140.0,114.0,131.5,114.5,124.0,115.0" stroke="black" stroke-width="2" fill="none" />
<polyline points="118.0,119.0,126.0,118.0,133.5,117.0,140.5,116.5,147.5,116.0" stroke="black" stroke-width="2" fill="none" />
<polyline points="148.0,119.0,140.5,119.5,132.5,119.5,124.5,120.0,116.5,120.5" stroke="black" stroke-width="2" fill="none" />
<polyline points="107.0,122.5,99.0,130.0,90.5,137.0,82.5,144.5" stroke="black" stroke-width="2" fill="none" />
<polyline points="77.5,144.0,85.5,143.5,93.0,143.0,100.5,142.5,108.0,142.5,116.0,142.5,123.5,142.5" stroke="black" stroke-width="2" fill="none" />
<polyline points="123.5,140.0,115.0,140.0,107.5,140.0,99.5,140.0,91.5,140.0,83.5,140.0,75.5,141.0" stroke="black" stroke-width="2" fill="none" />
<polyline points="76.0,139.0,84.0,131.5" stroke="black" stroke-width="2" fill="none" />
<polyline points="92.5,134.0,85.0,141.5,77.5,148.5" stroke="black" stroke-width="2" fill="none" />
<polyline points="74.0,135.5,82.5,134.5,90.5,134.5,99.0,134.5,107.0,134.5,114.5,135.0,122.5,135.0" stroke="black" stroke-width="2" fill="none" />
<polyline points="125.0,128.5,116.5,129.0,108.5,129.5,100.5,130.0,92.0,130.5,84.0,131.5,75.5,132.0,67.0,132.0,58.5,132.5,50.5,133.0" stroke="black" stroke-width="2" fill="none" />
<polyline points="53.0,135.5,61.0,135.0" stroke="black" stroke-width="2" fill="none" />
<polyline points="61.0,131.5,52.5,139.0,44.0,146.5,35.5,154.0,27.5,161.5" stroke="black" stroke-width="2" fill="none" />
<polyline points="26.5,159.5,34.5,159.0,42.5,158.5" stroke="black" stroke-width="2" fill="none" />
<polyline points="43.0,158.0,34.5,165.5,26.0,172.5,18.0,179.5" stroke="black" stroke-width="2" fill="none" />
<polyline points="19.0,181.5,27.0,180.5" stroke="black" stroke-width="2" fill="none" />
<polyline points="27.0,181.0,18.5,188.5,11.0,195.5" stroke="black" stroke-width="2" fill="none" />
<polyline points="11.5,193.0,19.5,192.5,27.5,192.5" stroke="black" stroke-width="2" fill="none" />
<polyline points="25.0,189.0,17.5,196.5,9.5,203.5" stroke="black" stroke-width="2" fill="none" />
<polyline points="13.0,202.5,21.0,202.5" stroke="black" stroke-width="2" fill="none" />
<polyline points="19.0,203.5,11.5,210.5" stroke="black" stroke-width="2" fill="none" />
<polyline points="11.5,210.0,19.5,210.0" stroke="black" stroke-width="2" fill="none" />
<polyline points="20.0,210.0,12.0,218.0,3.5,226.0" stroke="black" stroke-width="2" fill="none" />
<polyline points="3.5,226.5,11.5,225.5,20.0,225.0" stroke="black" stroke-width="2" fill="none" />
<polyline points="21.0,226.5,13.5,234.0,5.5,241.5" stroke="black" stroke-width="2" fill="none" />
<polyline points="5.0,243.5,13.0,243.5,20.0,242.5" stroke="black" stroke-width="2" fill="none" />
<polyline points="19.5,236.5,11.5,244.0,4.0,251.0" stroke="black" stroke-width="2" fill="none" />
<polyline points="3.5,253.0,11.5,253.0,19.0,253.5" stroke="black" stroke-width="2" fill="none" />
<polyline points="18.0,248.0,10.0,248.5,1.5,249.0" stroke="black" stroke-width="2" fill="none" />
<polyline points="4.5,244.5,12.0,244.5,19.0,244.5" stroke="black" stroke-width="2" fill="none" />
<polyline points="20.0,236.5,12.5,237.5,4.5,238.0" stroke="black" stroke-width="2" fill="none" />
<polyline points="5.0,233.5,12.5,226.0,20.5,219.0" stroke="black" stroke-width="2" fill="none" />
<polyline points="20.0,217.5,12.0,218.0" stroke="black" stroke-width="2" fill="none" />
<polyline points="4.5,221.5,12.0,221.0,20.0,220.5" stroke="black" stroke-width="2" fill="none" />
<polyline points="19.5,207.5,12.0,208.5" stroke="black" stroke-width="2" fill="none" />
<polyline points="19.5,212.0,11.5,212.5,3.0,212.5" stroke="black" stroke-width="2" fill="none" />
<polyline points="4.5,229.0,12.0,228.5,20.0,228.0" stroke="black" stroke-width="2" fill="none" />
<polyline points="18.5,231.0,10.0,231.5,2.0,232.0" stroke="black" stroke-width="2" fill="none" />
<polyline points="13.5,198.5,21.0,198.0" stroke="black" stroke-width="2" fill="none" />
<polyline points="27.5,188.0,19.5,188.5,11.5,189.5" stroke="black" stroke-width="2" fill="none" />
<polyline points="12.0,188.0,20.0,172.0,28.0,159.5,36.0,148.5,44.0,140.5,52.0,133.0,60.5,125.0,68.5,120.0,76.5,115.0,84.5,110.0,92.5,107.0,100.5,103.0,108.5,100.0,116.5,95.0" stroke="black" stroke-width="2" fill="none" />
<polyline points="117.0,99.5,109.5,100.5" stroke="black" stroke-width="2" fill="none" />
<polyline points="109.0,102.5,101.0,105.5,94.0,109.0,87.0,113.0,79.5,118.5,72.0,124.0,64.0,131.0,55.5,137.0,47.0,147.0,39.0,157.5,31.0,168.0" stroke="black" stroke-width="2" fill="none" />
<polyline points="27.5,170.5,36.0,169.5" stroke="black" stroke-width="2" fill="none" />
<polyline points="33.5,166.5,25.0,167.0" stroke="black" stroke-width="2" fill="none" />
<polyline points="26.0,163.5,34.0,163.0" stroke="black" stroke-width="2" fill="none" />
<polyline points="34.5,154.5,42.5,153.5" stroke="black" stroke-width="2" fill="none" />
<polyline points="44.5,148.5,36.5,149.0" stroke="black" stroke-width="2" fill="none" />
<polyline points="44.0,146.0,52.0,145.5" stroke="black" stroke-width="2" fill="none" />
<polyline points="58.5,141.5,50.5,142.0,42.5,142.0" stroke="black" stroke-width="2" fill="none" />
<polyline points="61.5,125.5,69.0,125.0,76.5,125.0" stroke="black" stroke-width="2" fill="none" />
<polyline points="77.0,123.5,69.0,131.5" stroke="black" stroke-width="2" fill="none" />
<polyline points="70.0,131.5,70.0,139.5,74.0,141.0,82.0,143.0,90.0,147.0,98.0,148.0,103.0,150.0,110.5,152.0,118.5,153.0,121.5,155.0,129.5,155.0,137.5,156.0,145.5,157.5,153.5,158.0,156.5,160.0,165.0,161.0,173.0,161.0,181.0,160.5,189.5,160.0,197.5,157.0,205.0,155.0,213.5,152.0,221.5,146.5,229.0,137.5" stroke="black" stroke-width="2" fill="none" />
<polyline points="236.0,36.5,243.5,36.0" stroke="black" stroke-width="2" fill="none" />
<polyline points="236.0,27.5,228.0,35.0" stroke="black" stroke-width="2" fill="none" />
<polyline points="227.0,33.5,235.0,35.5" stroke="black" stroke-width="2" fill="none" />
<polyline points="227.0,26.0,219.0,33.5" stroke="black" stroke-width="2" fill="none" />
<polyline points="219.5,35.5,227.5,35.0,235.5,34.0" stroke="black" stroke-width="2" fill="none" />
<polyline points="235.0,29.0,227.0,29.0,219.0,29.5" stroke="black" stroke-width="2" fill="none" />
<polyline points="217.0,22.5,233.0,30.5,243.5,39.5,248.5,46.5" stroke="black" stroke-width="2" fill="none" />
<polyline points="212.5,20.5,204.0,28.0" stroke="black" stroke-width="2" fill="none" />
<polyline points="203.0,19.5,195.0,26.5" stroke="black" stroke-width="2" fill="none" />
<polyline points="188.5,27.0,197.0,20.0" stroke="black" stroke-width="2" fill="none" />
<polyline points="187.0,18.0,178.5,26.0" stroke="black" stroke-width="2" fill="none" />
<polyline points="178.0,19.0,170.0,27.0,162.0,35.0" stroke="black" stroke-width="2" fill="none" />
<polyline points="156.5,34.5,164.5,27.5,172.0,20.0" stroke="black" stroke-width="2" fill="none" />
<polyline points="170.0,28.0,178.0,27.5,186.0,26.5,194.5,26.0,203.0,25.5,211.0,25.0" stroke="black" stroke-width="2" fill="none" />
<polyline points="211.0,20.0,203.0,20.0,194.5,20.0,186.5,20.5,178.0,21.0,170.5,21.5,162.0,22.0" stroke="black" stroke-width="2" fill="none" />
<polyline points="170.5,29.5,163.5,30.5,155.5,31.5,148.0,31.5,140.5,32.5,132.5,33.5,125.0,34.5,117.5,35.0" stroke="black" stroke-width="2" fill="none" />
<polyline points="117.0,29.5,125.0,29.5,132.5,29.0,140.5,28.5,148.5,28.0,156.0,27.0,163.5,26.5,170.5,25.5,178.0,24.5" stroke="black" stroke-width="2" fill="none" />
<polyline points="132.0,38.0,124.0,39.0,115.5,39.0,107.0,40.0,98.0,40.5,90.0,41.0,82.0,41.5" stroke="black" stroke-width="2" fill="none" />
<polyline points="81.5,36.0,75.5,43.5,82.5,51.5,95.0,59.5,112.0,67.5" stroke="black" stroke-width="2" fill="none" />
<polyline points="126.0,57.0,110.0,49.0" stroke="black" stroke-width="2" fill="none" />
<polyline points="109.0,47.5,117.0,50.5,125.0,55.0,133.0,59.0,141.0,63.5,149.0,67.0,157.0,68.5,165.5,69.5,173.5,68.5,181.5,69.5,189.0,69.5" stroke="black" stroke-width="2" fill="none" />
<polyline points="131.5,127.0,124.5,127.5,116.5,128.0,108.5,128.5,100.5,129.0" stroke="black" stroke-width="2" fill="none" />
<polyline points="113.0,139.0,121.0,140.0,129.0,142.0,133.5,144.0,142.0,145.0,150.5,146.0,158.5,147.0,163.0,149.5,171.5,150.5,179.5,150.5,187.5,150.5,195.5,150.0,203.0,149.0,210.5,146.0,218.5,142.5,226.5,135.5,234.0,120.0" stroke="black" stroke-width="2" fill="none" />
<polyline points="141.0,35.0,133.0,35.5,124.5,36.0,116.5,36.0,108.0,37.0,100.0,37.5,91.5,37.5,83.0,38.0,74.5,39.0" stroke="black" stroke-width="2" fill="none" />
<polyline points="73.5,41.0,81.5,37.0,89.5,36.0,98.0,32.5,106.0,31.0,114.0,29.0,122.5,26.5,131.0,26.0,139.0,24.0,147.0,22.5,155.0,21.5,163.0,20.5,171.5,20.0,179.5,19.0,186.0,19.0,190.0,19.0,198.5,19.0,206.5,20.0,215.0,21.0,223.0,23.5,231.0,26.5,239.0,31.5,247.0,40.5" stroke="black" stroke-width="2" fill="none" />
<polyline points="242.5,41.5,241.5,42.5,227.5,32.0,219.5,30.5,211.5,29.0,203.5,28.0,195.5,27.5,187.0,27.5,179.5,28.5,172.0,29.5,164.5,30.5,156.5,32.5,149.0,35.0,141.0,36.0,133.0,39.0,125.0,40.0,116.5,43.5,108.5,44.0" stroke="black" stroke-width="2" fill="none" />
<polyline points="83.5,36.0,75.0,43.5" stroke="black" stroke-width="2" fill="none" />
<polyline points="105.0,100.0,89.0,108.0,76.0,116.5,63.5,124.5,53.5,132.5,45.5,141.0,37.5,148.5,31.5,156.5,26.5,164.5,20.5,172.5,16.0,180.5,12.5,188.5,10.5,196.0,7.0,204.0,6.0,211.5,4.0,219.5,3.5,227.5,4.0,235.5" stroke="black" stroke-width="2" fill="none" />
<polyline points="19.0,185.0,27.0,185.0" stroke="black" stroke-width="2" fill="none" />
<polyline points="27.5,173.0,19.5,173.5" stroke="black" stroke-width="2" fill="none" />
<polyline points="67.0,134.5,75.0,132.5,83.0,131.5,91.0,129.5,99.0,125.5,107.5,121.0,114.5,118.0,123.0,113.0,131.5,108.0,139.5,103.0,147.0,96.0,155.0,91.0,163.0,85.5,171.0,80.0,179.5,78.0" stroke="black" stroke-width="2" fill="none" />
<polyline points="94.0,109.5,85.5,116.5" stroke="black" stroke-width="2" fill="none" />
<polyline points="82.5,114.0,90.5,114.0" stroke="black" stroke-width="2" fill="none" />
<polyline points="89.0,110.5,78.0,117.5,70.0,125.0,60.0,133.0,53.0,140.5,46.5,148.5,40.5,156.0,35.5,164.0,30.5,172.0,27.5,180.0,24.5,188.0,21.5,196.5,20.0,204.0,18.0,212.0,17.0,220.0,16.0,228.0,15.5,235.5,15.5,243.5,15.0,251.5,15.5,259.5,16.0,267.5,16.5,275.5,19.5,281.0,20.5,289.0,23.5,293.5,24.5,302.0,26.5,310.5,30.5,318.5,33.5,326.0,36.5,333.5,41.5,341.5,45.5,349.0,50.5,356.5,56.0,364.5,62.0,372.5,67.0,380.5,72.0,387.5,78.5,396.0,84.5,404.0,92.5,412.5,97.0,420.5,103.0,428.5,109.0,436.5,115.5,444.0,122.0,452.5,128.0,460.5,133.0,468.5,140.0,476.5,146.0,484.5,152.0,492.0,158.0,500.0,166.0,508.0,173.5,516.0,180.5,523.5,190.5,532.0,200.5,540.0,214.5,547.5" stroke="black" stroke-width="2" fill="none" />
<polyline points="83.5,116.0,75.5,116.5" stroke="black" stroke-width="2" fill="none" />
<polyline points="82.0,108.5,90.0,108.5" stroke="black" stroke-width="2" fill="none" />
</svg>