<svg xmlns="http://www.w3.org/2000/svg" version="1.1"><polyline points="282.5,6.5,267.5,14.5,261.5,22.5,256.5,30.5,255.5,39.0,260.5,36.0,268.0,26.5,275.5,22.0,283.5,19.0,291.5,16.5,299.5,15.0,307.5,14.5,316.0,14.5,324.5,14.0,332.5,13.5,340.5,14.0,349.0,14.0,357.0,14.0,365.0,14.5,373.5,13.0" stroke="black" stroke-width="2" fill="none" />
<polyline points="372.5,17.5,380.5,10.0,388.0,2.0" stroke="black" stroke-width="2" fill="none" />
<polyline points="381.5,3.0,373.5,10.5,365.5,18.0" stroke="black" stroke-width="2" fill="none" />
<polyline points="371.0,21.0,379.0,20.5" stroke="black" stroke-width="2" fill="none" />
<polyline points="373.0,25.5,381.0,18.0,389.0,10.5" stroke="black" stroke-width="2" fill="none" />
<polyline points="370.5,5.5,362.5,13.0,353.5,20.5" stroke="black" stroke-width="2" fill="none" />
<polyline points="346.5,19.0,354.5,11.5,362.5,4.0" stroke="black" stroke-width="2" fill="none" />
<polyline points="356.0,6.5,348.0,13.5,340.5,20.5" stroke="black" stroke-width="2" fill="none" />
<polyline points="331.0,18.0,339.5,11.0,347.5,3.5" stroke="black" stroke-width="2" fill="none" />
<polyline points="347.0,4.5,355.0,4.5,363.0,4.5,371.5,4.0,379.5,4.0,387.5,4.5,392.5,6.0,385.5,14.5,374.0,22.5,358.0,28.5,366.0,21.5,371.0,13.5,365.0,21.5,358.0,29.0,365.5,25.5,373.5,22.5,382.0,17.5,390.0,11.0" stroke="black" stroke-width="2" fill="none" />
<polyline points="379.5,26.0,371.5,27.0" stroke="black" stroke-width="2" fill="none" />
<polyline points="373.5,49.0,381.5,49.0" stroke="black" stroke-width="2" fill="none" />
<polyline points="381.5,49.0,373.0,56.5" stroke="black" stroke-width="2" fill="none" />
<polyline points="371.5,51.5,363.5,59.0" stroke="black" stroke-width="2" fill="none" />
<polyline points="357.0,58.0,365.0,57.5,373.5,57.5,381.5,57.0,389.0,57.0,397.0,56.5,405.0,56.0,412.5,55.5,420.5,54.5,428.0,53.5,436.0,53.0" stroke="black" stroke-width="2" fill="none" />
<polyline points="436.0,51.5,427.5,58.5,419.0,66.0" stroke="black" stroke-width="2" fill="none" />
<polyline points="427.5,66.0,436.0,58.0,444.0,50.0" stroke="black" stroke-width="2" fill="none" />
<polyline points="449.0,58.5,441.0,66.5" stroke="black" stroke-width="2" fill="none" />
<polyline points="444.0,68.5,452.0,68.5,459.5,68.5,467.5,68.0" stroke="black" stroke-width="2" fill="none" />
<polyline points="460.5,74.0,468.5,67.0,476.5,59.5" stroke="black" stroke-width="2" fill="none" />
<polyline points="474.5,60.0,475.5,68.0,460.5,76.0,445.5,84.5,433.5,92.5,418.5,100.5" stroke="black" stroke-width="2" fill="none" />
<polyline points="411.0,104.5,419.5,96.5,428.0,88.5,437.0,80.5,445.0,73.0,453.5,65.5,461.5,58.5" stroke="black" stroke-width="2" fill="none" />
<polyline points="469.0,57.5,461.0,65.0,452.5,72.0,444.0,80.0,436.0,88.0" stroke="black" stroke-width="2" fill="none" />
<polyline points="428.5,82.0,436.5,81.5,444.0,81.0,452.0,81.0" stroke="black" stroke-width="2" fill="none" />
<polyline points="444.5,74.0,452.5,73.5,460.5,73.5,468.5,72.5" stroke="black" stroke-width="2" fill="none" />
<polyline points="443.0,60.5,435.0,67.5" stroke="black" stroke-width="2" fill="none" />
<polyline points="436.0,76.5,427.5,83.5,419.5,91.0,412.0,99.0,404.0,106.5" stroke="black" stroke-width="2" fill="none" />
<polyline points="397.5,104.5,405.5,104.0,413.5,103.5,421.0,103.5" stroke="black" stroke-width="2" fill="none" />
<polyline points="426.5,98.0,418.0,99.0,410.0,99.5" stroke="black" stroke-width="2" fill="none" />
<polyline points="403.5,94.0,412.0,93.5,420.0,93.0,428.0,92.5,435.5,92.0" stroke="black" stroke-width="2" fill="none" />
<polyline points="444.0,88.5,435.5,89.5,427.5,90.0,419.5,91.0" stroke="black" stroke-width="2" fill="none" />
<polyline points="417.5,86.5,426.0,86.5,434.5,86.0,442.5,85.0" stroke="black" stroke-width="2" fill="none" />
<polyline points="426.5,78.5,435.0,78.0,443.0,77.5,450.5,76.5,458.0,76.0" stroke="black" stroke-width="2" fill="none" />
<polyline points="451.0,106.0,443.0,113.5" stroke="black" stroke-width="2" fill="none" />
<polyline points="444.5,111.0,452.5,110.5" stroke="black" stroke-width="2" fill="none" />
<polyline points="447.5,110.5,460.5,118.5,470.5,126.5,479.5,134.5,485.0,142.5,491.0,150.5,494.5,158.5,498.5,166.5,502.5,174.5,505.0,182.5,507.0,190.5,509.5,198.5,510.5,206.5,510.5,214.5,510.5,222.5" stroke="black" stroke-width="2" fill="none" />
<polyline points="514.0,226.0,506.0,233.5" stroke="black" stroke-width="2" fill="none" />
<polyline points="506.5,233.0,515.0,232.5" stroke="black" stroke-width="2" fill="none" />
<polyline points="514.5,234.0,506.5,242.0,498.5,249.5" stroke="black" stroke-width="2" fill="none" />
<polyline points="500.5,248.5,508.5,248.5,516.5,248.5" stroke="black" stroke-width="2" fill="none" />
<polyline points="514.5,251.5,506.5,258.5,499.0,266.5" stroke="black" stroke-width="2" fill="none" />
<polyline points="501.5,264.0,509.0,264.0,516.5,264.0" stroke="black" stroke-width="2" fill="none" />
<polyline points="514.5,260.5,507.0,268.0,499.5,274.5" stroke="black" stroke-width="2" fill="none" />
<polyline points="500.0,273.5,508.0,273.0" stroke="black" stroke-width="2" fill="none" />
<polyline points="506.0,273.5,498.0,281.0,490.5,288.5" stroke="black" stroke-width="2" fill="none" />
<polyline points="491.0,291.0,498.5,290.5,507.0,289.5" stroke="black" stroke-width="2" fill="none" />
<polyline points="506.5,292.0,498.5,299.0,491.0,306.5" stroke="black" stroke-width="2" fill="none" />
<polyline points="490.0,307.0,498.0,306.5" stroke="black" stroke-width="2" fill="none" />
<polyline points="499.5,314.0,491.5,315.0" stroke="black" stroke-width="2" fill="none" />
<polyline points="498.5,316.0,490.5,324.0,482.5,331.0,474.5,338.0" stroke="black" stroke-width="2" fill="none" />
<polyline points="477.0,339.5,485.0,339.0,493.0,339.0" stroke="black" stroke-width="2" fill="none" />
<polyline points="491.0,337.0,483.0,344.5,475.5,352.0,468.0,360.0,460.0,368.0,452.0,376.0,443.5,383.5,435.0,391.5" stroke="black" stroke-width="2" fill="none" />
<polyline points="434.5,393.5,442.5,393.5,450.5,393.0,458.5,392.5" stroke="black" stroke-width="2" fill="none" />
<polyline points="467.5,378.5,459.0,386.0,451.0,394.0,443.0,401.5,434.5,409.0,426.5,416.5,418.5,423.5,410.5,431.5,402.5,439.0" stroke="black" stroke-width="2" fill="none" />
<polyline points="401.5,438.5,410.0,438.5,418.5,438.0,427.0,437.5" stroke="black" stroke-width="2" fill="none" />
<polyline points="435.0,428.5,427.0,436.0,419.0,443.0,411.5,450.0,404.0,457.0,396.5,464.5,388.5,472.0,380.5,479.0,372.5,486.5,364.5,494.0,356.0,501.5,348.0,509.0,339.5,517.0,331.0,524.5,323.0,532.0,315.0,539.5,307.0,547.0,299.5,554.0,291.5,561.0" stroke="black" stroke-width="2" fill="none" />
<polyline points="299.0,563.5,307.0,556.0,315.0,548.5,322.5,540.5,330.5,533.0,338.5,525.0,346.5,517.5,355.5,509.5,363.5,502.5,371.5,495.5,379.5,488.5,387.5,481.0,394.5,474.5,402.0,468.0,410.0,460.5,418.5,453.0" stroke="black" stroke-width="2" fill="none" />
<polyline points="418.5,450.0,411.0,450.5,403.0,451.5" stroke="black" stroke-width="2" fill="none" />
<polyline points="403.0,443.5,411.0,443.0,419.0,442.0,427.0,441.5" stroke="black" stroke-width="2" fill="none" />
<polyline points="419.0,425.5,426.5,425.0,434.0,424.0" stroke="black" stroke-width="2" fill="none" />
<polyline points="426.5,418.0,434.5,417.5,442.5,417.0" stroke="black" stroke-width="2" fill="none" />
<polyline points="442.5,414.0,435.0,421.0,427.0,428.0,419.0,434.5,411.5,441.0,404.0,447.5,396.0,455.5,388.0,463.0,380.0,470.5" stroke="black" stroke-width="2" fill="none" />
<polyline points="380.0,470.0,388.5,470.0,396.5,470.0,404.5,469.5" stroke="black" stroke-width="2" fill="none" />
<polyline points="395.5,459.5,404.0,459.0,412.0,458.0,420.0,457.0" stroke="black" stroke-width="2" fill="none" />
<polyline points="419.5,453.0,411.0,453.5,403.0,454.0,395.0,454.5" stroke="black" stroke-width="2" fill="none" />
<polyline points="396.0,446.0,404.0,445.0,412.0,444.5,419.5,443.5" stroke="black" stroke-width="2" fill="none" />
<polyline points="409.0,434.0,417.5,433.5,425.5,433.0,433.5,432.5" stroke="black" stroke-width="2" fill="none" />
<polyline points="443.5,421.5,436.0,422.0,428.0,422.0,420.0,422.5" stroke="black" stroke-width="2" fill="none" />
<polyline points="417.5,416.5,425.5,408.5,434.0,400.5,442.0,392.5,450.5,385.5,458.5,377.5,467.0,370.0,475.0,363.0,483.0,355.5" stroke="black" stroke-width="2" fill="none" />
<polyline points="475.0,347.0,483.0,346.5,492.0,345.5" stroke="black" stroke-width="2" fill="none" />
<polyline points="492.0,330.0,483.5,337.5,475.5,345.5,467.5,353.0,459.5,361.0,451.5,368.0" stroke="black" stroke-width="2" fill="none" />
<polyline points="452.5,366.0,460.5,365.5,468.0,365.0,475.5,365.0" stroke="black" stroke-width="2" fill="none" />
<polyline points="467.5,356.0,475.5,355.0,484.0,353.5" stroke="black" stroke-width="2" fill="none" />
<polyline points="483.5,350.0,475.0,350.5,467.5,351.0" stroke="black" stroke-width="2" fill="none" />
<polyline points="466.0,342.5,474.0,342.0,482.5,341.5,490.5,341.0" stroke="black" stroke-width="2" fill="none" />
<polyline points="491.0,330.0,482.5,330.5" stroke="black" stroke-width="2" fill="none" />
<polyline points="485.5,325.0,494.0,324.5,501.5,324.0" stroke="black" stroke-width="2" fill="none" />
<polyline points="501.0,320.5,493.0,321.5,485.0,322.5" stroke="black" stroke-width="2" fill="none" />
<polyline points="484.5,322.0,492.5,314.5,500.5,306.5,508.5,299.0" stroke="black" stroke-width="2" fill="none" />
<polyline points="507.0,282.0,499.0,289.0,490.5,296.5" stroke="black" stroke-width="2" fill="none" />
<polyline points="490.0,294.0,498.0,293.5,505.5,293.0" stroke="black" stroke-width="2" fill="none" />
<polyline points="508.0,282.5,499.5,283.5" stroke="black" stroke-width="2" fill="none" />
<polyline points="501.5,278.0,509.0,277.5" stroke="black" stroke-width="2" fill="none" />
<polyline points="502.0,268.5,510.0,268.5,517.5,268.0" stroke="black" stroke-width="2" fill="none" />
<polyline points="516.5,259.5,508.5,259.5,500.5,260.0" stroke="black" stroke-width="2" fill="none" />
<polyline points="500.0,257.0,508.5,249.5,516.5,242.5" stroke="black" stroke-width="2" fill="none" />
<polyline points="515.5,241.5,507.5,242.0" stroke="black" stroke-width="2" fill="none" />
<polyline points="512.5,245.5,512.5,252.5,512.0,260.0,511.0,267.5,509.5,275.5,508.5,283.5,506.5,291.5,504.5,299.5,501.5,306.5,499.0,314.5,496.0,322.5,493.0,331.0,490.5,338.5,487.0,346.5,482.0,354.5,477.0,362.0,472.0,370.0,466.5,378.0,461.5,386.0,455.0,394.0,450.0,402.0,445.5,410.0,439.5,418.5,435.5,426.5,428.5,434.5,423.5,442.5,418.5,451.0,413.5,459.0,409.0,467.0,404.5,474.5,398.5,482.5,391.5,490.5,386.0,498.5,379.0,506.5,372.5,514.5,365.5,522.5,357.5,530.5,349.0,538.5,340.5,546.5,330.0,554.5,317.0,562.5,297.5,570.5,302.0,569.5,310.0,566.0,318.0,563.0,325.5,556.0,333.5,551.0,341.5,544.0,350.0,538.0,358.0,529.5,365.5,522.5,373.5,513.0,381.5,502.5,389.5,491.5,398.0,481.5,406.0,470.5,414.0,459.0,422.5,447.0,430.5,434.5,438.5,420.5,446.5,408.5,454.5,398.0,463.0,386.0,471.0,374.0,479.0,361.5,487.0,345.5,495.0,328.0" stroke="black" stroke-width="2" fill="none" />
<polyline points="499.5,318.5,491.5,318.5,484.0,319.0" stroke="black" stroke-width="2" fill="none" />
<polyline points="483.0,311.0,491.5,310.0,500.5,309.5" stroke="black" stroke-width="2" fill="none" />
<polyline points="506.5,301.5,498.0,302.5,490.0,303.0" stroke="black" stroke-width="2" fill="none" />
<polyline points="490.0,299.5,498.0,299.0,505.5,298.5" stroke="black" stroke-width="2" fill="none" />
<polyline points="507.5,284.0,500.0,284.5,492.0,284.5" stroke="black" stroke-width="2" fill="none" />
<polyline points="501.0,255.5,509.0,255.0,517.0,255.5" stroke="black" stroke-width="2" fill="none" />
<polyline points="515.5,252.0,507.5,252.0,500.0,252.5" stroke="black" stroke-width="2" fill="none" />
<polyline points="499.5,247.0,508.0,246.5,515.5,246.0" stroke="black" stroke-width="2" fill="none" />
<polyline points="515.5,236.5,507.5,237.0,500.0,237.5" stroke="black" stroke-width="2" fill="none" />
<polyline points="498.5,228.0,507.0,227.5,515.5,227.5" stroke="black" stroke-width="2" fill="none" />
<polyline points="507.0,225.0,515.0,217.5" stroke="black" stroke-width="2" fill="none" />
<polyline points="515.0,210.5,507.0,218.5" stroke="black" stroke-width="2" fill="none" />
<polyline points="507.0,218.0,514.5,217.0" stroke="black" stroke-width="2" fill="none" />
<polyline points="514.5,225.0,506.0,225.5" stroke="black" stroke-width="2" fill="none" />
<polyline points="500.5,220.5,508.0,220.0,516.0,219.5" stroke="black" stroke-width="2" fill="none" />
<polyline points="515.0,211.5,507.0,212.0" stroke="black" stroke-width="2" fill="none" />
<polyline points="508.0,210.0,516.0,202.5" stroke="black" stroke-width="2" fill="none" />
<polyline points="507.5,200.5,499.5,208.5" stroke="black" stroke-width="2" fill="none" />
<polyline points="501.0,205.0,509.0,204.5,517.0,204.0" stroke="black" stroke-width="2" fill="none" />
<polyline points="506.5,194.0,498.5,202.0" stroke="black" stroke-width="2" fill="none" />
<polyline points="500.5,203.5,508.5,203.5" stroke="black" stroke-width="2" fill="none" />
<polyline points="502.0,198.0,510.0,198.0,517.0,198.0" stroke="black" stroke-width="2" fill="none" />
<polyline points="507.0,187.5,499.0,194.5" stroke="black" stroke-width="2" fill="none" />
<polyline points="502.0,193.5,510.0,193.0" stroke="black" stroke-width="2" fill="none" />
<polyline points="508.5,189.0,500.5,189.5" stroke="black" stroke-width="2" fill="none" />
<polyline points="498.5,187.0,506.5,179.5" stroke="black" stroke-width="2" fill="none" />
<polyline points="506.5,173.0,499.0,180.0" stroke="black" stroke-width="2" fill="none" />
<polyline points="499.5,181.0,507.5,180.5" stroke="black" stroke-width="2" fill="none" />
<polyline points="506.0,185.5,498.5,186.0" stroke="black" stroke-width="2" fill="none" />
<polyline points="498.5,177.0,506.5,177.0" stroke="black" stroke-width="2" fill="none" />
<polyline points="506.5,173.0,498.5,173.0,491.0,174.0" stroke="black" stroke-width="2" fill="none" />
<polyline points="494.0,169.5,501.5,169.5" stroke="black" stroke-width="2" fill="none" />
<polyline points="493.5,169.0,502.0,160.5" stroke="black" stroke-width="2" fill="none" />
<polyline points="500.5,155.0,492.5,162.5" stroke="black" stroke-width="2" fill="none" />
<polyline points="492.0,162.5,500.0,161.5" stroke="black" stroke-width="2" fill="none" />
<polyline points="500.5,167.0,492.5,167.5" stroke="black" stroke-width="2" fill="none" />
<polyline points="490.0,159.5,498.5,159.0" stroke="black" stroke-width="2" fill="none" />
<polyline points="489.0,149.5,481.5,156.5" stroke="black" stroke-width="2" fill="none" />
<polyline points="484.0,150.0,492.0,150.0" stroke="black" stroke-width="2" fill="none" />
<polyline points="492.5,139.0,484.0,139.5,476.0,139.5" stroke="black" stroke-width="2" fill="none" />
<polyline points="473.5,138.5,482.0,131.5" stroke="black" stroke-width="2" fill="none" />
<polyline points="484.0,133.5,476.0,134.5" stroke="black" stroke-width="2" fill="none" />
<polyline points="466.5,131.0,474.0,123.0" stroke="black" stroke-width="2" fill="none" />
<polyline points="474.5,125.5,466.5,126.5" stroke="black" stroke-width="2" fill="none" />
<polyline points="446.0,109.0,454.0,116.0,462.0,122.0,470.5,130.5,478.5,140.5,486.5,152.5" stroke="black" stroke-width="2" fill="none" />
<polyline points="452.0,172.0,444.0,179.0" stroke="black" stroke-width="2" fill="none" />
<polyline points="444.0,179.5,451.5,179.5" stroke="black" stroke-width="2" fill="none" />
<polyline points="452.0,180.5,444.0,187.5" stroke="black" stroke-width="2" fill="none" />
<polyline points="444.5,183.0,452.5,183.0" stroke="black" stroke-width="2" fill="none" />
<polyline points="449.5,176.5,442.0,177.0" stroke="black" stroke-width="2" fill="none" />
<polyline points="440.0,177.0,440.0,185.0" stroke="black" stroke-width="2" fill="none" />
<polyline points="434.5,189.0,442.5,188.5,450.5,188.0" stroke="black" stroke-width="2" fill="none" />
<polyline points="451.0,172.5,443.0,173.0" stroke="black" stroke-width="2" fill="none" />
<polyline points="442.5,165.0,435.0,172.0" stroke="black" stroke-width="2" fill="none" />
<polyline points="437.5,167.0,445.0,167.0" stroke="black" stroke-width="2" fill="none" />
<polyline points="443.5,163.5,435.5,164.5" stroke="black" stroke-width="2" fill="none" />
<polyline points="432.5,166.0,444.5,167.0,452.0,175.0,453.0,183.0,449.0,191.0" stroke="black" stroke-width="2" fill="none" />
<polyline points="448.5,168.5,440.0,163.5,431.5,164.5" stroke="black" stroke-width="2" fill="none" />
<polyline points="433.5,161.0,436.0,169.5,438.0,177.0,438.0,185.0,436.0,190.0,444.0,192.0,452.0,182.5" stroke="black" stroke-width="2" fill="none" />
<polyline points="498.5,214.0,506.5,213.0,515.0,212.5" stroke="black" stroke-width="2" fill="none" />
<polyline points="504.0,213.0,504.0,220.5,504.0,229.0,504.0,237.0" stroke="black" stroke-width="2" fill="none" />
<polyline points="434.0,301.0,426.0,308.5" stroke="black" stroke-width="2" fill="none" />
<polyline points="429.0,308.5,436.5,307.5,443.5,307.5" stroke="black" stroke-width="2" fill="none" />
<polyline points="441.0,308.0,433.5,315.5,426.0,323.0" stroke="black" stroke-width="2" fill="none" />
<polyline points="418.5,324.0,426.5,316.5,434.5,308.5" stroke="black" stroke-width="2" fill="none" />
<polyline points="437.0,305.0,429.0,306.0" stroke="black" stroke-width="2" fill="none" />
<polyline points="428.5,301.0,437.0,300.5" stroke="black" stroke-width="2" fill="none" />
<polyline points="432.0,300.0,424.0,295.5" stroke="black" stroke-width="2" fill="none" />
<polyline points="425.0,294.0,426.0,302.0,425.0,310.0,421.0,318.0,417.0,326.0,423.0,313.0" stroke="black" stroke-width="2" fill="none" />
<polyline points="427.5,313.0,436.0,312.5,444.0,311.0" stroke="black" stroke-width="2" fill="none" />
<polyline points="433.5,320.0,425.5,320.0,417.5,320.5" stroke="black" stroke-width="2" fill="none" />
<polyline points="418.0,318.0,426.0,317.5,434.5,317.0,442.5,316.5" stroke="black" stroke-width="2" fill="none" />
<polyline points="433.0,325.5,425.0,328.0,417.0,327.5" stroke="black" stroke-width="2" fill="none" />
<polyline points="437.0,319.5,437.0,311.5,436.0,303.5,428.5,295.5" stroke="black" stroke-width="2" fill="none" />
<polyline points="476.0,334.0,484.0,333.5,491.5,332.5" stroke="black" stroke-width="2" fill="none" />
<polyline points="482.5,361.0,474.0,362.0,465.5,363.5,457.0,364.5" stroke="black" stroke-width="2" fill="none" />
<polyline points="457.5,356.5,466.0,356.5,474.0,356.5,482.0,356.5" stroke="black" stroke-width="2" fill="none" />
<polyline points="467.0,376.0,459.0,376.0,450.5,376.5" stroke="black" stroke-width="2" fill="none" />
<polyline points="452.0,373.0,459.5,373.0,467.0,372.5" stroke="black" stroke-width="2" fill="none" />
<polyline points="476.5,370.5,468.5,371.5,460.5,371.5,453.0,372.0" stroke="black" stroke-width="2" fill="none" />
<polyline points="445.0,381.0,452.5,380.5,459.5,380.0,466.5,380.0" stroke="black" stroke-width="2" fill="none" />
<polyline points="467.0,384.0,459.0,384.5,450.5,385.0,442.5,386.0" stroke="black" stroke-width="2" fill="none" />
<polyline points="433.0,392.5,441.5,391.5,450.0,390.5,458.5,390.0" stroke="black" stroke-width="2" fill="none" />
<polyline points="451.5,400.0,442.5,400.5,434.0,401.0" stroke="black" stroke-width="2" fill="none" />
<polyline points="433.5,398.5,441.5,397.5,449.5,397.5" stroke="black" stroke-width="2" fill="none" />
<polyline points="443.0,408.5,435.0,408.0,427.0,408.0" stroke="black" stroke-width="2" fill="none" />
<polyline points="429.5,404.0,437.5,403.5,445.0,403.0" stroke="black" stroke-width="2" fill="none" />
<polyline points="442.5,411.0,434.5,411.5,426.5,412.0,418.5,412.5" stroke="black" stroke-width="2" fill="none" />
<polyline points="409.5,430.5,417.0,430.0,425.5,429.0,434.0,428.0" stroke="black" stroke-width="2" fill="none" />
<polyline points="397.0,426.5,389.0,433.5,381.0,441.5,373.0,448.5" stroke="black" stroke-width="2" fill="none" />
<polyline points="373.5,446.5,381.0,446.0,389.5,445.5" stroke="black" stroke-width="2" fill="none" />
<polyline points="395.0,434.5,386.5,435.0,378.0,435.5" stroke="black" stroke-width="2" fill="none" />
<polyline points="379.5,431.0,387.5,430.5,395.0,429.5" stroke="black" stroke-width="2" fill="none" />
<polyline points="395.0,418.5,387.0,426.0,380.0,433.5,372.5,441.0" stroke="black" stroke-width="2" fill="none" />
<polyline points="373.0,439.0,380.5,438.0,388.0,437.5,395.0,437.0" stroke="black" stroke-width="2" fill="none" />
<polyline points="387.5,426.5,380.0,427.5" stroke="black" stroke-width="2" fill="none" />
<polyline points="379.5,427.5,387.5,420.0" stroke="black" stroke-width="2" fill="none" />
<polyline points="380.0,419.0,388.5,411.5" stroke="black" stroke-width="2" fill="none" />
<polyline points="385.5,416.5,377.5,417.0" stroke="black" stroke-width="2" fill="none" />
<polyline points="379.5,412.5,388.0,412.5" stroke="black" stroke-width="2" fill="none" />
<polyline points="384.5,416.0,376.5,412.0" stroke="black" stroke-width="2" fill="none" />
<polyline points="377.5,409.0,377.5,417.0,377.0,425.5,376.5,433.5,363.5,441.5,369.0,449.5,371.0,449.5,379.5,449.0,387.5,442.0" stroke="black" stroke-width="2" fill="none" />
<polyline points="379.5,450.0,371.5,451.0" stroke="black" stroke-width="2" fill="none" />
<polyline points="374.0,444.0,382.0,443.5,389.5,443.0" stroke="black" stroke-width="2" fill="none" />
<polyline points="388.0,462.0,396.0,461.5,404.0,461.0,412.0,460.5" stroke="black" stroke-width="2" fill="none" />
<polyline points="411.5,464.5,403.5,464.5,396.0,465.0,388.5,465.5" stroke="black" stroke-width="2" fill="none" />
<polyline points="380.5,475.0,389.0,474.5,397.5,473.5,405.0,473.0" stroke="black" stroke-width="2" fill="none" />
<polyline points="396.5,483.5,389.0,490.5,381.5,498.0,373.5,505.5,365.5,512.5,357.5,520.5,349.5,527.5,341.5,534.5,333.5,541.5,325.5,549.0" stroke="black" stroke-width="2" fill="none" />
<polyline points="324.5,539.0,332.0,538.0,340.0,537.0,348.5,536.0,356.5,535.5" stroke="black" stroke-width="2" fill="none" />
<polyline points="364.0,523.0,355.5,530.5,347.5,538.0,339.5,545.5" stroke="black" stroke-width="2" fill="none" />
<polyline points="332.5,527.5,340.5,527.5,348.5,526.5,356.5,526.0" stroke="black" stroke-width="2" fill="none" />
<polyline points="349.0,515.0,357.5,514.5,366.0,513.5,374.0,513.0" stroke="black" stroke-width="2" fill="none" />
<polyline points="364.5,496.5,372.0,495.5,380.0,495.0,387.5,495.0" stroke="black" stroke-width="2" fill="none" />
<polyline points="379.5,483.5,387.5,483.0,395.0,482.0" stroke="black" stroke-width="2" fill="none" />
<polyline points="397.0,478.0,389.5,478.0,382.0,478.5" stroke="black" stroke-width="2" fill="none" />
<polyline points="372.0,485.5,380.0,485.5,388.0,485.0,396.0,484.5" stroke="black" stroke-width="2" fill="none" />
<polyline points="395.5,489.0,387.5,489.5,380.0,489.5,371.5,490.0" stroke="black" stroke-width="2" fill="none" />
<polyline points="363.0,493.0,371.0,493.0,379.0,492.5,387.0,491.5" stroke="black" stroke-width="2" fill="none" />
<polyline points="377.5,505.5,369.0,505.5,361.5,506.0,353.0,506.5" stroke="black" stroke-width="2" fill="none" />
<polyline points="349.0,510.0,357.0,510.0,365.0,510.0,373.0,510.0" stroke="black" stroke-width="2" fill="none" />
<polyline points="386.5,500.0,378.5,500.5,370.0,500.5,362.0,501.0,353.5,501.0" stroke="black" stroke-width="2" fill="none" />
<polyline points="361.5,519.0,353.0,519.5,345.5,519.5,337.5,520.0" stroke="black" stroke-width="2" fill="none" />
<polyline points="338.5,516.0,347.0,516.0,354.5,515.5,362.0,515.5,370.0,516.0" stroke="black" stroke-width="2" fill="none" />
<polyline points="364.5,523.5,356.5,524.0,348.5,524.5,340.0,524.5,332.0,525.0" stroke="black" stroke-width="2" fill="none" />
<polyline points="323.5,532.5,315.5,539.5,307.0,547.0,299.0,554.5,291.0,562.0,283.0,569.5" stroke="black" stroke-width="2" fill="none" />
<polyline points="276.0,570.0,284.0,562.0,292.0,553.5,300.0,546.0" stroke="black" stroke-width="2" fill="none" />
<polyline points="305.0,544.0,313.5,544.0,321.5,544.0,330.0,544.0,338.5,543.5,346.5,544.0" stroke="black" stroke-width="2" fill="none" />
<polyline points="356.0,531.0,348.5,531.5,341.0,531.5,333.5,531.5,325.5,531.5,317.5,531.5" stroke="black" stroke-width="2" fill="none" />
<polyline points="306.5,541.0,314.5,540.5,322.5,540.0,330.5,539.5,339.0,539.5,347.0,539.5" stroke="black" stroke-width="2" fill="none" />
<polyline points="316.0,499.0,324.0,491.5,332.0,483.5" stroke="black" stroke-width="2" fill="none" />
<polyline points="334.0,474.0,326.5,481.5,317.5,490.0,309.0,498.0" stroke="black" stroke-width="2" fill="none" />
<polyline points="306.0,498.0,314.0,497.0,322.0,496.5" stroke="black" stroke-width="2" fill="none" />
<polyline points="317.0,490.5,325.0,489.5,333.0,488.0" stroke="black" stroke-width="2" fill="none" />
<polyline points="330.0,481.5,322.0,482.0" stroke="black" stroke-width="2" fill="none" />
<polyline points="323.0,479.0,330.5,478.0" stroke="black" stroke-width="2" fill="none" />
<polyline points="324.5,474.5,329.0,482.0,329.5,490.5,324.5,498.5" stroke="black" stroke-width="2" fill="none" />
<polyline points="316.5,487.5,324.5,487.0,333.0,486.5" stroke="black" stroke-width="2" fill="none" />
<polyline points="332.0,492.0,323.5,492.0,314.5,492.5,306.5,493.5" stroke="black" stroke-width="2" fill="none" />
<polyline points="305.5,502.0,313.5,502.0,321.5,499.5" stroke="black" stroke-width="2" fill="none" />
<polyline points="314.0,502.0,306.0,502.5" stroke="black" stroke-width="2" fill="none" />
<polyline points="307.5,505.5,315.5,505.5" stroke="black" stroke-width="2" fill="none" />
<polyline points="329.5,480.5,321.5,475.5,313.5,490.0,305.5,500.0,307.0,496.0,314.5,487.5,319.5,479.5,322.5,472.0" stroke="black" stroke-width="2" fill="none" />
<polyline points="362.5,442.5,370.5,439.5" stroke="black" stroke-width="2" fill="none" />
<polyline points="378.5,422.5,387.0,422.0,395.5,421.5" stroke="black" stroke-width="2" fill="none" />
<polyline points="380.0,410.0,387.5,418.0,390.5,426.0,390.5,434.0,387.5,442.0" stroke="black" stroke-width="2" fill="none" />
<polyline points="348.0,377.0,356.0,368.5,364.0,361.0" stroke="black" stroke-width="2" fill="none" />
<polyline points="362.5,355.0,355.0,362.0" stroke="black" stroke-width="2" fill="none" />
<polyline points="354.5,361.0,362.5,360.5" stroke="black" stroke-width="2" fill="none" />
<polyline points="363.0,368.5,355.0,368.5" stroke="black" stroke-width="2" fill="none" />
<polyline points="348.5,373.0,340.5,380.0" stroke="black" stroke-width="2" fill="none" />
<polyline points="341.0,379.0,348.5,378.5,357.0,375.5" stroke="black" stroke-width="2" fill="none" />
<polyline points="355.5,376.5,347.5,376.5" stroke="black" stroke-width="2" fill="none" />
<polyline points="339.0,372.0,347.5,371.5,355.5,371.5,363.5,371.0" stroke="black" stroke-width="2" fill="none" />
<polyline points="362.0,359.0,354.5,359.5" stroke="black" stroke-width="2" fill="none" />
<polyline points="353.5,355.0,361.5,347.0" stroke="black" stroke-width="2" fill="none" />
<polyline points="354.0,349.0,346.0,356.5" stroke="black" stroke-width="2" fill="none" />
<polyline points="347.0,353.0,355.0,352.5,363.0,353.0" stroke="black" stroke-width="2" fill="none" />
<polyline points="364.0,364.5,355.5,364.5,347.5,364.5" stroke="black" stroke-width="2" fill="none" />
<polyline points="347.0,351.0,355.0,351.0,362.5,350.5" stroke="black" stroke-width="2" fill="none" />
<polyline points="357.5,350.0,349.0,345.5,341.0,346.5" stroke="black" stroke-width="2" fill="none" />
<polyline points="342.0,348.0,342.0,349.0,349.5,357.0,352.5,365.0,342.5,373.5,343.5,372.5,351.5,366.5" stroke="black" stroke-width="2" fill="none" />
<polyline points="362.5,371.5,364.0,363.5,361.5,355.5,351.0,347.5" stroke="black" stroke-width="2" fill="none" />
<polyline points="347.5,259.5,355.5,251.5,363.5,244.0" stroke="black" stroke-width="2" fill="none" />
<polyline points="363.5,236.0,355.0,243.5" stroke="black" stroke-width="2" fill="none" />
<polyline points="354.0,242.5,362.5,241.5" stroke="black" stroke-width="2" fill="none" />
<polyline points="363.0,248.0,354.5,248.5" stroke="black" stroke-width="2" fill="none" />
<polyline points="355.0,246.0,362.5,245.5" stroke="black" stroke-width="2" fill="none" />
<polyline points="354.5,236.5,347.0,244.0" stroke="black" stroke-width="2" fill="none" />
<polyline points="348.5,239.0,356.0,238.5,363.0,238.0" stroke="black" stroke-width="2" fill="none" />
<polyline points="357.5,230.0,349.0,237.5" stroke="black" stroke-width="2" fill="none" />
<polyline points="347.5,235.5,355.5,234.5" stroke="black" stroke-width="2" fill="none" />
<polyline points="360.0,232.5,352.0,225.5,344.5,224.0,336.5,227.0" stroke="black" stroke-width="2" fill="none" />
<polyline points="337.5,226.0,342.5,234.0,350.5,242.5,348.5,250.5,345.0,255.0" stroke="black" stroke-width="2" fill="none" />
<polyline points="346.0,255.5,354.0,257.0,362.0,252.0" stroke="black" stroke-width="2" fill="none" />
<polyline points="354.0,258.5,346.0,259.0" stroke="black" stroke-width="2" fill="none" />
<polyline points="347.0,254.5,355.0,254.5,363.0,254.0" stroke="black" stroke-width="2" fill="none" />
<polyline points="363.0,228.0,354.5,229.0,346.5,230.0" stroke="black" stroke-width="2" fill="none" />
<polyline points="351.0,227.5,359.0,235.5,363.0,243.5,362.5,252.0" stroke="black" stroke-width="2" fill="none" />
<polyline points="346.5,237.5,338.5,227.5" stroke="black" stroke-width="2" fill="none" />
<polyline points="332.5,179.0,340.0,172.5,348.0,165.0,356.0,157.5" stroke="black" stroke-width="2" fill="none" />
<polyline points="362.5,155.0,355.0,162.0,347.0,170.0,339.5,177.5" stroke="black" stroke-width="2" fill="none" />
<polyline points="346.5,178.5,355.0,171.5,363.0,164.0" stroke="black" stroke-width="2" fill="none" />
<polyline points="365.5,172.0,373.5,165.0" stroke="black" stroke-width="2" fill="none" />
<polyline points="354.0,149.0,346.0,156.5,338.5,164.0,331.0,171.5" stroke="black" stroke-width="2" fill="none" />
<polyline points="329.5,173.5,337.5,173.0,345.5,172.5,354.0,172.0" stroke="black" stroke-width="2" fill="none" />
<polyline points="348.0,147.5,340.0,155.0,332.0,162.5,324.0,170.0" stroke="black" stroke-width="2" fill="none" />
<polyline points="324.5,163.0,316.5,170.5" stroke="black" stroke-width="2" fill="none" />
<polyline points="315.0,164.0,306.5,171.5" stroke="black" stroke-width="2" fill="none" />
<polyline points="307.5,171.0,315.5,170.5,323.0,169.5,330.5,168.5,338.5,167.0,346.5,166.0,355.0,165.0,364.0,164.5,372.5,164.0" stroke="black" stroke-width="2" fill="none" />
<polyline points="354.0,176.5,345.5,177.5,337.0,178.0,329.0,179.0" stroke="black" stroke-width="2" fill="none" />
<polyline points="331.0,159.5,339.0,159.0,346.5,159.5,355.0,159.0" stroke="black" stroke-width="2" fill="none" />
<polyline points="364.0,154.0,356.0,154.5,347.5,155.5,339.5,156.0,331.5,156.5" stroke="black" stroke-width="2" fill="none" />
<polyline points="330.0,154.5,338.0,147.5,346.5,140.0" stroke="black" stroke-width="2" fill="none" />
<polyline points="347.5,141.5,355.5,155.0,363.5,163.0" stroke="black" stroke-width="2" fill="none" />
<polyline points="356.5,151.5,348.0,151.0,340.0,151.5,332.5,152.0" stroke="black" stroke-width="2" fill="none" />
<polyline points="333.0,148.0,341.0,148.0,348.5,147.5,356.5,147.0" stroke="black" stroke-width="2" fill="none" />
<polyline points="348.0,130.5,340.0,138.0,332.0,145.5" stroke="black" stroke-width="2" fill="none" />
<polyline points="332.5,145.0,340.5,145.0,349.0,144.5" stroke="black" stroke-width="2" fill="none" />
<polyline points="349.0,122.0,341.0,129.5,332.5,137.0,324.0,144.0" stroke="black" stroke-width="2" fill="none" />
<polyline points="324.5,144.5,332.0,143.5,340.0,143.0,348.0,142.0" stroke="black" stroke-width="2" fill="none" />
<polyline points="338.0,124.0,330.5,131.0,322.0,138.0" stroke="black" stroke-width="2" fill="none" />
<polyline points="322.5,138.0,331.0,137.5,339.5,137.0,347.5,136.5" stroke="black" stroke-width="2" fill="none" />
<polyline points="354.5,116.5,362.5,115.5,370.0,115.0,378.0,114.5,386.5,113.5,394.5,112.0" stroke="black" stroke-width="2" fill="none" />
<polyline points="388.0,115.0,395.5,107.0,403.5,99.0,411.0,91.0" stroke="black" stroke-width="2" fill="none" />
<polyline points="420.0,99.5,412.5,100.5,405.0,101.0,397.5,101.5" stroke="black" stroke-width="2" fill="none" />
<polyline points="385.5,105.5,377.5,113.0" stroke="black" stroke-width="2" fill="none" />
<polyline points="372.5,109.0,365.0,116.5" stroke="black" stroke-width="2" fill="none" />
<polyline points="371.0,113.0,379.0,106.0" stroke="black" stroke-width="2" fill="none" />
<polyline points="363.5,107.0,355.0,114.5" stroke="black" stroke-width="2" fill="none" />
<polyline points="357.0,111.0,364.5,110.0,372.0,109.5,380.0,108.5,388.5,108.0,396.5,107.5" stroke="black" stroke-width="2" fill="none" />
<polyline points="430.5,102.0,438.5,104.5,447.0,109.5,455.5,115.0,463.5,120.5,472.0,126.5,480.0,134.5,488.5,145.5,496.5,157.0,504.0,173.0" stroke="black" stroke-width="2" fill="none" />
<polyline points="436.5,106.0,442.5,110.5,455.0,118.5,464.0,126.5,471.0,134.5,478.0,142.5,483.0,150.5,488.0,158.5,491.5,166.5,494.5,172.5,496.5,180.5,498.5,186.5,499.0,194.5,500.5,202.0,502.0,210.0,502.0,217.5,501.0,225.5,502.0,234.0,502.5,242.0,501.0,250.5,501.0,258.5,499.0,266.5,497.0,274.5,495.0,282.0,493.5,290.0,489.5,298.5,486.5,306.5,484.5,315.0,480.5,323.5,477.0,332.0,473.0,340.0,467.0,347.5,462.0,355.5,457.0,363.5,451.0,372.0,446.0,380.0,440.5,387.5,433.5,395.5,428.0,403.0,422.5,410.5,417.5,418.0,412.5,426.0,408.0,434.0,402.0,442.5,397.5,450.5,390.0,459.0,384.0,467.0,378.5,475.0,371.5,483.5,364.5,492.0,358.0,500.0,350.0,508.0,342.5,516.0,334.5,524.0,324.0,532.0,313.0,539.5,299.5,548.0" stroke="black" stroke-width="2" fill="none" />
<polyline points="291.5,546.0,284.0,553.5,276.5,561.5,268.5,569.0" stroke="black" stroke-width="2" fill="none" />
<polyline points="260.5,571.5,268.0,564.0,275.5,556.0" stroke="black" stroke-width="2" fill="none" />
<polyline points="267.5,557.0,259.5,564.0,252.0,571.5" stroke="black" stroke-width="2" fill="none" />
<polyline points="242.0,571.5,250.0,564.0,258.0,556.5" stroke="black" stroke-width="2" fill="none" />
<polyline points="252.5,554.0,244.0,561.5,236.5,569.0" stroke="black" stroke-width="2" fill="none" />
<polyline points="227.0,569.0,234.5,561.0,242.0,553.5" stroke="black" stroke-width="2" fill="none" />
<polyline points="244.5,557.5,252.5,557.5,265.0,557.5" stroke="black" stroke-width="2" fill="none" />
<polyline points="285.0,552.0,292.5,552.0,300.5,551.5,308.5,551.0,315.5,551.0,323.0,550.5,331.0,550.5" stroke="black" stroke-width="2" fill="none" />
<polyline points="333.0,545.0,325.5,545.5,317.5,546.0,310.0,546.5,302.0,547.5,294.0,548.5,286.0,549.0" stroke="black" stroke-width="2" fill="none" />
<polyline points="235.5,547.0,227.5,554.5,219.5,562.0,211.5,569.5" stroke="black" stroke-width="2" fill="none" />
<polyline points="213.0,569.5,221.0,568.5,229.5,568.0,238.0,567.5,246.0,566.5,254.0,566.0,261.5,565.5,269.5,565.0,277.0,564.5,285.0,564.0,293.0,563.0,300.5,563.0,308.5,562.5" stroke="black" stroke-width="2" fill="none" />
<polyline points="234.5,555.5,227.0,563.0,219.0,570.5" stroke="black" stroke-width="2" fill="none" />
<polyline points="213.0,565.0,220.5,564.5,228.5,564.0,236.5,563.5,245.0,563.5,253.0,562.5,261.0,562.0,269.5,561.0,278.0,560.5,286.0,560.5,294.0,560.0,302.0,559.5,310.0,558.5" stroke="black" stroke-width="2" fill="none" />
<polyline points="227.0,546.5,219.0,553.5,211.0,560.5" stroke="black" stroke-width="2" fill="none" />
<polyline points="203.5,562.0,212.0,561.5,220.0,560.0,228.5,559.0,237.0,558.0,245.5,557.5,253.5,557.0,261.5,556.5,269.5,556.0,277.0,555.5,285.0,555.0,293.5,554.5,301.5,553.5,309.5,552.5,317.5,552.5" stroke="black" stroke-width="2" fill="none" />
<polyline points="220.0,546.5,212.5,554.0,203.5,562.0" stroke="black" stroke-width="2" fill="none" />
<polyline points="198.0,556.0,205.5,555.5,213.5,555.0,221.5,554.5,230.5,554.0,238.5,553.5,246.5,554.0,254.0,554.5,261.5,555.0,269.5,555.0,277.0,555.0,285.0,554.0,292.5,552.5,300.0,551.5,308.0,551.0,315.5,550.5,323.5,549.5" stroke="black" stroke-width="2" fill="none" />
<polyline points="212.5,538.0,204.0,546.0,195.0,554.0" stroke="black" stroke-width="2" fill="none" />
<polyline points="188.0,552.0,196.0,551.5,203.5,551.0,211.0,551.0,219.0,551.5,226.5,552.0,234.0,551.0" stroke="black" stroke-width="2" fill="none" />
<polyline points="211.0,546.5,202.5,553.5" stroke="black" stroke-width="2" fill="none" />
<polyline points="203.0,538.5,195.5,546.0,187.5,554.0" stroke="black" stroke-width="2" fill="none" />
<polyline points="186.0,549.0,194.0,548.5,202.0,548.0,210.0,547.5,218.0,547.0,226.5,547.0,234.5,546.5" stroke="black" stroke-width="2" fill="none" />
<polyline points="204.5,533.0,196.5,540.0,188.5,547.0" stroke="black" stroke-width="2" fill="none" />
<polyline points="177.5,548.0,185.5,540.0,194.0,532.0" stroke="black" stroke-width="2" fill="none" />
<polyline points="187.0,532.5,179.0,540.5,171.0,548.0" stroke="black" stroke-width="2" fill="none" />
<polyline points="171.0,544.5,179.5,544.5,187.0,544.5,194.5,544.5,202.0,544.5,209.5,543.5" stroke="black" stroke-width="2" fill="none" />
<polyline points="187.5,523.0,179.5,530.5,171.5,538.5" stroke="black" stroke-width="2" fill="none" />
<polyline points="172.5,540.5,180.5,540.0,188.0,540.0,196.0,540.0,203.5,540.0,211.5,539.0" stroke="black" stroke-width="2" fill="none" />
<polyline points="179.0,526.0,171.0,533.5,163.5,540.5" stroke="black" stroke-width="2" fill="none" />
<polyline points="165.5,536.5,173.5,536.0,181.0,535.5,188.0,535.0,195.5,534.0" stroke="black" stroke-width="2" fill="none" />
<polyline points="178.5,516.0,170.5,524.0,163.0,531.5" stroke="black" stroke-width="2" fill="none" />
<polyline points="165.0,532.0,173.0,531.5,180.5,530.5,188.5,530.5,196.0,530.5,204.0,530.5" stroke="black" stroke-width="2" fill="none" />
<polyline points="172.0,514.5,164.0,522.0,155.5,529.5" stroke="black" stroke-width="2" fill="none" />
<polyline points="157.0,528.5,165.0,528.0,173.0,528.0,180.5,528.0,188.0,528.0" stroke="black" stroke-width="2" fill="none" />
<polyline points="170.5,507.0,162.5,514.5,155.0,522.0" stroke="black" stroke-width="2" fill="none" />
<polyline points="155.0,525.0,163.0,524.5,171.5,523.5,180.0,523.0,188.0,522.0" stroke="black" stroke-width="2" fill="none" />
<polyline points="164.5,508.0,156.0,515.5,148.0,522.5" stroke="black" stroke-width="2" fill="none" />
<polyline points="148.0,521.0,155.5,520.5,163.0,520.0,170.5,519.0,178.5,518.0" stroke="black" stroke-width="2" fill="none" />
<polyline points="165.0,498.0,157.0,505.5,149.0,512.5" stroke="black" stroke-width="2" fill="none" />
<polyline points="148.5,516.5,156.5,516.0,164.0,516.0,171.5,516.0,178.5,515.5" stroke="black" stroke-width="2" fill="none" />
<polyline points="157.5,501.0,149.0,508.0,141.0,515.5" stroke="black" stroke-width="2" fill="none" />
<polyline points="138.5,512.5,147.0,512.0,155.5,511.5,163.5,511.0,171.5,510.5" stroke="black" stroke-width="2" fill="none" />
<polyline points="155.0,491.5,147.0,499.0,139.0,506.5" stroke="black" stroke-width="2" fill="none" />
<polyline points="137.0,512.0,146.0,511.0,154.5,510.5,163.0,509.5,171.5,509.0" stroke="black" stroke-width="2" fill="none" />
<polyline points="155.0,482.5,147.0,489.5,139.0,496.5,131.0,504.0" stroke="black" stroke-width="2" fill="none" />
<polyline points="131.5,503.0,139.5,503.0,148.0,502.0,156.5,501.5,164.0,501.5" stroke="black" stroke-width="2" fill="none" />
<polyline points="150.0,483.5,142.0,491.0,134.0,498.5" stroke="black" stroke-width="2" fill="none" />
<polyline points="131.5,501.0,139.5,500.5,148.5,500.0,156.5,499.0,165.0,498.5" stroke="black" stroke-width="2" fill="none" />
<polyline points="148.0,474.0,140.0,482.0,132.0,489.5,124.0,497.0" stroke="black" stroke-width="2" fill="none" />
<polyline points="123.0,496.0,131.0,495.0,139.5,494.0,148.0,494.0,157.0,493.5" stroke="black" stroke-width="2" fill="none" />
<polyline points="140.5,473.5,132.5,481.0,124.0,488.5" stroke="black" stroke-width="2" fill="none" />
<polyline points="123.0,485.5,131.5,484.5,140.0,484.0,148.0,483.5,156.0,482.5" stroke="black" stroke-width="2" fill="none" />
<polyline points="138.5,467.0,131.0,474.0,122.5,481.0" stroke="black" stroke-width="2" fill="none" />
<polyline points="117.0,479.0,125.0,478.5,133.0,478.0,141.0,477.5,148.5,477.5" stroke="black" stroke-width="2" fill="none" />
<polyline points="131.0,466.5,122.5,474.0,114.5,482.0" stroke="black" stroke-width="2" fill="none" />
<polyline points="116.5,476.5,124.5,476.5,132.0,476.0,140.0,475.5,148.5,475.5" stroke="black" stroke-width="2" fill="none" />
<polyline points="131.0,459.0,123.0,467.0,115.0,474.5" stroke="black" stroke-width="2" fill="none" />
<polyline points="107.5,472.5,115.5,472.0,123.0,471.5,131.0,471.0,138.5,470.5" stroke="black" stroke-width="2" fill="none" />
<polyline points="123.0,457.5,115.0,465.5,107.0,473.5" stroke="black" stroke-width="2" fill="none" />
<polyline points="107.5,468.0,115.5,467.5,124.0,467.0,132.5,466.5,141.0,466.0" stroke="black" stroke-width="2" fill="none" />
<polyline points="123.0,451.5,115.0,459.5,107.0,467.0" stroke="black" stroke-width="2" fill="none" />
<polyline points="101.0,466.0,109.0,465.0,117.0,464.0,125.0,463.0,132.5,462.5" stroke="black" stroke-width="2" fill="none" />
<polyline points="124.0,444.5,116.0,452.0,107.5,459.0,99.5,466.5" stroke="black" stroke-width="2" fill="none" />
<polyline points="102.0,461.0,109.5,460.5,117.5,459.5,125.5,459.5,132.5,459.0" stroke="black" stroke-width="2" fill="none" />
<polyline points="115.5,446.0,107.5,453.5,98.5,460.5" stroke="black" stroke-width="2" fill="none" />
<polyline points="101.5,456.5,109.0,455.5,116.5,455.0,124.0,455.0" stroke="black" stroke-width="2" fill="none" />
<polyline points="116.0,434.5,108.0,442.0,100.0,449.5" stroke="black" stroke-width="2" fill="none" />
<polyline points="93.0,451.0,100.5,450.5,108.0,450.0,116.0,449.5,124.0,448.0" stroke="black" stroke-width="2" fill="none" />
<polyline points="116.0,424.5,107.5,432.5,99.5,440.5,92.0,449.0" stroke="black" stroke-width="2" fill="none" />
<polyline points="94.0,445.0,101.5,444.5,109.5,445.0,117.5,445.0,125.0,444.5" stroke="black" stroke-width="2" fill="none" />
<polyline points="107.5,429.0,99.0,436.5,90.5,444.0" stroke="black" stroke-width="2" fill="none" />
<polyline points="85.0,442.5,93.0,442.5,101.5,442.0,109.5,441.5,117.0,440.0" stroke="black" stroke-width="2" fill="none" />
<polyline points="107.5,420.5,99.5,428.5,91.5,436.0,84.0,443.0" stroke="black" stroke-width="2" fill="none" />
<polyline points="86.0,437.5,93.5,437.0,101.5,436.5,109.5,436.0,117.5,435.5" stroke="black" stroke-width="2" fill="none" />
<polyline points="98.0,419.5,90.5,426.5,82.5,434.0" stroke="black" stroke-width="2" fill="none" />
<polyline points="85.5,434.5,93.5,433.5,101.0,432.0,108.5,431.0" stroke="black" stroke-width="2" fill="none" />
<polyline points="97.5,409.5,89.5,417.0,82.5,425.0,75.0,433.0" stroke="black" stroke-width="2" fill="none" />
<polyline points="74.0,431.5,82.0,430.5,90.0,429.0,98.5,428.0,107.5,427.5,116.0,427.5" stroke="black" stroke-width="2" fill="none" />
<polyline points="91.5,412.5,83.0,419.5,75.0,427.0" stroke="black" stroke-width="2" fill="none" />
<polyline points="73.5,427.5,81.5,427.0,90.0,426.5,98.5,426.0" stroke="black" stroke-width="2" fill="none" />
<polyline points="90.5,404.5,82.5,412.5,75.0,420.0" stroke="black" stroke-width="2" fill="none" />
<polyline points="75.0,423.5,82.5,423.0,91.0,422.5,99.0,421.5,107.5,420.5" stroke="black" stroke-width="2" fill="none" />
<polyline points="83.5,405.0,75.5,412.0,67.5,419.5" stroke="black" stroke-width="2" fill="none" />
<polyline points="67.0,417.5,75.5,417.0,84.0,416.5,92.0,416.0,100.0,416.0" stroke="black" stroke-width="2" fill="none" />
<polyline points="85.5,398.0,77.0,405.0,68.5,411.5" stroke="black" stroke-width="2" fill="none" />
<polyline points="68.5,413.5,76.5,412.5,84.0,411.5,91.5,411.0,99.0,410.5" stroke="black" stroke-width="2" fill="none" />
<polyline points="76.0,395.5,68.0,403.0" stroke="black" stroke-width="2" fill="none" />
<polyline points="67.5,404.5,75.5,404.5,84.0,404.0,92.0,404.0" stroke="black" stroke-width="2" fill="none" />
<polyline points="75.5,385.0,67.0,392.5,59.0,400.0" stroke="black" stroke-width="2" fill="none" />
<polyline points="60.5,401.5,68.5,400.5,77.0,400.0,85.0,399.0" stroke="black" stroke-width="2" fill="none" />
<polyline points="92.0,407.0,83.5,407.5,75.0,408.5,67.0,409.0" stroke="black" stroke-width="2" fill="none" />
<polyline points="60.5,396.0,68.5,395.5,76.0,395.0,84.0,394.0" stroke="black" stroke-width="2" fill="none" />
<polyline points="75.5,377.0,67.5,385.0,59.0,393.0" stroke="black" stroke-width="2" fill="none" />
<polyline points="60.5,392.5,68.5,392.0,76.0,391.5" stroke="black" stroke-width="2" fill="none" />
<polyline points="65.5,377.5,57.5,385.5" stroke="black" stroke-width="2" fill="none" />
<polyline points="54.0,387.5,62.0,386.5,69.5,386.0,77.0,385.0" stroke="black" stroke-width="2" fill="none" />
<polyline points="66.5,372.0,58.5,379.5,50.5,387.0" stroke="black" stroke-width="2" fill="none" />
<polyline points="52.0,388.5,60.0,388.5,68.0,388.5,76.5,388.5,85.0,388.0" stroke="black" stroke-width="2" fill="none" />
<polyline points="60.5,370.0,52.0,378.0" stroke="black" stroke-width="2" fill="none" />
<polyline points="52.0,382.0,60.0,381.5,68.0,381.0,76.0,381.0" stroke="black" stroke-width="2" fill="none" />
<polyline points="60.0,363.5,51.5,371.0,43.5,378.5" stroke="black" stroke-width="2" fill="none" />
<polyline points="43.5,378.5,51.5,378.0,59.5,377.0,67.5,376.0" stroke="black" stroke-width="2" fill="none" />
<polyline points="57.5,357.5,49.5,365.0,42.0,372.0" stroke="black" stroke-width="2" fill="none" />
<polyline points="44.5,374.0,52.5,373.5,60.5,373.0,68.5,372.5" stroke="black" stroke-width="2" fill="none" />
<polyline points="61.5,367.0,53.0,367.5,45.0,368.5" stroke="black" stroke-width="2" fill="none" />
<polyline points="35.0,365.5,42.5,365.0,50.0,364.0,58.0,363.5" stroke="black" stroke-width="2" fill="none" />
<polyline points="49.5,356.5,42.0,363.5,34.5,371.0" stroke="black" stroke-width="2" fill="none" />
<polyline points="36.0,363.0,44.5,355.0,52.5,347.5" stroke="black" stroke-width="2" fill="none" />
<polyline points="43.0,348.0,34.5,355.5" stroke="black" stroke-width="2" fill="none" />
<polyline points="35.0,358.0,43.0,357.5,51.0,357.0,59.5,356.5" stroke="black" stroke-width="2" fill="none" />
<polyline points="43.5,339.0,35.0,347.0,27.0,355.0" stroke="black" stroke-width="2" fill="none" />
<polyline points="27.5,354.5,35.5,354.0,43.0,354.0,50.5,354.0" stroke="black" stroke-width="2" fill="none" />
<polyline points="59.5,359.0,51.5,359.0,44.0,360.0,36.0,360.0" stroke="black" stroke-width="2" fill="none" />
<polyline points="27.5,349.5,35.5,348.5,43.5,348.0,51.0,347.5" stroke="black" stroke-width="2" fill="none" />
<polyline points="43.0,333.0,35.5,340.0,27.5,347.0" stroke="black" stroke-width="2" fill="none" />
<polyline points="27.0,343.5,35.0,343.0,43.5,343.0" stroke="black" stroke-width="2" fill="none" />
<polyline points="36.5,331.0,28.5,338.5" stroke="black" stroke-width="2" fill="none" />
<polyline points="25.5,340.0,33.5,340.0" stroke="black" stroke-width="2" fill="none" />
<polyline points="25.5,342.0,34.0,341.5,42.5,341.0" stroke="black" stroke-width="2" fill="none" />
<polyline points="44.0,331.5,36.5,332.0,28.5,333.0,20.0,333.5" stroke="black" stroke-width="2" fill="none" />
<polyline points="19.5,330.5,27.0,330.0,34.5,329.0" stroke="black" stroke-width="2" fill="none" />
<polyline points="36.0,326.0,28.5,327.0,20.5,327.0" stroke="black" stroke-width="2" fill="none" />
<polyline points="18.5,330.0,27.0,323.0,34.5,315.0" stroke="black" stroke-width="2" fill="none" />
<polyline points="35.0,323.0,27.0,331.0" stroke="black" stroke-width="2" fill="none" />
<polyline points="22.0,340.0,29.5,354.5,37.5,369.5,45.5,381.5,53.0,394.5,61.0,407.5,69.0,419.5,77.5,430.5,85.5,444.0,93.5,456.0,101.5,467.0,109.5,478.0,117.5,487.5,125.0,496.5,133.0,506.5,140.5,515.5,148.5,524.5,156.5,532.5,165.0,538.5,173.0,544.5,181.0,551.5,189.0,556.5,197.0,562.5,204.5,565.5,212.5,569.5" stroke="black" stroke-width="2" fill="none" />
<polyline points="165.0,488.5,156.5,489.5,148.0,490.5,139.5,491.0,132.0,492.0,124.0,492.0" stroke="black" stroke-width="2" fill="none" />
<polyline points="121.5,490.5,130.0,490.0,138.5,489.5,146.5,488.5,155.0,487.5" stroke="black" stroke-width="2" fill="none" />
<polyline points="129.5,453.0,121.5,453.5,113.5,454.0,105.5,454.5,97.5,454.5,90.0,454.5" stroke="black" stroke-width="2" fill="none" />
<polyline points="35.5,325.0,43.5,341.0,51.5,354.0,59.5,365.0,67.5,375.0,75.0,387.0,83.5,397.0,91.5,408.0,99.0,418.0,107.0,428.0,114.5,439.0,123.0,450.0,131.5,460.0,139.5,472.0,147.5,482.0,156.0,492.0,164.0,502.5,172.0,512.5,180.5,520.0,188.5,528.5,196.5,534.5,204.5,540.5,212.5,545.0,220.0,549.0,228.0,553.0,236.0,554.5,244.0,555.5,252.5,555.5,263.5,555.5,271.5,555.5,279.5,554.5,287.5,552.5,295.5,549.5,303.0,545.5,311.0,541.0,318.5,536.5,326.5,530.0,334.0,523.5,342.0,515.5,350.0,507.0,358.0,499.5,365.5,490.5,373.5,479.5,381.5,471.0,389.0,458.0,397.0,448.5,405.0,437.5,413.0,425.5,421.0,413.5,429.0,402.5,437.0,389.0,445.0,376.5,453.0,366.5,461.0,355.0,469.0,341.0,477.0,328.5" stroke="black" stroke-width="2" fill="none" />
<polyline points="262.0,404.0,254.0,411.0" stroke="black" stroke-width="2" fill="none" />
<polyline points="250.5,410.0,258.5,409.5" stroke="black" stroke-width="2" fill="none" />
<polyline points="260.0,412.0,252.0,420.0" stroke="black" stroke-width="2" fill="none" />
<polyline points="251.0,420.5,259.0,420.0" stroke="black" stroke-width="2" fill="none" />
<polyline points="259.0,418.5,251.0,426.5" stroke="black" stroke-width="2" fill="none" />
<polyline points="251.5,426.0,259.5,425.5" stroke="black" stroke-width="2" fill="none" />
<polyline points="258.0,429.0,249.5,436.0" stroke="black" stroke-width="2" fill="none" />
<polyline points="251.0,431.0,259.5,429.5" stroke="black" stroke-width="2" fill="none" />
<polyline points="254.5,432.0,246.5,427.0" stroke="black" stroke-width="2" fill="none" />
<polyline points="251.5,416.5,260.0,416.0" stroke="black" stroke-width="2" fill="none" />
<polyline points="261.0,405.0,253.5,405.5" stroke="black" stroke-width="2" fill="none" />
<polyline points="252.0,405.5,244.0,414.5" stroke="black" stroke-width="2" fill="none" />
<polyline points="243.0,412.5,251.5,412.5,259.0,412.5" stroke="black" stroke-width="2" fill="none" />
<polyline points="249.5,404.0,255.5,411.5,257.0,419.5,256.5,427.0" stroke="black" stroke-width="2" fill="none" />
<polyline points="246.5,428.0,243.5,420.0,246.0,412.0,249.0,404.5" stroke="black" stroke-width="2" fill="none" />
<polyline points="252.0,228.0,260.0,221.0" stroke="black" stroke-width="2" fill="none" />
<polyline points="259.5,225.0,251.5,225.5" stroke="black" stroke-width="2" fill="none" />
<polyline points="251.5,220.0,259.0,220.0" stroke="black" stroke-width="2" fill="none" />
<polyline points="251.5,218.5,259.5,211.5" stroke="black" stroke-width="2" fill="none" />
<polyline points="260.0,202.0,252.0,209.5,244.0,217.5" stroke="black" stroke-width="2" fill="none" />
<polyline points="249.5,217.0,257.5,217.0" stroke="black" stroke-width="2" fill="none" />
<polyline points="258.5,211.5,250.5,211.0,242.5,212.0" stroke="black" stroke-width="2" fill="none" />
<polyline points="243.0,210.0,251.0,202.5" stroke="black" stroke-width="2" fill="none" />
<polyline points="245.0,201.0,254.5,209.5,258.0,217.5,255.0,226.0" stroke="black" stroke-width="2" fill="none" />
<polyline points="259.0,207.5,250.0,207.5,241.5,208.0" stroke="black" stroke-width="2" fill="none" />
<polyline points="235.5,205.0,243.5,204.0,251.5,203.0,260.0,202.5" stroke="black" stroke-width="2" fill="none" />
<polyline points="243.0,194.5,234.5,201.5" stroke="black" stroke-width="2" fill="none" />
<polyline points="233.0,203.5,241.0,210.5" stroke="black" stroke-width="2" fill="none" />
<polyline points="232.0,201.0,240.0,200.5,248.0,202.5,256.0,210.0" stroke="black" stroke-width="2" fill="none" />
<polyline points="245.5,196.0,238.0,196.5" stroke="black" stroke-width="2" fill="none" />
<polyline points="232.0,200.0,237.0,208.0,243.0,216.0,246.0,224.0,249.0,227.0" stroke="black" stroke-width="2" fill="none" />
<polyline points="299.5,162.0,308.0,154.5" stroke="black" stroke-width="2" fill="none" />
<polyline points="314.0,157.0,306.0,164.5" stroke="black" stroke-width="2" fill="none" />
<polyline points="308.0,167.0,316.0,166.5,323.5,166.0,331.5,165.5,339.5,165.0,348.5,164.5,356.0,163.5,364.5,162.5,373.0,161.5" stroke="black" stroke-width="2" fill="none" />
<polyline points="349.5,132.5,341.5,133.5,333.5,134.5,325.5,135.0" stroke="black" stroke-width="2" fill="none" />
<polyline points="324.0,131.0,332.0,123.5,340.0,115.5" stroke="black" stroke-width="2" fill="none" />
<polyline points="340.0,110.0,332.5,117.5,324.5,124.5" stroke="black" stroke-width="2" fill="none" />
<polyline points="325.5,127.5,333.5,126.5,340.5,126.0,348.5,125.5" stroke="black" stroke-width="2" fill="none" />
<polyline points="342.0,129.0,334.0,129.0,326.0,129.0" stroke="black" stroke-width="2" fill="none" />
<polyline points="323.0,121.5,331.0,121.5,340.0,121.5" stroke="black" stroke-width="2" fill="none" />
<polyline points="325.5,115.5,334.0,108.0,342.0,100.0" stroke="black" stroke-width="2" fill="none" />
<polyline points="342.5,100.0,350.5,108.0,358.5,112.5,366.0,114.5,374.0,114.5,381.5,114.5,389.5,112.5,397.5,109.5,406.0,106.5,414.0,102.5,422.0,97.5,430.0,92.5,438.0,87.5,445.5,82.5,453.5,77.5,462.0,74.0,470.0,70.0" stroke="black" stroke-width="2" fill="none" />
<polyline points="427.0,51.5,419.0,59.0,410.5,66.0" stroke="black" stroke-width="2" fill="none" />
<polyline points="403.5,68.5,411.5,61.0,419.5,53.0" stroke="black" stroke-width="2" fill="none" />
<polyline points="413.0,51.5,405.0,59.0,396.5,66.0" stroke="black" stroke-width="2" fill="none" />
<polyline points="396.5,65.5,404.5,64.5,412.0,64.5,419.5,64.0,427.0,64.0,435.0,64.0,442.5,64.0,450.0,64.0,458.0,64.0,465.5,63.5,473.0,63.5" stroke="black" stroke-width="2" fill="none" />
<polyline points="404.5,51.5,396.5,58.5" stroke="black" stroke-width="2" fill="none" />
<polyline points="396.5,52.0,389.0,59.5" stroke="black" stroke-width="2" fill="none" />
<polyline points="387.0,62.5,395.0,62.0,402.5,62.0,410.5,61.5,418.5,60.5,426.5,59.5,435.0,59.0,443.5,58.5,451.5,57.5,459.5,56.5,467.5,55.5,475.5,54.5" stroke="black" stroke-width="2" fill="none" />
<polyline points="443.5,48.5,436.0,48.5,427.5,49.0,419.5,49.5,411.0,50.5,403.0,51.0,395.0,51.5,387.0,52.0,379.0,51.5,371.0,51.5,363.5,51.5,355.5,52.0,347.5,52.5" stroke="black" stroke-width="2" fill="none" />
<polyline points="343.5,58.0,352.0,58.0,360.5,58.0,368.5,58.0,376.5,58.0,385.0,59.0,393.0,60.5,401.0,61.5,406.5,64.0,414.5,64.5,422.5,65.5,425.5,67.5,433.5,67.0,441.0,67.0" stroke="black" stroke-width="2" fill="none" />
<polyline points="471.5,59.5,463.5,56.5,455.0,55.5,447.0,54.5,443.5,52.0,435.0,51.0,427.0,51.5,419.0,51.0,410.5,50.5,402.5,50.5,395.0,50.5" stroke="black" stroke-width="2" fill="none" />
<polyline points="386.0,51.5,378.0,59.0" stroke="black" stroke-width="2" fill="none" />
<polyline points="362.0,51.5,354.0,59.0" stroke="black" stroke-width="2" fill="none" />
<polyline points="360.5,56.5,352.5,57.0,344.5,56.5,336.5,58.5" stroke="black" stroke-width="2" fill="none" />
<polyline points="332.5,58.5,340.5,56.0,348.5,55.0,356.0,51.5,364.0,50.5,371.5,49.0,379.5,47.5,387.0,46.5,395.0,48.0,403.0,48.0" stroke="black" stroke-width="2" fill="none" />
<polyline points="339.5,83.5,331.0,91.0,323.0,98.5" stroke="black" stroke-width="2" fill="none" />
<polyline points="322.5,96.0,330.5,95.5,339.5,95.0" stroke="black" stroke-width="2" fill="none" />
<polyline points="340.0,95.0,340.5,98.0,348.5,106.0,362.5,114.0,375.5,116.0" stroke="black" stroke-width="2" fill="none" />
<polyline points="338.5,117.5,330.5,117.5,323.0,118.5" stroke="black" stroke-width="2" fill="none" />
<polyline points="324.0,113.0,324.0,121.0,324.0,129.0,324.0,137.0,324.5,144.5,328.0,152.5,330.5,160.5" stroke="black" stroke-width="2" fill="none" />
<polyline points="317.0,162.0,309.0,162.5,301.0,163.0" stroke="black" stroke-width="2" fill="none" />
<polyline points="298.5,158.5,306.5,158.0,315.0,158.5" stroke="black" stroke-width="2" fill="none" />
<polyline points="299.5,146.0,291.5,153.5" stroke="black" stroke-width="2" fill="none" />
<polyline points="291.5,155.0,299.5,154.5" stroke="black" stroke-width="2" fill="none" />
<polyline points="299.0,149.5,291.0,150.5" stroke="black" stroke-width="2" fill="none" />
<polyline points="283.5,141.5,275.5,148.5" stroke="black" stroke-width="2" fill="none" />
<polyline points="277.0,140.0,285.5,139.5" stroke="black" stroke-width="2" fill="none" />
<polyline points="269.0,131.0,276.0,140.5,283.0,147.5,291.0,155.0,299.0,161.0,307.0,166.0,315.5,170.0,324.0,173.0,332.0,175.0,340.5,176.0,348.5,176.0,356.5,173.0,364.5,171.5" stroke="black" stroke-width="2" fill="none" />
<polyline points="340.5,112.0,332.5,112.5,324.5,113.0" stroke="black" stroke-width="2" fill="none" />
<polyline points="324.5,108.0,333.0,107.5,341.0,107.0" stroke="black" stroke-width="2" fill="none" />
<polyline points="339.5,104.0,332.0,104.0,325.0,105.0" stroke="black" stroke-width="2" fill="none" />
<polyline points="325.0,105.5,332.5,97.5,340.5,89.5" stroke="black" stroke-width="2" fill="none" />
<polyline points="340.5,92.0,332.5,93.0,325.0,93.5" stroke="black" stroke-width="2" fill="none" />
<polyline points="325.5,90.5,333.5,82.5" stroke="black" stroke-width="2" fill="none" />
<polyline points="332.5,76.0,324.5,83.5" stroke="black" stroke-width="2" fill="none" />
<polyline points="324.5,81.5,333.0,81.0" stroke="black" stroke-width="2" fill="none" />
<polyline points="339.5,85.0,331.5,85.0,323.5,85.5" stroke="black" stroke-width="2" fill="none" />
<polyline points="325.0,89.0,332.5,88.5,340.5,88.5" stroke="black" stroke-width="2" fill="none" />
<polyline points="341.0,97.0,349.0,100.0,357.0,106.5,365.0,108.5,373.0,108.5,380.5,107.5,389.0,103.5,397.5,98.5,405.5,94.0,413.0,88.0,421.0,83.5,429.0,77.0,437.0,72.0,436.0,71.5,422.5,79.5,412.5,87.0,401.5,95.0,386.5,103.0" stroke="black" stroke-width="2" fill="none" />
<polyline points="353.5,105.5,342.5,97.5" stroke="black" stroke-width="2" fill="none" />
<polyline points="339.0,101.5,331.5,102.0,324.0,102.5" stroke="black" stroke-width="2" fill="none" />
<polyline points="324.0,78.5,332.5,78.0" stroke="black" stroke-width="2" fill="none" />
<polyline points="324.0,75.5,332.0,68.5" stroke="black" stroke-width="2" fill="none" />
<polyline points="332.5,73.0,324.5,73.5" stroke="black" stroke-width="2" fill="none" />
<polyline points="332.0,68.5,324.0,69.0,316.0,69.5" stroke="black" stroke-width="2" fill="none" />
<polyline points="317.5,67.0,325.0,59.5" stroke="black" stroke-width="2" fill="none" />
<polyline points="323.5,64.5,316.0,65.5,308.5,66.0" stroke="black" stroke-width="2" fill="none" />
<polyline points="309.5,63.5,317.0,62.5,324.5,61.5" stroke="black" stroke-width="2" fill="none" />
<polyline points="324.5,65.0,316.5,58.0,308.5,56.0,300.0,54.5,292.5,54.5" stroke="black" stroke-width="2" fill="none" />
<polyline points="299.5,54.5,307.5,54.5" stroke="black" stroke-width="2" fill="none" />
<polyline points="306.0,61.0,316.5,69.0,320.5,77.0,321.0,85.0,322.0,92.5,321.5,100.0,321.0,108.5,322.0,117.0,321.5,125.0" stroke="black" stroke-width="2" fill="none" />
<polyline points="329.0,163.0,321.0,161.5,312.5,158.0,304.5,155.0,296.5,151.0,288.5,145.5,280.5,138.5,272.5,129.5,265.0,119.5" stroke="black" stroke-width="2" fill="none" />
<polyline points="265.5,120.5,268.5,128.5,275.5,135.5,281.5,141.5,293.5,149.5" stroke="black" stroke-width="2" fill="none" />
<polyline points="306.5,168.5,295.5,160.5,284.0,152.5,277.0,144.5,271.0,136.5,266.0,128.5,263.5,120.5" stroke="black" stroke-width="2" fill="none" />
<polyline points="237.0,123.0,235.0,131.0,230.0,138.0,224.0,146.0,210.5,154.0" stroke="black" stroke-width="2" fill="none" />
<polyline points="212.0,153.5,219.5,146.0,227.0,138.5,235.0,130.5" stroke="black" stroke-width="2" fill="none" />
<polyline points="234.5,136.5,226.5,137.0" stroke="black" stroke-width="2" fill="none" />
<polyline points="227.0,133.5,235.0,133.5" stroke="black" stroke-width="2" fill="none" />
<polyline points="228.0,142.0,220.0,143.0" stroke="black" stroke-width="2" fill="none" />
<polyline points="216.5,147.5,225.0,147.0" stroke="black" stroke-width="2" fill="none" />
<polyline points="211.0,145.5,203.0,153.0" stroke="black" stroke-width="2" fill="none" />
<polyline points="203.5,151.5,212.0,151.5" stroke="black" stroke-width="2" fill="none" />
<polyline points="204.5,147.0,197.0,154.5,188.5,162.0" stroke="black" stroke-width="2" fill="none" />
<polyline points="189.5,155.0,181.5,163.0" stroke="black" stroke-width="2" fill="none" />
<polyline points="180.0,156.5,171.5,164.0" stroke="black" stroke-width="2" fill="none" />
<polyline points="164.0,163.5,172.0,156.5,180.0,149.0" stroke="black" stroke-width="2" fill="none" />
<polyline points="170.5,148.5,162.5,156.0" stroke="black" stroke-width="2" fill="none" />
<polyline points="164.5,161.0,173.0,160.5,181.0,160.0,189.0,159.0,197.0,158.5" stroke="black" stroke-width="2" fill="none" />
<polyline points="165.0,145.5,157.0,153.0" stroke="black" stroke-width="2" fill="none" />
<polyline points="156.5,156.0,164.5,155.5,173.0,155.5,181.0,155.0,189.0,154.0,197.0,153.5,205.0,152.5" stroke="black" stroke-width="2" fill="none" />
<polyline points="170.5,151.0,163.0,152.0,155.5,152.0,148.5,152.5,141.0,153.5,133.0,154.5,125.0,155.0" stroke="black" stroke-width="2" fill="none" />
<polyline points="130.0,153.0,138.0,146.0" stroke="black" stroke-width="2" fill="none" />
<polyline points="132.5,145.0,124.5,152.5" stroke="black" stroke-width="2" fill="none" />
<polyline points="124.0,147.0,116.0,154.5" stroke="black" stroke-width="2" fill="none" />
<polyline points="117.0,147.0,125.0,147.0,132.5,147.0,140.5,146.5,149.0,146.5,157.5,146.0,165.0,145.5,173.0,145.0,181.0,144.0,189.0,143.5,197.5,143.5,205.5,143.0,213.0,142.5,220.0,142.0" stroke="black" stroke-width="2" fill="none" />
<polyline points="234.0,120.5,226.0,137.0,218.0,144.0,209.5,148.0,201.5,151.0,193.5,152.0,185.5,152.0,177.5,151.5,170.0,152.0,162.0,151.0,158.0,148.5,150.0,147.5,142.0,146.0,134.0,144.5,130.0,142.5,122.0,140.0,114.0,139.0" stroke="black" stroke-width="2" fill="none" />
<polyline points="108.5,142.5,116.0,135.0,123.5,128.0,131.0,120.5,139.0,113.5,146.5,106.5,154.5,99.5,162.0,92.5,170.0,84.5" stroke="black" stroke-width="2" fill="none" />
<polyline points="166.0,86.0,173.5,85.5,181.0,84.5,188.5,83.5" stroke="black" stroke-width="2" fill="none" />
<polyline points="188.0,76.0,180.0,83.5,172.0,90.5,164.5,98.0,156.5,105.0,149.0,112.5,140.5,119.5" stroke="black" stroke-width="2" fill="none" />
<polyline points="140.5,106.5,148.5,106.0,156.5,105.0,164.5,104.5" stroke="black" stroke-width="2" fill="none" />
<polyline points="172.0,96.5,164.0,97.0,155.5,97.5" stroke="black" stroke-width="2" fill="none" />
<polyline points="157.0,92.5,165.0,92.0,172.5,91.5" stroke="black" stroke-width="2" fill="none" />
<polyline points="165.5,89.0,174.0,88.5,181.5,87.5,189.0,87.5" stroke="black" stroke-width="2" fill="none" />
<polyline points="180.5,90.0,188.5,82.0,196.5,74.0,204.5,67.0" stroke="black" stroke-width="2" fill="none" />
<polyline points="210.0,66.5,202.5,74.0" stroke="black" stroke-width="2" fill="none" />
<polyline points="197.0,72.5,205.0,72.0,213.0,71.5,220.5,70.5" stroke="black" stroke-width="2" fill="none" />
<polyline points="220.0,65.5,211.5,73.0" stroke="black" stroke-width="2" fill="none" />
<polyline points="197.5,68.0,205.5,68.0,212.5,67.5,219.5,67.5,227.0,67.0,234.5,67.0" stroke="black" stroke-width="2" fill="none" />
<polyline points="258.0,62.5,266.0,60.5,274.0,57.5,282.0,55.0,290.5,54.5,298.5,52.5" stroke="black" stroke-width="2" fill="none" />
<polyline points="305.5,67.0,313.5,58.5" stroke="black" stroke-width="2" fill="none" />
<polyline points="316.0,56.5,325.0,64.5,330.0,72.5,332.0,81.0,335.5,89.0,335.5,97.5,336.5,105.5,337.5,114.0,340.5,121.0,341.5,129.0,346.0,137.0,349.5,145.0,353.5,153.0,360.0,160.5,365.0,168.5" stroke="black" stroke-width="2" fill="none" />
<polyline points="269.0,69.0,277.0,61.5" stroke="black" stroke-width="2" fill="none" />
<polyline points="276.5,66.0,268.5,66.5" stroke="black" stroke-width="2" fill="none" />
<polyline points="267.5,63.0,275.5,62.5,283.5,61.5" stroke="black" stroke-width="2" fill="none" />
<polyline points="263.0,63.5,271.0,61.5,279.0,60.5,287.0,59.5,295.0,58.5,302.5,60.0,311.0,62.0,319.5,72.0" stroke="black" stroke-width="2" fill="none" />
<polyline points="322.0,19.0,329.5,11.0,337.5,3.5" stroke="black" stroke-width="2" fill="none" />
<polyline points="330.0,4.0,322.0,11.5,314.0,18.5" stroke="black" stroke-width="2" fill="none" />
<polyline points="308.0,17.5,315.5,10.0,324.0,3.0" stroke="black" stroke-width="2" fill="none" />
<polyline points="315.0,2.5,307.0,10.0,298.5,17.5" stroke="black" stroke-width="2" fill="none" />
<polyline points="292.0,18.5,300.0,11.0,308.0,3.0" stroke="black" stroke-width="2" fill="none" />
<polyline points="300.5,11.0,308.5,11.0,317.0,10.5,325.0,10.0,333.5,8.5,341.5,7.5,349.5,7.5,357.5,7.0,365.5,7.0,373.5,6.5,381.5,6.0,389.5,5.5" stroke="black" stroke-width="2" fill="none" />
<polyline points="292.5,13.0,284.5,20.0,276.5,27.5" stroke="black" stroke-width="2" fill="none" />
<polyline points="282.5,24.0,274.5,24.5,267.0,25.0" stroke="black" stroke-width="2" fill="none" />
<polyline points="266.0,20.5,274.0,20.5,282.5,20.5" stroke="black" stroke-width="2" fill="none" />
<polyline points="281.5,20.5,268.5,28.0,261.0,36.5,258.0,44.0" stroke="black" stroke-width="2" fill="none" />
<polyline points="260.5,35.0,268.5,27.5,276.5,20.0,285.0,12.0" stroke="black" stroke-width="2" fill="none" />
<polyline points="290.5,6.0,299.0,5.5,308.0,5.0,316.5,4.5,324.5,3.5,332.0,3.0,340.0,3.0,348.5,2.5,356.0,1.5,363.5,1.0,371.0,0.5,379.0,0.5,388.0,0.5,396.5,0.5" stroke="black" stroke-width="2" fill="none" />
<polyline points="387.0,10.5,379.0,10.5,371.5,11.0,364.0,11.0,357.0,12.0,348.5,12.5,340.0,12.5,331.5,12.5,324.0,13.5,316.5,14.0,308.5,14.5,301.0,15.0,293.0,15.5,285.5,15.5,277.5,16.5" stroke="black" stroke-width="2" fill="none" />
<polyline points="277.0,16.0,285.0,15.0,292.5,13.5,300.0,12.5,308.0,12.0,315.5,11.5,323.5,10.5,332.0,9.5,340.0,9.5,347.5,10.0,356.0,9.5,363.5,9.0,371.0,8.5,378.5,7.5,386.0,7.0,394.0,6.5" stroke="black" stroke-width="2" fill="none" />
<polyline points="268.5,32.0,260.5,32.5" stroke="black" stroke-width="2" fill="none" />
<polyline points="261.5,30.5,269.5,30.0" stroke="black" stroke-width="2" fill="none" />
<polyline points="256.5,32.0,264.5,20.0,273.0,13.0,281.0,9.5,289.5,6.0,297.5,5.0,306.0,3.5,314.0,3.0" stroke="black" stroke-width="2" fill="none" />
<polyline points="234.5,25.5,226.5,33.5" stroke="black" stroke-width="2" fill="none" />
<polyline points="226.0,35.0,234.0,36.5" stroke="black" stroke-width="2" fill="none" />
<polyline points="235.0,35.5,243.5,35.5" stroke="black" stroke-width="2" fill="none" />
<polyline points="227.5,25.5,219.5,33.0" stroke="black" stroke-width="2" fill="none" />
<polyline points="220.5,35.0,228.5,34.0,236.5,33.5" stroke="black" stroke-width="2" fill="none" />
<polyline points="236.5,29.0,228.5,28.5,220.5,28.5" stroke="black" stroke-width="2" fill="none" />
<polyline points="217.5,22.5,233.5,30.5,243.5,39.0,248.5,45.5" stroke="black" stroke-width="2" fill="none" />
<polyline points="210.5,18.5,202.5,26.5" stroke="black" stroke-width="2" fill="none" />
<polyline points="203.0,20.0,195.5,27.5" stroke="black" stroke-width="2" fill="none" />
<polyline points="193.5,21.5,185.5,28.5" stroke="black" stroke-width="2" fill="none" />
<polyline points="179.5,28.5,188.0,21.0" stroke="black" stroke-width="2" fill="none" />
<polyline points="179.5,20.0,172.0,27.0,163.5,34.0" stroke="black" stroke-width="2" fill="none" />
<polyline points="156.5,28.0,148.5,36.0" stroke="black" stroke-width="2" fill="none" />
<polyline points="154.0,35.5,162.0,29.0,170.5,22.0" stroke="black" stroke-width="2" fill="none" />
<polyline points="166.5,22.5,174.0,22.0,181.5,21.5,189.0,21.0,197.0,20.5,204.0,20.0,211.5,19.5" stroke="black" stroke-width="2" fill="none" />
<polyline points="210.5,23.5,203.0,24.0,196.0,24.5,188.5,25.0,181.0,26.0,173.0,26.5" stroke="black" stroke-width="2" fill="none" />
<polyline points="147.0,28.0,139.0,35.5,131.5,43.0" stroke="black" stroke-width="2" fill="none" />
<polyline points="121.5,42.5,129.5,35.5,137.5,28.5" stroke="black" stroke-width="2" fill="none" />
<polyline points="130.0,26.5,122.0,33.5,114.0,41.0" stroke="black" stroke-width="2" fill="none" />
<polyline points="118.0,34.0,126.0,33.5,134.0,32.5,141.5,31.5,149.0,31.0,157.0,30.5,165.0,30.0,173.5,29.0" stroke="black" stroke-width="2" fill="none" />
<polyline points="165.5,68.5,157.5,75.5,149.0,82.5" stroke="black" stroke-width="2" fill="none" />
<polyline points="147.0,80.5,155.0,80.5,163.5,80.0" stroke="black" stroke-width="2" fill="none" />
<polyline points="157.5,81.0,165.0,73.5" stroke="black" stroke-width="2" fill="none" />
<polyline points="165.0,72.0,173.0,72.0,181.0,73.0" stroke="black" stroke-width="2" fill="none" />
<polyline points="179.5,76.0,187.5,76.0,196.0,76.5" stroke="black" stroke-width="2" fill="none" />
<polyline points="195.5,78.0,183.5,85.5,173.5,92.0,165.0,100.0,155.0,108.0,147.5,116.0,136.5,124.0,122.5,132.0,112.5,139.5,120.5,135.0,128.5,131.5,136.0,125.5,144.5,119.5,152.5,112.5,161.0,105.0,169.0,98.0,176.5,90.0,183.5,87.0,191.5,80.0,199.0,77.5,207.0,73.5,215.0,73.0,223.0,72.0,231.5,72.5" stroke="black" stroke-width="2" fill="none" />
<polyline points="195.0,81.0,187.5,81.0,179.5,82.0" stroke="black" stroke-width="2" fill="none" />
<polyline points="179.0,78.0,171.5,80.5,163.0,85.0,155.0,90.0,147.0,94.5,139.0,101.5,131.5,107.0,123.5,112.0,115.5,117.0,109.0,120.0,101.0,124.0,92.5,128.5,84.5,130.5,76.0,131.5,68.5,133.5" stroke="black" stroke-width="2" fill="none" />
<polyline points="71.5,131.0,71.0,139.0,75.0,140.0,83.0,142.0,90.5,146.5,98.5,147.5,103.0,149.5,111.0,152.0,119.0,153.0,122.0,155.5,130.0,155.5,138.0,156.5,146.0,158.5,154.0,158.5,157.0,161.0,165.5,162.0,173.5,162.0,181.5,162.0,189.0,162.0,197.0,158.5,204.5,156.5,213.0,153.5,221.5,147.5,229.5,138.5" stroke="black" stroke-width="2" fill="none" />
<polyline points="219.0,142.0,228.0,134.0,233.0,126.5,236.0,118.5" stroke="black" stroke-width="2" fill="none" />
<polyline points="187.5,69.0,179.5,69.5" stroke="black" stroke-width="2" fill="none" />
<polyline points="177.0,77.5,162.0,85.5,149.0,93.5,138.0,101.5,125.5,109.5,112.5,117.5,97.5,125.0" stroke="black" stroke-width="2" fill="none" />
<polyline points="100.0,125.0,108.5,125.0,116.0,124.5,124.0,124.5,132.0,124.0,140.0,123.5" stroke="black" stroke-width="2" fill="none" />
<polyline points="124.5,115.5,132.0,115.0,140.0,114.0,148.0,113.5,156.5,112.0" stroke="black" stroke-width="2" fill="none" />
<polyline points="148.0,100.5,139.5,107.5,131.5,115.0,123.5,122.0,115.5,129.5,107.0,137.0,99.0,145.0" stroke="black" stroke-width="2" fill="none" />
<polyline points="91.5,145.0,100.0,137.0,108.0,129.5,116.5,121.5,124.5,114.5,132.5,107.0" stroke="black" stroke-width="2" fill="none" />
<polyline points="124.5,110.0,132.5,109.5,140.0,109.5,147.5,109.0,155.5,108.5" stroke="black" stroke-width="2" fill="none" />
<polyline points="165.5,100.5,157.5,100.5,149.5,100.5,141.5,101.0" stroke="black" stroke-width="2" fill="none" />
<polyline points="138.5,85.0,146.0,77.5,154.0,69.5" stroke="black" stroke-width="2" fill="none" />
<polyline points="147.5,68.5,139.0,76.0" stroke="black" stroke-width="2" fill="none" />
<polyline points="141.5,78.0,149.5,77.0,157.5,76.5,165.0,76.0,172.5,75.5" stroke="black" stroke-width="2" fill="none" />
<polyline points="137.0,66.0,129.5,73.5" stroke="black" stroke-width="2" fill="none" />
<polyline points="124.5,73.5,132.0,65.5" stroke="black" stroke-width="2" fill="none" />
<polyline points="131.5,60.0,123.5,67.5" stroke="black" stroke-width="2" fill="none" />
<polyline points="124.5,69.0,132.5,68.5,140.5,68.0,148.5,67.5,156.0,66.5,163.5,66.0,171.5,66.0" stroke="black" stroke-width="2" fill="none" />
<polyline points="125.5,59.5,117.5,67.0" stroke="black" stroke-width="2" fill="none" />
<polyline points="109.5,65.5,117.5,59.0,126.0,52.0" stroke="black" stroke-width="2" fill="none" />
<polyline points="117.0,51.0,109.0,58.0,101.0,65.5" stroke="black" stroke-width="2" fill="none" />
<polyline points="99.0,67.0,107.5,66.5,115.5,65.5,123.5,64.5,132.0,64.0" stroke="black" stroke-width="2" fill="none" />
<polyline points="124.0,74.0,132.0,73.5,139.5,72.5,148.0,72.0,156.5,71.0,165.0,70.5" stroke="black" stroke-width="2" fill="none" />
<polyline points="148.5,117.5,139.5,118.5,131.0,119.5,123.0,120.5,115.5,120.5" stroke="black" stroke-width="2" fill="none" />
<polyline points="116.5,117.0,124.5,116.5,133.5,116.0,141.5,115.5,149.5,115.5" stroke="black" stroke-width="2" fill="none" />
<polyline points="147.5,146.0,140.0,154.0" stroke="black" stroke-width="2" fill="none" />
<polyline points="148.5,155.0,156.5,147.5" stroke="black" stroke-width="2" fill="none" />
<polyline points="122.5,138.5,114.5,146.0" stroke="black" stroke-width="2" fill="none" />
<polyline points="100.5,129.5,109.0,129.0,117.0,128.5,125.0,127.5,133.5,126.5" stroke="black" stroke-width="2" fill="none" />
<polyline points="107.5,125.5,100.0,133.5,92.0,141.0,84.5,148.5" stroke="black" stroke-width="2" fill="none" />
<polyline points="75.0,148.0,83.0,140.5,91.0,133.0" stroke="black" stroke-width="2" fill="none" />
<polyline points="84.5,132.5,76.5,140.0" stroke="black" stroke-width="2" fill="none" />
<polyline points="74.5,141.5,82.5,141.0,90.0,140.0,98.5,139.5,106.5,138.5,115.0,138.0,123.0,137.5" stroke="black" stroke-width="2" fill="none" />
<polyline points="117.5,101.0,110.0,102.0" stroke="black" stroke-width="2" fill="none" />
<polyline points="109.0,102.0,101.0,105.0,94.0,109.0,87.0,113.0,79.0,118.0,72.0,124.0,64.0,131.0,56.5,137.0,48.5,147.0,40.5,157.0,32.5,168.0" stroke="black" stroke-width="2" fill="none" />
<polyline points="30.0,166.5,38.0,166.0" stroke="black" stroke-width="2" fill="none" />
<polyline points="34.5,171.0,26.0,171.5" stroke="black" stroke-width="2" fill="none" />
<polyline points="27.0,173.0,19.5,174.0" stroke="black" stroke-width="2" fill="none" />
<polyline points="20.0,179.0,28.0,171.5,36.0,164.5,44.0,157.0" stroke="black" stroke-width="2" fill="none" />
<polyline points="43.5,154.0,35.5,154.0" stroke="black" stroke-width="2" fill="none" />
<polyline points="35.0,152.0,43.0,151.5" stroke="black" stroke-width="2" fill="none" />
<polyline points="43.5,146.0,51.5,145.5" stroke="black" stroke-width="2" fill="none" />
<polyline points="59.0,141.5,50.5,142.5,42.5,143.0" stroke="black" stroke-width="2" fill="none" />
<polyline points="50.5,136.0,58.5,135.5" stroke="black" stroke-width="2" fill="none" />
<polyline points="57.0,133.0,49.5,140.5,42.0,148.0,34.5,155.5,27.0,163.0" stroke="black" stroke-width="2" fill="none" />
<polyline points="28.0,162.0,35.5,161.5" stroke="black" stroke-width="2" fill="none" />
<polyline points="28.0,156.0,36.5,155.5,44.0,155.0" stroke="black" stroke-width="2" fill="none" />
<polyline points="50.5,134.0,58.0,133.5,66.5,133.5,74.5,133.5,82.5,132.5,90.5,132.0,99.0,131.5,107.0,131.0,115.5,131.0,124.5,130.5" stroke="black" stroke-width="2" fill="none" />
<polyline points="123.5,143.0,115.5,144.5,107.0,145.0,98.5,146.0,90.5,146.5,82.5,146.5,75.0,146.5" stroke="black" stroke-width="2" fill="none" />
<polyline points="74.5,136.5,82.5,136.0,90.5,134.5,98.5,133.5,107.0,133.5,115.0,133.0,123.5,132.5" stroke="black" stroke-width="2" fill="none" />
<polyline points="93.0,109.5,85.0,117.0" stroke="black" stroke-width="2" fill="none" />
<polyline points="84.5,111.5,92.5,111.0" stroke="black" stroke-width="2" fill="none" />
<polyline points="90.0,110.5,79.0,117.5,70.5,125.5,60.0,133.5,52.5,142.0,45.0,150.0,39.0,158.0,34.0,166.0,29.0,174.5,26.0,182.5,23.0,190.5,20.0,199.0,18.0,206.5,16.0,214.0,14.5,221.5,13.5,228.5,13.5,236.5,14.0,244.5,14.0,252.5,15.0,260.5,16.5,268.5,16.5,276.5,19.5,281.0,20.5,288.5,23.5,292.5,25.0,301.0,27.0,309.0,31.5,317.0,34.5,324.5,37.5,332.5,43.0,340.5,46.5,347.5,51.5,355.5,57.5,364.0,63.5,372.0,68.5,380.5,74.0,387.5,80.0,395.5,86.0,403.5,94.0,411.5,99.0,419.5,105.0,427.5,110.5,435.5,116.5,443.5,122.0,451.5,127.5,459.5,132.5,467.0,139.5,475.0,145.5,482.5,152.0,490.5,158.0,498.5,166.5,506.5,173.5,514.5,180.5,523.0,190.5,531.0,201.0,539.5,215.0,547.5" stroke="black" stroke-width="2" fill="none" />
<polyline points="36.0,321.0,27.5,321.0,20.0,322.0" stroke="black" stroke-width="2" fill="none" />
<polyline points="18.0,321.5,26.0,314.0" stroke="black" stroke-width="2" fill="none" />
<polyline points="26.0,308.5,18.0,315.5" stroke="black" stroke-width="2" fill="none" />
<polyline points="20.5,317.0,28.0,316.0,36.0,316.0" stroke="black" stroke-width="2" fill="none" />
<polyline points="28.0,311.5,19.5,312.0" stroke="black" stroke-width="2" fill="none" />
<polyline points="11.5,307.5,19.0,300.5,27.0,293.0" stroke="black" stroke-width="2" fill="none" />
<polyline points="26.5,300.5,18.0,307.5,10.0,315.5" stroke="black" stroke-width="2" fill="none" />
<polyline points="10.0,310.0,18.5,309.5,27.5,309.0" stroke="black" stroke-width="2" fill="none" />
<polyline points="27.5,305.0,19.5,305.5,12.0,306.0" stroke="black" stroke-width="2" fill="none" />
<polyline points="11.0,301.5,19.0,301.0,27.5,300.5" stroke="black" stroke-width="2" fill="none" />
<polyline points="18.5,293.5,10.5,301.0" stroke="black" stroke-width="2" fill="none" />
<polyline points="12.0,297.5,19.5,297.5,27.0,297.5" stroke="black" stroke-width="2" fill="none" />
<polyline points="19.5,284.0,11.5,291.5" stroke="black" stroke-width="2" fill="none" />
<polyline points="12.0,289.5,20.0,289.0" stroke="black" stroke-width="2" fill="none" />
<polyline points="12.0,284.0,19.5,276.5" stroke="black" stroke-width="2" fill="none" />
<polyline points="20.5,267.0,12.5,274.5,4.5,282.5" stroke="black" stroke-width="2" fill="none" />
<polyline points="2.0,284.0,10.0,283.5,17.5,283.0" stroke="black" stroke-width="2" fill="none" />
<polyline points="26.0,293.5,17.5,294.0,9.5,294.5" stroke="black" stroke-width="2" fill="none" />
<polyline points="3.0,286.0,11.0,285.5,18.5,285.0,26.5,284.5" stroke="black" stroke-width="2" fill="none" />
<polyline points="4.5,274.0,12.0,266.5,20.0,259.5" stroke="black" stroke-width="2" fill="none" />
<polyline points="18.0,252.0,10.5,259.5,2.5,267.0" stroke="black" stroke-width="2" fill="none" />
<polyline points="4.5,266.5,12.5,265.5,20.0,265.5" stroke="black" stroke-width="2" fill="none" />
<polyline points="19.0,276.5,11.5,277.5,3.0,278.0" stroke="black" stroke-width="2" fill="none" />
<polyline points="3.5,273.5,11.5,273.0,19.5,272.5" stroke="black" stroke-width="2" fill="none" />
<polyline points="20.5,269.0,12.0,269.5,4.0,270.0" stroke="black" stroke-width="2" fill="none" />
<polyline points="3.5,261.0,11.5,260.5,19.5,260.0" stroke="black" stroke-width="2" fill="none" />
<polyline points="17.0,256.0,9.0,256.0,1.0,256.0" stroke="black" stroke-width="2" fill="none" />
<polyline points="3.0,258.5,11.0,250.5,19.0,242.5" stroke="black" stroke-width="2" fill="none" />
<polyline points="18.5,237.0,11.5,244.5,4.0,251.5" stroke="black" stroke-width="2" fill="none" />
<polyline points="2.5,253.0,10.5,252.0,18.5,251.0" stroke="black" stroke-width="2" fill="none" />
<polyline points="20.5,248.0,12.5,248.5,4.5,248.5" stroke="black" stroke-width="2" fill="none" />
<polyline points="4.5,245.5,12.5,245.0,20.0,244.5" stroke="black" stroke-width="2" fill="none" />
<polyline points="22.0,240.5,14.0,240.5,6.0,241.0" stroke="black" stroke-width="2" fill="none" />
<polyline points="4.0,243.5,12.0,236.5,19.5,229.0" stroke="black" stroke-width="2" fill="none" />
<polyline points="19.5,221.0,11.0,228.5,3.0,235.5" stroke="black" stroke-width="2" fill="none" />
<polyline points="3.5,236.5,11.5,236.0,19.5,236.0" stroke="black" stroke-width="2" fill="none" />
<polyline points="18.0,232.0,10.0,232.5,1.5,233.0" stroke="black" stroke-width="2" fill="none" />
<polyline points="3.0,229.5,11.5,229.0,20.0,228.0" stroke="black" stroke-width="2" fill="none" />
<polyline points="21.0,218.0,13.0,219.0" stroke="black" stroke-width="2" fill="none" />
<polyline points="17.5,213.0,9.5,220.5,1.0,228.0" stroke="black" stroke-width="2" fill="none" />
<polyline points="4.0,226.0,12.0,226.0,20.0,224.5" stroke="black" stroke-width="2" fill="none" />
<polyline points="18.5,209.5,10.0,209.5" stroke="black" stroke-width="2" fill="none" />
<polyline points="11.0,211.0,19.0,203.5" stroke="black" stroke-width="2" fill="none" />
<polyline points="12.5,202.0,20.0,194.5,28.0,186.5" stroke="black" stroke-width="2" fill="none" />
<polyline points="28.0,180.0,20.0,187.5,11.5,195.0" stroke="black" stroke-width="2" fill="none" />
<polyline points="12.0,196.0,19.5,195.5" stroke="black" stroke-width="2" fill="none" />
<polyline points="19.5,201.0,11.5,201.5" stroke="black" stroke-width="2" fill="none" />
<polyline points="11.5,207.0,19.0,206.5" stroke="black" stroke-width="2" fill="none" />
<polyline points="13.5,192.0,21.0,191.0,29.0,190.5" stroke="black" stroke-width="2" fill="none" />
<polyline points="26.5,183.0,18.0,183.5" stroke="black" stroke-width="2" fill="none" />
<polyline points="17.0,181.0,25.5,180.5" stroke="black" stroke-width="2" fill="none" />
<polyline points="29.0,188.0,21.0,188.5,13.0,189.0" stroke="black" stroke-width="2" fill="none" />
<polyline points="13.0,189.0,20.5,173.0,28.5,161.0,36.0,149.5,44.0,141.5,52.0,133.0,60.0,125.0,67.5,120.0,75.5,115.0,83.5,110.0,92.0,107.0,99.5,102.5,108.0,99.5,116.5,94.5" stroke="black" stroke-width="2" fill="none" />
<polyline points="104.0,99.5,88.0,107.5,75.0,116.0,63.5,124.0,53.0,132.0,45.5,140.0,37.0,148.5,31.0,157.0,25.5,165.0,19.5,173.0,15.5,181.5,11.5,189.5,9.5,197.5,6.5,205.0,5.5,212.5,3.5,220.5,3.0,228.5,3.5,236.5" stroke="black" stroke-width="2" fill="none" />
<polyline points="4.5,222.0,12.0,221.0,19.5,221.0" stroke="black" stroke-width="2" fill="none" />
<polyline points="19.0,211.5,10.5,212.0,3.0,213.0" stroke="black" stroke-width="2" fill="none" />
<polyline points="4.5,259.0,4.0,267.5,4.0,275.5,4.5,283.5,5.0,291.5,8.0,300.0,9.5,308.0,11.5,316.0,14.5,321.0,16.5,328.5,20.5,336.5,24.0,344.5,28.5,353.0,31.5,361.0,36.5,369.0,41.5,377.0,46.5,385.0,50.5,393.0,56.0,401.0,63.0,409.0,68.0,417.0,72.5,425.0,77.5,433.0,82.5,441.0,87.5,448.5,92.5,456.5,98.5,464.5,104.5,472.5,109.5,480.5,116.5,488.5,122.5,497.0,130.5,504.5,137.5,512.5,143.5,520.5,152.0,528.0,162.0,536.0,170.5,544.0,181.5,552.0,194.0,560.0,206.0,567.5" stroke="black" stroke-width="2" fill="none" />
<polyline points="64.5,130.5,72.5,123.5" stroke="black" stroke-width="2" fill="none" />
<polyline points="74.5,118.0,82.5,117.0" stroke="black" stroke-width="2" fill="none" />
<polyline points="84.0,108.0,92.0,107.5" stroke="black" stroke-width="2" fill="none" />
<polyline points="75.5,123.5,68.0,123.5,60.0,124.0" stroke="black" stroke-width="2" fill="none" />
<polyline points="82.5,59.0,90.5,58.5,99.0,58.0,107.0,57.5,115.0,57.0" stroke="black" stroke-width="2" fill="none" />
<polyline points="110.0,50.0,126.0,57.5" stroke="black" stroke-width="2" fill="none" />
<polyline points="107.0,53.0,99.0,60.0" stroke="black" stroke-width="2" fill="none" />
<polyline points="98.0,62.5,106.0,62.0,114.5,61.0,122.5,60.5,131.0,60.0" stroke="black" stroke-width="2" fill="none" />
<polyline points="123.5,53.0,115.5,53.0,108.0,53.0,100.0,53.5,91.0,54.0,82.5,54.0" stroke="black" stroke-width="2" fill="none" />
<polyline points="83.0,58.0,90.5,51.0,97.5,43.5,105.5,36.0" stroke="black" stroke-width="2" fill="none" />
<polyline points="99.5,35.5,91.0,43.0,83.0,50.5" stroke="black" stroke-width="2" fill="none" />
<polyline points="76.0,51.0,84.0,42.5,92.0,34.5" stroke="black" stroke-width="2" fill="none" />
<polyline points="82.0,38.0,74.0,45.0" stroke="black" stroke-width="2" fill="none" />
<polyline points="75.5,44.5,83.5,44.5,91.5,44.5,100.0,44.5,107.5,43.5" stroke="black" stroke-width="2" fill="none" />
<polyline points="107.0,46.5,115.0,46.0,123.0,42.5,131.0,41.0,138.5,37.5,146.5,35.5,154.5,33.5,163.0,31.5,171.0,30.5,179.0,29.5,187.5,28.5,195.5,28.5,203.5,28.0,211.5,28.5,219.5,29.5,228.0,31.0,242.0,41.0,243.5,40.0" stroke="black" stroke-width="2" fill="none" />
<polyline points="124.0,27.0,116.0,35.0,107.5,42.5,99.5,49.5,91.5,56.5" stroke="black" stroke-width="2" fill="none" />
<polyline points="75.0,50.0,83.5,49.5,91.5,49.0,100.0,48.0,108.5,47.0" stroke="black" stroke-width="2" fill="none" />
<polyline points="108.0,49.5,116.5,52.5,124.5,56.5,132.5,60.5,140.5,64.5,148.0,68.5,156.5,69.0,164.5,70.5,172.5,69.5,180.5,70.0,188.5,70.0" stroke="black" stroke-width="2" fill="none" />
<polyline points="182.0,26.5,173.0,27.0,164.5,27.5,156.0,28.0,148.0,28.0,140.5,28.0,132.0,28.0,123.5,28.5,115.0,29.0" stroke="black" stroke-width="2" fill="none" />
<polyline points="133.0,39.5,125.0,40.0,116.5,40.0,108.0,39.5,99.5,40.0,91.0,40.5,82.5,41.0" stroke="black" stroke-width="2" fill="none" />
<polyline points="81.0,36.0,75.0,44.0,82.5,51.5,95.5,59.5,112.5,67.5" stroke="black" stroke-width="2" fill="none" />
<polyline points="75.5,46.5,83.5,53.5,91.5,58.5,99.5,62.0,107.5,65.5,115.5,69.5,123.0,72.5,131.5,75.5,139.5,79.5,147.5,80.5,155.5,80.5,163.5,79.0,171.5,77.0,180.0,75.0,188.5,74.0,197.0,70.0,204.5,67.5,212.5,67.5,220.5,67.5,228.5,67.0,237.0,68.5" stroke="black" stroke-width="2" fill="none" />
<polyline points="141.5,33.5,133.0,33.5,125.0,33.5,117.0,33.5,108.5,33.5,100.0,34.0,92.0,34.5,83.5,35.0,75.0,35.5" stroke="black" stroke-width="2" fill="none" />
<polyline points="76.5,40.5,84.5,36.5,92.5,35.5,100.5,32.5,108.0,31.5,116.0,29.5,124.0,27.5,131.5,26.5,139.5,24.0,147.0,22.5,155.0,21.5,163.0,20.5,171.0,20.5,179.5,19.0,186.5,19.0,190.5,18.5,198.5,18.0,206.5,19.5,214.0,20.5,222.0,23.5,230.0,26.5,238.0,31.5,246.0,40.5" stroke="black" stroke-width="2" fill="none" />
</svg>